mtllib M_Ice_Bullet.mtl
o tripo_node_d35ca5a5-45f2-43fa-ae3a-aa396b16b14d
g tripo_node_d35ca5a5-45f2-43fa-ae3a-aa396b16b14d
usemtl tripo_material_d35ca5a5_45f2_43fa_ae3a_aa396b16b14d
v 0.178253174 0.071907043 0.470184326
vt 0.431152344 0.208496094
vn 0.387064666 0.102690622 0.916316330
v -0.012395859 0.048492432 0.453704834
vt 0.433593750 0.268310547
vn -0.031375688 0.149034515 0.988334119
v -0.023550034 -0.088310242 0.490264893
vt 0.377685547 0.260009766
vn 0.078701138 -0.102311477 0.991634309
v 0.250915527 -0.156921387 0.387695312
vt 0.338867188 0.171875000
vn 0.322814643 -0.133849964 0.936949790
v 0.002798080 0.147399902 0.455535889
vt 0.470703125 0.269531250
vn -0.086608805 0.338561684 0.936949790
v 0.073348999 0.239776611 0.409454346
vt 0.506347656 0.233398438
vn 0.062976509 0.535300314 0.842310846
v 0.243301392 0.259613037 0.352783203
vt 0.509033203 0.164794922
vn 0.691521406 0.510782838 0.510782838
v 0.104232788 0.302673340 0.322174072
vt 0.544189453 0.205078125
vn 0.141785040 0.811325550 0.567140162
v -0.114021301 0.194046021 0.386932373
vt 0.512207031 0.308837891
vn -0.149490505 0.448471487 0.881207168
v -0.218856812 0.067512512 0.457550049
vt 0.486083984 0.360595703
vn -0.361790001 0.149434999 0.920204997
v -0.064186096 0.301300049 0.369720459
vt 0.547607422 0.272949219
vn -0.023650657 0.748937488 0.662218392
v 0.162506104 0.415618896 0.134689331
vt 0.630859375 0.176025391
vn 0.204845086 0.906045616 0.370296896
v -0.245361328 0.260986328 0.348175049
vt 0.558105469 0.340576172
vn -0.457658648 0.465549320 0.757503986
v -0.062320709 0.368743896 0.227691650
vt 0.614013672 0.272705078
vn 0.000000000 0.869685888 0.493605494
v -0.194869995 0.344024658 0.276519775
vt 0.599609375 0.310058594
vn -0.259520888 0.833612621 0.487584740
vt 0.405517578 0.447753906
v 0.140060425 -0.263153076 0.430358887
vt 0.337158203 0.379638672
vn 0.165292844 -0.472265303 0.865819693
vt 0.375000000 0.338867188
v -0.013731003 -0.218521118 0.422027588
vt 0.338867188 0.435058594
vn -0.039193094 -0.431124032 0.901441097
v -0.166717529 -0.197860718 0.448516846
vt 0.341308594 0.498291016
vn -0.307458550 -0.354759872 0.882957876
vt 0.438720703 0.542724609
vt 0.454833984 0.464843750
vt 0.474121094 0.473876953
v -0.218032837 -0.065254211 0.403839111
vt 0.379150391 0.539550781
vn -0.646491528 -0.236521304 0.725332022
v -0.208984375 -0.164260864 0.390228271
vt 0.338378906 0.530029297
vn -0.628597617 -0.243581578 0.738602161
v -0.310089111 -0.132751465 0.342651367
vt 0.342773438 0.577392578
vn -0.722552717 -0.251322687 0.644014359
v -0.326263428 0.066635132 0.341949463
vt 0.419921875 0.605712891
vn -0.921031415 0.094464764 0.377859056
v -0.288299561 -0.138626099 0.301757812
vt 0.332275391 0.594238281
vn -0.989552498 -0.070682317 -0.125657454
vt 0.488037109 0.607666016
vt 0.496337891 0.570068359
v -0.287506104 0.255218506 0.272552490
vt 0.481445312 0.640136719
vn -0.741561115 0.504892647 0.441781074
v -0.321441650 0.058460236 0.324829102
vt 0.413818359 0.611572266
vn -0.943916857 -0.070793755 -0.322504908
v -0.284301758 0.070320129 0.184082031
vt 0.415771484 0.654785156
vn -0.876273274 0.481555581 -0.015788708
v -0.305328369 -0.141860962 0.294097900
vt 0.328369141 0.600830078
vn -0.039416537 0.985413432 -0.165549457
v -0.285888672 -0.144348145 0.296539307
vt 0.324707031 0.607910156
vn -0.945732474 -0.204908684 -0.252195299
v -0.262207031 -0.063217163 0.223846436
vt 0.347656250 0.643310547
vn -0.785553038 -0.518464983 0.337787777
v 0.266601562 -0.144378662 0.377227783
vt 0.899902344 0.639648438
vn 0.926295400 0.000000000 0.376798153
vt 0.915771484 0.466064453
vt 0.917480469 0.636718750
v 0.293975830 0.058410645 0.322326660
vt 0.802490234 0.532958984
vn 0.973005533 0.070621364 0.219710916
v 0.272399902 -0.158355713 0.383728027
vt 0.913574219 0.645019531
vn 0.157680869 0.331129819 0.930317104
v 0.276611328 -0.158889771 0.382507324
vt 0.914062500 0.646240234
vn 0.047296904 -0.402023673 -0.914406836
v 0.268371582 -0.163146973 0.385650635
vt 0.913818359 0.649414062
vn -0.385051668 0.251462311 0.887976289
v 0.261169434 -0.053321838 0.203247070
vt 0.767333984 0.652099609
vn 0.904474974 -0.039324999 0.424710006
v 0.284759521 -0.152404785 0.384124756
vt 0.908691406 0.653564453
vn 0.376508236 0.666733325 0.643201530
v 0.284240723 -0.153259277 0.374633789
vt 0.904785156 0.656982422
vn 0.840308368 0.541881084 0.015706699
v 0.270874023 -0.163192749 0.261840820
vt 0.840576172 0.706298828
vn 0.954740942 0.276164711 -0.110465892
vt 0.911376953 0.657714844
vn 0.686894417 -0.726371109 0.023686014
vt 0.848876953 0.801513672
vt 0.851562500 0.852050781
v -0.012513161 -0.330505371 0.375396729
vt 0.810546875 0.795654297
vn -0.047062080 -0.729462266 0.682400167
v -0.154830933 -0.309967041 0.343872070
vt 0.802978516 0.842773438
vn -0.204300508 -0.660047829 0.722909510
vt 0.843505859 0.750000000
v 0.206451416 -0.329101562 0.342254639
vt 0.811279297 0.724121094
vn 0.569049954 -0.671795070 0.474208325
v 0.229415894 -0.242477417 0.365936279
vt 0.839111328 0.713867188
vn 0.777865469 -0.424290270 0.463576376
v 0.137207031 -0.432403564 0.230667114
vt 0.760253906 0.740478516
vn 0.133618236 -0.919607878 0.369415134
v -0.153732300 -0.417266846 0.251922607
vt 0.758056641 0.836914062
vn -0.260879755 -0.822166502 0.505948663
v -0.160369873 -0.376556396 0.290924072
vt 0.775878906 0.841308594
vn -0.377660155 -0.605829835 0.700244904
v -0.212921143 -0.248779297 0.365478516
vt 0.818115234 0.868896484
vn -0.550993204 -0.488022596 0.676934540
v -0.008930206 -0.420227051 0.195663452
vt 0.746582031 0.788085938
vn -0.047185622 -0.927983880 0.369620711
v -0.013253212 -0.475708008 0.072273254
vt 0.703369141 0.784179688
vn -0.055296671 -0.995340109 0.078995243
v -0.164031982 -0.431091309 0.180145264
vt 0.734375000 0.837158203
vn -0.221186683 -0.947942972 0.229086205
v -0.216567993 -0.381469727 0.156723022
vt 0.728027344 0.860595703
vn -0.566648185 -0.787011385 0.243973523
v -0.190582275 -0.469207764 0.001022339
vt 0.675048828 0.837890625
vn -0.401226699 -0.912594080 0.078671902
v -0.168594360 -0.452697754 -0.101997375
vt 0.642089844 0.828125000
vn -0.204369918 -0.958966613 -0.196509540
v -0.134384155 -0.432952881 -0.230133057
vt 0.602050781 0.812988281
vn -0.134338036 -0.908757269 -0.395111859
v 0.006608963 -0.475585938 -0.073150635
vt 0.657958984 0.772216797
vn 0.063166648 -0.994874716 -0.078958310
v -0.159667969 -0.310394287 0.340240479
vt 0.035644531 0.591064453
vn -0.503874540 -0.582604945 0.637716174
vt 0.048339844 0.641113281
vt 0.001464844 0.619140625
vt 0.014648438 0.660156250
vt 0.036376953 0.562500000
vt 0.047851562 0.588867188
v 0.258148193 -0.177398682 0.391937256
vt 0.088134766 0.607177734
vn 0.157052457 0.164905071 0.973725259
vt 0.114013672 0.606445312
vt 0.085693359 0.795654297
vt 0.092773438 0.568115234
vt 0.085449219 0.579101562
vt 0.073974609 0.566894531
vt 0.073486328 0.593261719
vn 0.747637570 -0.503671646 0.432842821
vt 0.485839844 0.434814453
vt 0.543457031 0.636474609
v 0.242446899 -0.186782837 0.394287109
vt 0.490966797 0.459716797
vn 0.607581317 -0.520783961 0.599690676
vt 0.441894531 0.453125000
vt 0.414306641 0.424804688
v 0.257232666 -0.171936035 0.389678955
vt 0.466308594 0.440429688
vn -0.557175577 0.714126527 0.423767358
vt 0.436035156 0.424804688
vt 0.426513672 0.420166016
vt 0.434814453 0.419189453
v 0.259643555 -0.172851562 0.388610840
vt 0.473388672 0.432128906
vn -0.486982763 0.172800347 -0.856147110
v 0.258178711 -0.172653198 0.388977051
vt 0.472656250 0.434570312
vn 0.172907040 0.188625842 0.966707468
v 0.258087158 -0.173690796 0.389099121
vt 0.475097656 0.434570312
vn 0.118095599 -0.251937270 0.960510850
vt 0.475097656 0.432861328
vn -0.031479482 -0.605980039 -0.794856846
v 0.260620117 -0.172668457 0.388244629
vt 0.475830078 0.431884766
vn 0.666733325 -0.486323148 0.564762294
vt 0.465087891 0.418457031
vn -0.903385997 0.424198657 -0.062844239
vt 0.543701172 0.339111328
vt 0.383056641 0.047851562
vt 0.416748047 0.068603516
vt 0.392333984 0.081054688
vt 0.405029297 0.050781250
vt 0.404296875 0.049560547
vt 0.406982422 0.049804688
vt 0.816162109 0.062011719
vt 0.832031250 0.044189453
vt 0.845214844 0.092285156
vt 0.952148438 0.223388672
vt 0.951171875 0.226562500
vt 0.933349609 0.241210938
vt 0.951904297 0.224609375
vt 0.862060547 0.209472656
vt 0.970214844 0.211181641
vt 0.627441406 0.638427734
vt 0.523681641 0.659667969
vt 0.535888672 0.644287109
vt 0.517822266 0.697998047
v 0.281738281 -0.159454346 0.349853516
vt 0.539550781 0.726562500
vn 0.742115557 -0.647377372 0.173686624
v 0.229293823 -0.333618164 0.242263794
vt 0.784912109 0.726562500
vn 0.897304058 -0.283359140 0.338456780
vt 0.728515625 0.614746094
vt 0.785644531 0.923583984
vt 0.793945312 0.881103516
v -0.277740479 -0.301086426 0.281250000
vt 0.836425781 0.941406250
vn -0.835137725 -0.433326155 0.338782251
vt 0.767333984 0.998046875
vt 0.861328125 0.864013672
vt 0.863281250 0.835449219
vt 0.856689453 0.840576172
v -0.388092041 -0.169372559 0.108283997
vt 0.899169922 0.757080078
vn -0.323386490 -0.883397222 0.339161426
vt 0.876953125 0.869384766
v -0.332183838 -0.162902832 0.138793945
vt 0.906738281 0.791259766
vn -0.425778031 0.157695562 0.890979946
vt 0.886230469 0.867187500
v -0.276031494 -0.199310303 0.164062500
vt 0.919921875 0.937988281
vn -0.979510546 -0.134287730 0.150086299
v -0.262237549 -0.321258545 0.168121338
vt 0.885009766 0.985839844
vn -0.996392548 0.070610493 0.047073662
v -0.269836426 -0.113174438 0.181701660
vt 0.939453125 0.908447266
vn -0.884084940 -0.126297846 0.449936092
vt 0.937988281 0.887451172
vt 0.956787109 0.951904297
vt 0.164306641 0.840087891
vt 0.090576172 0.820556641
vt 0.161132812 0.787109375
vt 0.000244141 0.849853516
vt 0.054443359 0.785156250
v 0.210845947 0.368957520 0.151931763
vt 0.018798828 0.865234375
vn 0.527673542 0.811199665 0.252023190
v 0.296936035 0.318695068 0.117973328
vt 0.041748047 0.898437500
vn 0.848816335 0.353673458 0.392970502
v 0.313720703 0.338989258 0.105697632
vt 0.033447266 0.905517578
vn 0.847143531 0.525542736 0.078439213
v 0.261260986 0.233123779 0.232635498
vt 0.085937500 0.871337891
vn 0.945938110 -0.141890705 0.291664273
v 0.305694580 0.199066162 0.123374939
vt 0.085449219 0.911621094
vn 0.973995507 -0.188515261 0.125676841
v 0.257476807 0.123657227 0.149353027
vt 0.119140625 0.905761719
vn 0.965366781 0.188364238 0.180515736
v 0.301025391 0.261413574 -0.080680847
vt 0.049316406 0.971191406
vn 0.942750931 -0.322106540 0.086418837
v 0.352416992 0.267089844 -0.166488647
vt 0.023925781 0.992431641
vn 0.851979911 0.449656069 -0.268215895
v 0.283813477 0.183105469 0.037425995
vt 0.090332031 0.940917969
vn 0.876273274 0.481555581 0.015788708
v 0.273498535 0.134750366 -0.112670898
vt 0.082031250 0.994873047
vn 0.967245400 0.243777290 -0.070774049
v 0.402221680 0.072418213 -0.060916901
vt 0.125732422 0.997558594
vn 0.947499633 0.268458217 -0.173708275
v 0.369964600 -0.109443665 0.146484375
vt 0.210449219 0.962158203
vn 0.919551075 0.000000000 0.392970562
v 0.378448486 -0.168762207 0.073455811
vt 0.218261719 1.000000000
vn 0.945732474 -0.299481928 0.126097649
v 0.375061035 0.077247620 0.138092041
vt 0.159912109 0.941162109
vn 0.765204191 0.378657728 0.520654380
v 0.269073486 0.072364807 0.164627075
vt 0.136962891 0.902832031
vn 0.377566725 0.888854980 0.259577125
v 0.272521973 0.069099426 0.166900635
vt 0.180664062 0.901367188
vn 0.787377179 -0.543290198 0.291329563
vt 0.214843750 0.895507812
vt 0.555175781 0.471435547
vt 0.515380859 0.426025391
v -0.319793701 0.209457397 0.215393066
vt 0.566406250 0.419677734
vn -0.889708638 -0.322814643 -0.322814643
v -0.353118896 0.266174316 0.167251587
vt 0.584472656 0.398193359
vn -0.847560823 0.486562699 0.211890206
vt 0.558105469 0.367431641
v -0.218688965 0.338562012 0.225555420
vt 0.572021484 0.338867188
vn -0.620433688 0.659701645 0.424093932
v -0.327880859 0.239013672 0.165298462
vt 0.583984375 0.412841797
vn -0.880771041 -0.385337323 -0.275240928
v -0.300842285 0.260528564 0.081016541
vt 0.605712891 0.412109375
vn -0.936282575 -0.338320583 -0.094415054
v -0.276916504 0.131637573 0.112869263
vt 0.596435547 0.458740234
vn -0.963621795 0.252753258 0.086883932
v -0.403900146 0.071968079 0.063064575
vt 0.610595703 0.511718750
vn -0.934779167 0.290645629 0.204237461
v -0.279937744 0.188552856 -0.044319153
vt 0.642822266 0.464599609
vn -0.867325604 0.496741027 -0.031539112
vt 0.514648438 0.513916016
v -0.286499023 0.059276581 0.185760498
vt 0.556152344 0.551025391
vn -0.801857948 -0.322315454 0.503126562
v -0.358703613 -0.138946533 0.136734009
vt 0.611816406 0.607666016
vn -0.632297456 0.015807437 0.774564385
v -0.255126953 -0.096679688 0.191131592
vt 0.567138672 0.610107422
vn -0.898892641 0.378481120 -0.220780656
v -0.388000488 -0.166351318 0.111686707
vt 0.623779297 0.598388672
vn -0.820527196 0.252469897 0.512829483
vt 0.612548828 0.634521484
vt 0.629150391 0.615966797
v 0.376129150 -0.166137695 0.147918701
vt 0.064453125 0.239990234
vn 0.639761686 -0.292236835 0.710846305
vt 0.008789062 0.202392578
vt 0.003417969 0.153076172
vt 0.191406250 0.022705078
vt 0.347656250 0.022705078
vt 0.176513672 0.032470703
vt 0.567626953 0.082763672
vt 0.592529297 0.048339844
vt 0.596191406 0.093505859
v 0.265777588 -0.278839111 0.212463379
vt 0.829345703 0.125244141
vn 0.980218887 -0.109784514 0.164676771
vt 0.801269531 0.061279297
vt 0.870361328 0.125000000
vt 0.781005859 0.092773438
v 0.292358398 -0.356750488 0.147842407
vt 0.837402344 0.177734375
vn 0.914662719 -0.378481120 0.141930416
v 0.322418213 -0.165924072 0.156509399
vt 0.736083984 0.070800781
vn 0.047332216 -0.686317146 0.725760698
vt 0.719970703 0.071044922
v 0.368560791 -0.170410156 0.149047852
vt 0.719726562 0.059326172
vn 0.094312921 -0.990285695 0.102172330
vt 0.717529297 0.055419922
vt 0.914306641 0.098876953
v 0.199356079 -0.385253906 0.180526733
vt 0.881591797 0.183349609
vn 0.556422234 -0.752345562 0.352661997
vt 0.917480469 0.205078125
v 0.200668335 -0.385772705 0.175582886
vt 0.876464844 0.202148438
vn 0.528707623 -0.812789261 0.244625911
vt 0.407470703 0.127685547
vt 0.397705078 0.118164062
vt 0.431640625 0.116455078
v -0.209594727 0.420623779 0.130462646
vt 0.362548828 0.129638672
vn -0.408323795 0.903023839 0.133490473
vt 0.379638672 0.066894531
v -0.285614014 0.360778809 -0.045719147
vt 0.312255859 0.091064453
vn -0.614955366 0.788404346 -0.015768087
v -0.314392090 0.330596924 -0.083938599
vt 0.302978516 0.080078125
vn -0.997990966 -0.055007376 -0.031432785
v -0.211257935 0.369384766 -0.145004272
vt 0.283203125 0.116210938
vn -0.463633627 0.880118132 -0.102156565
v -0.315917969 0.336883545 -0.106704712
vt 0.295410156 0.079101562
vn -0.706039786 0.447158515 -0.549142003
v -0.312347412 0.318359375 -0.110565186
vt 0.297119141 0.075683594
vn -0.212479889 -0.133783624 0.967963934
v -0.143920898 0.416046143 -0.222763062
vt 0.256103516 0.142333984
vn -0.204699025 0.873907387 -0.440890223
v 0.001360893 0.474548340 0.000230089
vt 0.316894531 0.188720703
vn -0.031562667 0.994224012 0.102578662
v -0.099411011 0.434082031 -0.148849487
vt 0.274902344 0.166015625
vn -0.180738553 0.974416494 -0.133589357
v 0.084762573 0.450561523 -0.054512024
vt 0.263916016 0.210937500
vn 0.157793701 0.978320897 -0.134124637
v -0.307373047 0.199493408 -0.123794556
vt 0.278076172 0.037841797
vn -0.959529996 -0.228084996 -0.165164992
v -0.261901855 0.271240234 -0.223205566
vt 0.257080078 0.062500000
vn -0.964772701 -0.117655210 -0.235310420
v -0.243469238 0.260192871 -0.352233887
vt 0.216064453 0.081787109
vn -0.573648453 0.534357429 -0.620797634
v -0.257049561 0.163711548 -0.337860107
vt 0.216552734 0.056640625
vn -0.990744889 0.133671924 0.023589164
v -0.264587402 0.324920654 -0.142395020
vt 0.277832031 0.091308594
vn -0.592076540 0.702597499 -0.394717664
v -0.106758118 0.304870605 -0.320587158
vt 0.213378906 0.121582031
vn -0.133841664 0.692827523 -0.708573580
v -0.074600220 0.238739014 -0.410278320
vt 0.179443359 0.113525391
vn -0.062976509 0.535300314 -0.842310846
v -0.182983398 0.071067810 -0.473571777
vt 0.152832031 0.058349609
vn -0.384849757 0.086394846 -0.918926954
v 0.064765930 0.301818848 -0.369750977
vt 0.179687500 0.149169922
vn 0.070925526 0.701374710 -0.709255338
v 0.053325653 0.366424561 -0.233047485
vt 0.212890625 0.162841797
vn 0.110520966 0.860484660 -0.497344345
vt 0.309570312 0.975585938
vt 0.284667969 0.898193359
vt 0.333740234 0.920410156
vt 0.918945312 0.794433594
vt 0.977294922 0.907226562
vt 0.898193359 0.847900391
vt 0.978759766 0.829101562
vt 0.965576172 0.801757812
vt 0.114501953 0.375244141
vt 0.216064453 0.399169922
v -0.216613770 -0.377838135 0.164535522
vt 0.150878906 0.430908203
vn -0.611807048 -0.729462266 0.305903524
v -0.290039062 -0.363281250 0.106987000
vt 0.167236328 0.480957031
vn -0.871829271 -0.471259058 0.133523390
vt 0.196777344 0.459960938
vt 0.127929688 0.438720703
vt 0.073486328 0.524658203
v -0.292205811 -0.355651855 -0.147155762
vt 0.129882812 0.613281250
vn -0.906721354 -0.394226670 -0.149806142
vt 0.694824219 0.123535156
v -0.062450409 0.414672852 0.172622681
vt 0.621337891 0.127197266
vn 0.007870845 0.905147076 0.425025612
vt 0.610107422 0.104736328
vt 0.583007812 0.147460938
vt 0.565673828 0.090820312
vt 0.661132812 0.182128906
vt 0.693359375 0.197021484
v 0.203765869 0.423248291 -0.129074097
vt 0.748291016 0.190185547
vn 0.157285392 0.943712413 -0.290977985
vt 0.719482422 0.292480469
vt 0.771484375 0.256591797
v 0.210586548 0.420806885 -0.130859375
vt 0.750976562 0.188232422
vn 0.432896435 0.897276282 -0.086579293
vt 0.716064453 0.103515625
vt 0.760986328 0.092041016
v 0.240875244 0.385559082 -0.137130737
vt 0.768798828 0.183105469
vn 0.694789767 0.686894417 -0.213174134
v 0.190689087 0.346832275 -0.266296387
vt 0.791259766 0.224365234
vn 0.354980588 0.796734154 -0.489084333
vt 0.815673828 0.275634766
vt 0.503906250 0.109863281
vt 0.505126953 0.107910156
vt 0.547851562 0.197265625
v -0.399414062 -0.172546387 0.061004639
vt 0.500244141 0.090332031
vn -0.873014987 -0.487630010 -0.007865000
v -0.275207520 -0.232498169 0.103950500
vt 0.554443359 0.060302734
vn -0.754573405 -0.542349637 -0.369426578
vt 0.395019531 0.087402344
v -0.378936768 -0.168136597 -0.074325562
vt 0.473632812 0.051513672
vn -0.964073002 -0.229164883 -0.134338036
vt 0.143798828 0.001953125
v 0.263763428 -0.189086914 0.151641846
vt 0.115478516 0.038330078
vn 0.794635415 -0.039338388 0.605811179
vt 0.085449219 0.000000000
vt 0.185546875 0.011230469
vt 0.128662109 0.075195312
vt 0.116699219 0.067382812
vt 0.056152344 0.049560547
vt 0.109130859 0.096191406
vt 0.082275391 0.101074219
vt 0.000000000 0.104736328
vt 0.112792969 0.127929688
vt 0.881103516 0.442626953
vt 0.810791016 0.461425781
vt 0.788818359 0.443359375
vt 0.972900391 0.538330078
v 0.263122559 -0.184783936 0.147033691
vt 0.927490234 0.535644531
vn 0.817580760 -0.361622274 -0.448097169
vt 0.976074219 0.536621094
v 0.263153076 -0.262268066 0.031616211
vt 0.921142578 0.474609375
vn 0.806078553 -0.331914693 0.489969343
vt 0.923095703 0.612304688
v 0.396057129 -0.175445557 -0.064353943
vt 0.334716797 0.462402344
vn 0.873041928 -0.487645060 0.000000000
vt 0.238525391 0.404052734
v 0.259277344 -0.271789551 0.029249191
vt 0.312744141 0.390136719
vn 0.862989068 -0.427535892 -0.269189239
vt 0.262695312 0.457763672
vt 0.228515625 0.468750000
v 0.289215088 -0.364837646 -0.104248047
vt 0.319824219 0.324218750
vn 0.935558856 -0.338059098 -0.102203913
v 0.274749756 -0.232803345 -0.103927612
vt 0.342773438 0.356201172
vn 0.781419277 -0.513053060 0.355190575
v 0.276519775 -0.196670532 -0.158721924
vt 0.380371094 0.315673828
vn 0.979510546 -0.134287730 -0.150086299
v 0.260070801 -0.321502686 -0.173934937
vt 0.347412109 0.304687500
vn 0.997252405 0.062819049 -0.039261907
v 0.278564453 -0.303680420 -0.279052734
vt 0.360839844 0.262451172
vn 0.710624754 -0.505333126 -0.489541471
v 0.217575073 -0.377716064 -0.163024902
vt 0.321533203 0.279052734
vn 0.596284807 -0.745356023 -0.298142403
v 0.151092529 -0.416534424 -0.250762939
vt 0.304199219 0.239501953
vn 0.236948773 -0.876710415 -0.418609500
v 0.155319214 -0.317504883 -0.336456299
vt 0.346191406 0.213623047
vn 0.400978565 -0.581812084 -0.707609296
v 0.214797974 -0.383117676 -0.159317017
vt 0.305908203 0.287597656
vn 0.560167611 -0.788968444 -0.252469897
v 0.191009521 -0.466979980 -0.000222027
vt 0.244140625 0.317871094
vn 0.353313625 -0.934318185 -0.047108479
vt 0.211181641 0.386474609
v 0.009184837 -0.420593262 -0.195098877
vt 0.239013672 0.212402344
vn 0.055186581 -0.930288076 -0.362654686
vt 0.169921875 0.374267578
vt 0.194580078 0.249267578
vt 0.204345703 0.166992188
vt 0.144775391 0.275634766
vt 0.224609375 0.895019531
vt 0.231201172 0.919189453
vt 0.222900391 0.940185547
vt 0.164794922 0.000000000
vn -0.150198817 0.031620804 0.988150120
vt 0.253173828 0.000000000
vt 0.212646484 0.010253906
v -0.273284912 -0.230865479 0.106864929
vt 0.631103516 0.103027344
vn -0.482533962 -0.253132552 0.838501632
vt 0.602539062 0.093750000
vt 0.633300781 0.042968750
vt 0.961669922 0.779052734
vt 0.957519531 0.691406250
vt 0.985595703 0.722900391
vt 0.936279297 0.755126953
vt 0.865722656 0.747558594
vt 0.887451172 0.678710938
v -0.271118164 -0.343109131 0.074188232
vt 0.950439453 0.670654297
vn -0.987878382 0.109764263 -0.109764263
v -0.270416260 -0.340850830 -0.049591064
vt 0.979003906 0.616699219
vn -0.941502273 0.329525769 0.070612662
vt 0.451660156 0.925048828
vt 0.429687500 0.935058594
vt 0.433349609 0.887939453
vt 0.518066406 0.858886719
vt 0.591308594 0.929687500
v 0.387145996 -0.165740967 -0.111763000
vt 0.529296875 0.836914062
vn 0.735367537 0.506059349 -0.450709105
v 0.389739990 -0.168685913 -0.108879089
vt 0.527587891 0.838867188
vn 0.291338593 -0.897637784 -0.330708653
v 0.309173584 -0.132369995 -0.342620850
vt 0.504394531 0.708740234
vn 0.843094885 0.338813812 -0.417607754
v 0.287902832 -0.144332886 -0.296386719
vt 0.517089844 0.722900391
vn -0.741630375 -0.670623183 -0.015779369
v 0.331848145 -0.162536621 -0.138671875
vt 0.536376953 0.812500000
vn 0.410724014 -0.276448846 -0.868839324
v 0.269104004 -0.103073120 -0.188858032
vt 0.582031250 0.804687500
vn 0.888882458 -0.125859469 -0.440508127
vt 0.550292969 0.784667969
v 0.349731445 -0.132858276 -0.144470215
vt 0.559082031 0.834960938
vn 0.674494267 0.039214782 -0.737237930
v 0.261749268 -0.063011169 -0.224090576
vt 0.596435547 0.802734375
vn 0.803149581 -0.519685030 -0.291338593
v 0.293487549 0.065956116 -0.173034668
vt 0.642822266 0.918212891
vn 0.826157212 -0.330462873 -0.456353486
v 0.263000488 -0.071250916 -0.209396362
vt 0.624511719 0.864501953
vn 0.940366209 0.292382807 0.173849225
vt 0.153076172 0.135742188
vt 0.197021484 0.184814453
v -0.264770508 -0.262756348 -0.023227692
vt 0.105224609 0.189697266
vn -0.762527704 -0.573861122 0.298722208
vt 0.091796875 0.141845703
vt 0.055664062 0.189208984
v -0.339843750 -0.248138428 -0.016855240
vt 0.138183594 0.212402344
vn -0.927897751 -0.172997892 -0.330268681
v -0.262786865 -0.260955811 -0.029766083
vt 0.134765625 0.252197266
vn -0.807774782 -0.384281218 -0.447021008
vt 0.074218750 0.241210938
vt 0.000244141 0.133544922
v -0.263458252 -0.183486938 -0.147247314
vt 0.109863281 0.319091797
vn -0.809769452 -0.338059098 0.479572207
v -0.373199463 -0.159057617 -0.143905640
vt 0.058349609 0.355712891
vn -0.623110533 -0.291836590 -0.725647748
v -0.263519287 -0.185287476 -0.150695801
vt 0.020263672 0.339111328
vn -0.804747820 -0.047338109 -0.591726363
v -0.263031006 -0.253112793 -0.231384277
vt 0.000244141 0.304931641
vn -0.981456876 0.157033101 0.109923169
vt 0.015380859 0.371337891
vt 0.071533203 0.391601562
vt 0.041015625 0.433837891
vt 0.039550781 0.476806641
v -0.257720947 0.124275208 -0.140213013
vt 0.016601562 0.474853516
vn -0.981033564 0.102027483 -0.164813638
vt 0.101318359 0.463378906
vt 0.100341797 0.360107422
vt 0.095947266 0.476074219
v -0.381561279 0.077285767 -0.133544922
vt 0.019775391 0.530029297
vn 0.544168055 -0.070978448 0.835968435
vt 0.883789062 0.226806641
vt 0.910156250 0.316650391
vt 0.831054688 0.295654297
vn -0.920546770 0.180962190 -0.346188545
vt 0.787597656 0.189453125
v -0.328369141 0.084022522 -0.144973755
vt 0.839843750 0.318847656
vn -0.165395349 0.882108510 -0.441054255
v -0.292877197 0.059070587 -0.318847656
vt 0.788085938 0.383300781
vn -0.976589918 0.086632982 -0.196893126
vt 0.864013672 0.349365234
v -0.268951416 0.073081970 -0.164428711
vt 0.840820312 0.344238281
vn -0.473631769 0.852537155 -0.221028149
vt 0.818847656 0.431396484
vt 0.876953125 0.423828125
vt 0.891845703 0.377197266
vt 0.426269531 0.947265625
vt 0.340820312 0.989257812
vt 0.351806641 0.919921875
vt 0.353515625 0.883789062
vt 0.233642578 0.868408203
vt 0.410400391 0.876708984
vt 0.275390625 0.894287109
vt 0.249511719 0.945556641
vt 0.223144531 0.871337891
vt 0.267822266 0.947753906
vt 0.674316406 0.045898438
v 0.290679932 0.071037292 -0.180618286
vt 0.674316406 0.113037109
vn 0.849525154 0.527020216 0.023597920
vt 0.639160156 0.097167969
vt 0.762207031 1.000000000
v -0.202209473 -0.384674072 -0.173049927
vt 0.718505859 0.941894531
vn -0.535632372 -0.803448558 -0.259939253
vt 0.762451172 0.957519531
vt 0.743164062 0.893066406
vt 0.678466797 0.970703125
vt 0.623291016 0.998291016
v -0.282775879 -0.157882690 -0.365692139
vt 0.551025391 0.981445312
vn -0.646471381 -0.181327343 -0.741076946
v -0.228744507 -0.333099365 -0.246185303
vt 0.651367188 0.921386719
vn -0.805374742 -0.394791543 -0.442166537
v -0.209838867 -0.332641602 -0.343963623
vt 0.651611328 0.865234375
vn -0.565930009 -0.620951056 -0.542349637
v -0.221481323 -0.340484619 -0.259948730
vt 0.679199219 0.899658203
vn -0.526320517 -0.816975117 -0.235665917
v -0.198760986 -0.385833740 -0.181442261
vt 0.706298828 0.926269531
vn -0.574482679 -0.684657335 -0.448568642
v 0.324249268 0.062335968 -0.332977295
vt 0.353271484 0.711669922
vn 0.982062399 0.000000000 -0.188555971
vt 0.282226562 0.628662109
vt 0.341796875 0.646972656
vt 0.290771484 0.695556641
v 0.319244385 0.211563110 -0.214309692
vt 0.296630859 0.759521484
vt 0.257812500 0.720947266
v 0.330932617 0.244781494 -0.168334961
vt 0.282714844 0.770263672
vn 0.872610152 -0.408790320 0.267285973
vt 0.258300781 0.772705078
vt 0.284667969 0.789306641
vt 0.287109375 0.852539062
vt 0.199951172 0.868652344
vt 0.346191406 0.844726562
v 0.282531738 0.255187988 -0.274475098
vt 0.336425781 0.793212891
vn 0.686744630 0.599914908 -0.410468042
v 0.261077881 0.212097168 -0.345520020
vt 0.366699219 0.778564453
vn 0.789165020 0.284099400 -0.544523835
v 0.218688965 0.067298889 -0.455688477
vt 0.422607422 0.729736328
vn 0.370342910 0.165472358 -0.914037824
v 0.248275757 0.260375977 -0.348724365
vt 0.370117188 0.796630859
vn 0.306934446 0.535167694 -0.787011385
vt 0.416259766 0.853027344
v 0.113189697 0.193679810 -0.387451172
vt 0.432373047 0.805419922
vn 0.150016099 0.442152709 -0.884305418
vt 0.476806641 0.866455078
v -0.000765264 0.146804810 -0.455047607
vt 0.483154297 0.827880859
vn 0.094415054 0.338320583 -0.936282575
vt 0.681152344 0.114013672
vt 0.681152344 0.043701172
vt 0.711914062 0.098144531
vt 0.022460938 0.745849609
vt 0.082275391 0.666015625
vt 0.078369141 0.725341797
v 0.273162842 -0.230957031 -0.106727600
vt 0.035888672 0.686035156
vn 0.440018266 -0.243581548 -0.864321589
vt 0.024414062 0.663574219
vt 0.055175781 0.653076172
vt 0.053466797 0.590332031
vt 0.063720703 0.572998047
vt 0.891601562 0.989746094
vt 0.988525391 0.961181641
vt 0.901367188 0.992919922
vt 0.934326172 0.956787109
vt 0.000244141 0.919921875
vn -0.229480371 0.213654146 -0.949573994
vt 0.000244141 0.858642578
vt 0.018798828 0.906005859
vt 0.926757812 0.277099609
vt 0.947265625 0.376220703
v -0.280578613 0.063659668 -0.182342529
vt 0.899414062 0.377929688
vn -0.699206948 -0.274968982 -0.659925580
vt 0.880859375 0.433349609
vt 0.989501953 0.017822266
vt 0.985595703 0.143310547
v -0.262176514 -0.062141418 -0.201354980
vt 0.949218750 0.088134766
vn -0.962301850 -0.078877203 -0.260294765
vt 0.921630859 0.171875000
v -0.322845459 -0.167098999 -0.155944824
vt 0.963378906 0.023193359
vn -0.149643436 -0.378046572 -0.913612485
vt 0.931884766 0.018554688
v -0.272705078 -0.161437988 -0.259246826
vt 0.894287109 0.061767578
vn -0.996239305 -0.007844404 0.086288445
vt 0.850097656 0.093750000
vt 0.878417969 0.014892578
vt 0.985351562 0.389648438
vn 0.094620280 0.993512928 0.063080184
vt 0.887207031 0.437744141
vt 0.984130859 0.362548828
vn 0.172800347 0.981820107 0.078545608
vt 0.941162109 0.428466797
vn -0.039309196 0.998453617 0.039309196
vt 0.601806641 0.327392578
vt 0.650634766 0.384765625
vt 0.586914062 0.382568359
vt 0.620117188 0.281738281
vt 0.662109375 0.315673828
vt 0.705566406 0.321533203
vn 0.973605216 -0.015703309 0.227697998
vt 0.667968750 0.295410156
v 0.287139893 -0.139266968 -0.301757812
vt 0.705322266 0.324462891
vn 0.914861739 -0.086754136 0.394336939
vt 0.713623047 0.341064453
vn 0.737714529 -0.204048693 -0.643538177
v 0.277526855 -0.240997314 -0.297760010
vt 0.735839844 0.298339844
vn 0.986671269 -0.039466850 0.157867402
vt 0.753662109 0.280029297
vt 0.689697266 0.435058594
v 0.207397461 -0.164474487 -0.391174316
vt 0.753173828 0.364501953
vn 0.583909333 -0.347189337 -0.733832002
vt 0.799560547 0.316162109
v 0.165756226 -0.195922852 -0.449005127
vt 0.781250000 0.383544922
vn 0.329972953 -0.361398965 -0.872071385
v 0.225265503 -0.023918152 -0.412475586
vt 0.710937500 0.401611328
vn 0.646491528 -0.236521304 -0.725332022
v 0.031742096 -0.086868286 -0.489257812
vt 0.783691406 0.453369141
vn -0.094234377 -0.109940104 -0.989460945
v 0.010205269 0.049026489 -0.453643799
vt 0.746093750 0.494873047
vn 0.047401585 0.150105029 -0.987533033
vt 0.789062500 0.558593750
vt 0.718994141 0.522216797
vt 0.667724609 0.501953125
vt 0.707031250 0.570556641
vt 0.947021484 0.432373047
vt 0.996826172 0.419433594
vt 0.998535156 0.458496094
vt 0.943603516 0.473876953
vt 0.952880859 0.500244141
vt 1.000000000 0.508300781
vt 0.307861328 0.599853516
vt 0.250976562 0.638916016
v -0.226501465 -0.244232178 -0.365417480
vt 0.261718750 0.608154297
vn -0.769248724 -0.384624362 -0.510215998
vt 0.280029297 0.585449219
v -0.141082764 -0.263031006 -0.429931641
vt 0.241943359 0.580078125
vn -0.180654898 -0.439855397 -0.879710793
vt 0.313964844 0.543945312
v 0.010971069 -0.331726074 -0.374511719
vt 0.231689453 0.525390625
vn 0.054883815 -0.729170680 -0.682127416
vt 0.299804688 0.499267578
vt 0.268310547 0.462890625
vt 0.203857422 0.487060547
vt 0.162597656 0.519531250
v 0.013095856 -0.219253540 -0.421966553
vt 0.201660156 0.549560547
vn 0.039324999 -0.424710006 -0.904474974
vt 0.162353516 0.575683594
vt 0.168212891 0.659912109
v -0.260955811 -0.064308167 -0.361480713
vt 0.228515625 0.659179688
vn -0.813828886 0.118518777 -0.568890095
v -0.266601562 0.057929993 -0.343231201
vt 0.205810547 0.691162109
vn -0.812106788 -0.007884532 -0.583455443
vt 0.216552734 0.699951172
vt 0.158203125 0.732910156
vt 0.186523438 0.720458984
v -0.272338867 -0.103179932 -0.362426758
vt 0.246826172 0.656005859
vn -0.981820107 -0.078545608 0.172800347
vt 0.270263672 0.703125000
vt 0.954833984 0.288330078
vn -0.408929378 0.621258140 0.668442249
vt 0.895507812 0.246582031
vt 0.988769531 0.245849609
f 1/1/1 2/2/2 3/3/3
f 1/1/1 3/3/3 4/4/4
f 2/2/2 1/1/1 5/5/5
f 5/5/5 1/1/1 6/6/6
f 6/6/6 1/1/1 7/7/7
f 6/6/6 7/7/7 8/8/8
f 5/5/5 6/6/6 9/9/9
f 5/5/5 9/9/9 10/10/10
f 6/6/6 8/8/8 11/11/11
f 6/6/6 11/11/11 9/9/9
f 11/11/11 8/8/8 12/12/12
f 9/9/9 11/11/11 13/13/13
f 11/11/11 12/12/12 14/14/14
f 13/13/13 11/11/11 15/15/15
f 15/15/15 11/11/11 14/14/14
f 3/16/3 16/17/16 4/18/4
f 16/17/16 3/16/3 17/19/17
f 17/19/17 3/16/3 18/20/18
f 18/20/18 3/16/3 10/21/10
f 10/21/10 3/16/3 2/22/2
f 10/21/10 2/22/2 5/23/5
f 18/20/18 10/21/10 19/24/19
f 18/20/18 19/24/19 20/25/20
f 20/25/20 19/24/19 21/26/21
f 21/26/21 19/24/19 10/21/10
f 21/26/21 10/21/10 22/27/22
f 21/26/21 22/27/22 23/28/23
f 22/27/22 10/21/10 13/29/13
f 13/29/13 10/21/10 9/30/9
f 22/27/22 13/29/13 24/31/24
f 23/28/23 22/27/22 25/32/25
f 25/32/25 22/27/22 26/33/26
f 23/28/23 25/32/25 27/34/27
f 27/34/27 25/32/25 28/35/28
f 28/35/28 25/32/25 29/36/29
f 30/37/30 1/38/1 4/39/4
f 1/38/1 30/37/30 31/40/31
f 30/37/30 4/39/4 32/41/32
f 30/37/30 32/41/32 33/42/33
f 30/37/30 33/42/33 34/43/34
f 31/40/31 30/37/30 35/44/35
f 30/37/30 34/43/34 36/45/36
f 35/44/35 30/37/30 37/46/37
f 37/46/37 30/37/30 36/45/36
f 35/44/35 37/46/37 38/47/38
f 37/46/37 36/45/36 33/48/39
f 17/49/17 18/50/18 39/51/40
f 39/51/40 18/50/18 40/52/41
f 17/49/17 39/51/40 16/53/16
f 41/54/42 42/55/43 16/53/16
f 41/54/42 16/53/16 43/56/44
f 43/56/44 16/53/16 39/51/40
f 39/51/40 40/52/41 44/57/45
f 44/57/45 40/52/41 45/58/46
f 44/57/45 45/58/46 46/59/47
f 43/56/44 39/51/40 47/60/48
f 47/60/48 39/51/40 44/57/45
f 43/56/44 47/60/48 48/61/49
f 47/60/48 44/57/45 49/62/50
f 49/62/50 44/57/45 50/63/51
f 49/62/50 50/63/51 51/64/52
f 49/62/50 51/64/52 47/60/48
f 47/60/48 51/64/52 48/61/49
f 48/61/49 51/64/52 52/65/53
f 48/61/49 52/65/53 53/66/54
f 48/61/49 53/66/54 54/67/55
f 55/68/56 18/69/18 46/70/47
f 46/70/47 18/69/18 20/71/20
f 55/68/56 46/70/47 45/72/46
f 55/68/56 45/72/46 18/69/18
f 18/69/18 45/72/46 40/73/41
f 56/74/57 4/75/4 16/76/16
f 4/75/4 56/74/57 36/77/36
f 36/77/36 56/74/57 33/78/39
f 33/78/39 56/74/57 37/79/37
f 37/79/37 56/74/57 34/80/58
f 56/81/57 16/82/16 57/83/59
f 4/84/4 36/85/36 57/83/59
f 57/83/59 36/85/36 58/86/60
f 57/83/59 58/86/60 56/81/57
f 58/86/60 36/85/36 32/87/32
f 32/87/32 36/85/36 34/88/34
f 32/87/32 34/88/34 33/89/33
f 58/86/60 32/87/32 59/90/61
f 58/86/60 59/90/61 60/91/62
f 58/86/60 60/91/62 61/92/63
f 58/86/60 61/92/63 56/81/57
f 56/81/57 61/92/63 59/93/64
f 56/81/57 59/93/64 62/94/65
f 56/81/57 62/94/65 32/95/66
f 56/81/57 32/95/66 42/96/43
f 57/97/59 32/98/32 4/99/4
f 32/98/32 57/97/59 60/100/62
f 60/100/62 57/97/59 61/101/63
f 32/98/32 60/100/62 59/102/61
f 42/103/43 57/104/59 16/105/16
f 62/106/65 61/107/63 57/108/59
f 61/107/63 62/106/65 59/109/64
f 62/106/65 57/108/59 42/110/43
f 62/106/65 42/110/43 32/111/66
f 42/112/43 34/113/58 56/114/57
f 34/113/58 42/112/43 37/115/37
f 37/115/37 42/112/43 63/116/67
f 63/116/67 42/112/43 64/117/68
f 64/117/68 42/112/43 41/118/42
f 46/119/47 20/120/20 65/121/69
f 46/119/47 65/121/69 44/122/45
f 65/121/69 20/120/20 21/123/21
f 27/124/27 21/123/21 23/125/23
f 21/123/21 27/124/27 66/126/70
f 21/123/21 66/126/70 28/127/28
f 21/123/21 28/127/28 65/121/69
f 28/127/28 66/126/70 67/128/71
f 28/127/28 67/128/71 27/129/27
f 65/121/69 28/127/28 68/130/72
f 65/121/69 68/130/72 69/131/73
f 68/130/72 28/127/28 70/132/74
f 70/132/74 28/127/28 29/133/29
f 68/130/72 70/132/74 67/134/71
f 31/135/31 7/136/7 1/137/1
f 12/138/12 8/139/8 7/136/7
f 12/138/12 7/136/7 71/140/75
f 71/140/75 7/136/7 72/141/76
f 71/140/75 72/141/76 73/142/77
f 72/141/76 7/136/7 74/143/78
f 73/142/77 72/141/76 75/144/79
f 75/144/79 72/141/76 74/143/78
f 74/143/78 7/136/7 76/145/80
f 74/143/78 76/145/80 75/144/79
f 76/145/80 7/136/7 31/135/31
f 73/142/77 75/144/79 77/146/81
f 73/142/77 77/146/81 78/147/82
f 77/146/81 75/144/79 79/148/83
f 79/148/83 75/144/79 76/145/80
f 77/146/81 79/148/83 80/149/84
f 80/149/84 79/148/83 81/150/85
f 82/151/86 83/152/87 81/150/85
f 82/151/86 81/150/85 84/153/88
f 84/153/88 81/150/85 79/148/83
f 84/153/88 79/148/83 76/145/80
f 84/153/88 76/145/80 85/154/89
f 85/154/89 76/145/80 31/135/31
f 85/154/89 31/135/31 84/153/88
f 84/153/88 31/135/31 86/155/90
f 84/153/88 86/155/90 35/156/35
f 35/156/35 86/155/90 31/135/31
f 26/157/26 22/158/22 87/159/91
f 87/159/91 22/158/22 88/160/92
f 88/160/92 22/158/22 24/161/24
f 88/160/92 24/161/24 89/162/93
f 87/159/91 88/160/92 90/163/94
f 90/163/94 88/160/92 91/164/95
f 90/163/94 91/164/95 92/165/96
f 90/163/94 92/165/96 87/159/91
f 87/159/91 92/165/96 26/157/26
f 26/157/26 92/165/96 93/166/97
f 93/166/97 92/165/96 94/167/98
f 26/157/26 93/166/97 25/168/25
f 25/168/25 93/166/97 95/169/99
f 95/169/99 93/166/97 96/170/100
f 95/169/99 96/170/100 97/171/101
f 96/170/100 93/166/97 98/172/102
f 96/170/100 98/172/102 70/173/74
f 70/173/74 98/172/102 67/174/71
f 99/175/103 38/176/38 37/177/37
f 63/178/67 99/179/103 37/180/37
f 13/181/13 15/182/15 24/183/24
f 100/184/104 63/185/67 64/186/68
f 63/185/67 100/184/104 38/187/38
f 100/184/104 64/186/68 101/188/105
f 63/185/67 38/187/38 102/189/106
f 102/189/106 38/187/38 99/190/103
f 63/185/67 102/189/106 103/191/107
f 63/185/67 103/191/107 99/192/103
f 101/188/105 64/186/68 41/193/42
f 101/188/105 41/193/42 104/194/108
f 104/194/108 41/193/42 43/195/44
f 104/194/108 43/195/44 101/188/105
f 101/188/105 43/195/44 105/196/109
f 15/197/15 89/198/93 24/199/24
f 89/198/93 15/197/15 106/200/110
f 89/198/93 106/200/110 88/201/92
f 88/201/92 106/200/110 107/202/111
f 88/201/92 107/202/111 108/203/112
f 107/202/111 106/200/110 109/204/113
f 108/203/112 107/202/111 110/205/114
f 110/205/114 107/202/111 109/204/113
f 108/203/112 110/205/114 111/206/115
f 109/204/113 106/200/110 112/207/116
f 109/204/113 112/207/116 110/205/114
f 113/208/117 114/209/118 106/200/110
f 106/200/110 114/209/118 112/207/116
f 112/207/116 114/209/118 115/210/119
f 116/211/120 110/205/114 117/212/121
f 117/212/121 110/205/114 118/213/122
f 117/212/121 118/213/122 119/214/123
f 120/215/124 110/205/114 112/207/116
f 110/205/114 120/215/124 118/213/122
f 118/213/122 120/215/124 112/207/116
f 118/213/122 112/207/116 121/216/125
f 118/213/122 121/216/125 122/217/126
f 118/213/122 122/217/126 123/218/127
f 122/217/126 121/216/125 124/219/128
f 124/219/128 121/216/125 112/207/116
f 124/219/128 112/207/116 125/220/129
f 97/221/101 25/222/25 95/223/99
f 96/224/100 25/225/25 97/226/101
f 25/225/25 96/224/100 29/227/29
f 29/227/29 96/224/100 70/228/74
f 44/229/45 65/230/69 126/231/130
f 126/231/130 65/230/69 127/232/131
f 126/231/130 127/232/131 44/229/45
f 127/232/131 65/230/69 69/233/73
f 44/229/45 127/232/131 50/234/51
f 50/234/51 127/232/131 51/235/52
f 51/235/52 127/232/131 128/236/132
f 12/237/12 129/238/133 14/239/14
f 14/239/14 129/238/133 106/240/110
f 14/239/14 106/240/110 15/241/15
f 106/240/110 129/238/133 113/242/117
f 113/242/117 129/238/133 12/237/12
f 113/242/117 12/237/12 115/243/119
f 115/243/119 12/237/12 130/244/134
f 115/243/119 130/244/134 112/245/116
f 112/245/116 130/244/134 125/246/129
f 130/244/134 12/237/12 131/247/135
f 130/244/134 131/247/135 125/246/129
f 131/247/135 12/237/12 71/248/75
f 131/247/135 71/248/75 73/249/77
f 131/247/135 73/249/77 132/250/136
f 131/247/135 132/250/136 133/251/137
f 131/247/135 133/251/137 125/246/129
f 125/246/129 133/251/137 124/252/128
f 98/253/102 66/254/70 27/255/27
f 66/254/70 98/253/102 134/256/138
f 66/254/70 134/256/138 135/257/139
f 134/256/138 98/253/102 93/258/97
f 134/256/138 93/258/97 136/259/140
f 100/260/104 137/261/141 38/262/38
f 137/261/141 100/260/104 101/263/105
f 137/261/141 101/263/105 103/264/107
f 137/261/141 103/264/107 102/265/106
f 38/262/38 137/261/141 35/266/35
f 35/266/35 137/261/141 102/265/106
f 35/266/35 102/265/106 99/267/103
f 35/266/35 99/267/103 82/268/86
f 35/266/35 82/268/86 84/269/88
f 82/268/86 99/267/103 83/270/87
f 27/271/27 67/272/71 98/273/102
f 103/274/107 138/275/142 99/276/103
f 99/276/103 138/275/142 139/277/143
f 138/275/142 103/274/107 101/278/105
f 140/279/144 101/280/105 141/281/145
f 101/280/105 140/279/144 139/282/143
f 101/280/105 139/282/143 138/283/142
f 141/281/145 101/280/105 142/284/146
f 141/281/145 142/284/146 143/285/147
f 144/286/148 142/284/146 145/287/149
f 145/287/149 142/284/146 146/288/150
f 146/288/150 142/284/146 147/289/151
f 146/288/150 147/289/151 148/290/152
f 148/290/152 147/289/151 142/284/146
f 146/288/150 148/290/152 149/291/153
f 148/290/152 142/284/146 150/292/154
f 148/290/152 150/292/154 151/293/155
f 151/293/155 150/292/154 142/284/146
f 151/293/155 142/284/146 101/280/105
f 151/293/155 101/280/105 105/294/109
f 148/290/152 151/293/155 152/295/156
f 151/293/155 105/294/109 43/296/44
f 152/295/156 151/293/155 54/297/55
f 54/297/55 151/293/155 43/296/44
f 152/295/156 54/297/55 53/298/54
f 54/297/55 43/296/44 48/299/49
f 68/300/72 67/301/71 66/302/70
f 84/303/157 72/304/157 75/305/157
f 153/306/158 68/307/72 66/308/70
f 68/309/72 127/310/131 69/311/73
f 127/310/131 68/309/72 153/312/158
f 127/310/131 153/312/158 66/313/70
f 127/310/131 66/313/70 135/314/139
f 127/310/131 135/314/139 154/315/159
f 127/310/131 154/315/159 155/316/160
f 83/317/87 99/318/103 139/319/143
f 83/317/87 139/319/143 140/320/144
f 83/317/87 140/320/144 81/321/85
f 81/321/85 140/320/144 156/322/161
f 156/322/161 140/320/144 157/323/162
f 156/322/161 157/323/162 158/324/163
f 156/322/161 158/324/163 159/325/164
f 156/322/161 159/325/164 160/326/165
f 156/322/161 160/326/165 161/327/166
f 161/327/166 160/326/165 144/328/148
f 81/321/85 156/322/161 162/329/167
f 162/329/167 156/322/161 161/327/166
f 162/329/167 161/327/166 163/330/168
f 81/321/85 162/329/167 164/331/169
f 164/331/169 162/329/167 165/332/170
f 135/333/139 134/334/138 166/335/171
f 135/333/139 166/335/171 154/336/159
f 154/336/159 166/335/171 155/337/160
f 166/335/171 134/334/138 167/338/172
f 167/338/172 134/334/138 168/339/173
f 155/337/160 166/335/171 128/340/132
f 128/340/132 166/335/171 167/338/172
f 128/340/132 167/338/172 168/339/173
f 155/337/160 128/340/132 127/341/131
f 128/340/132 168/339/173 169/342/174
f 128/340/132 169/342/174 170/343/175
f 128/340/132 170/343/175 171/344/176
f 128/340/132 171/344/176 172/345/177
f 92/346/96 91/347/95 94/348/98
f 94/348/98 91/347/95 116/349/120
f 94/348/98 116/349/120 173/350/178
f 116/349/120 91/347/95 108/351/112
f 108/351/112 91/347/95 88/352/92
f 116/349/120 108/351/112 111/353/115
f 116/349/120 111/353/115 174/354/179
f 93/355/97 94/356/98 174/357/180
f 93/355/97 174/357/180 136/358/140
f 174/357/180 94/356/98 175/359/181
f 174/357/180 175/359/181 176/360/182
f 175/359/181 94/356/98 173/361/178
f 176/360/182 175/359/181 177/362/183
f 177/362/183 175/359/181 173/361/178
f 177/362/183 173/361/178 176/360/182
f 176/360/182 173/361/178 119/363/123
f 119/363/123 173/361/178 117/364/121
f 117/364/121 173/361/178 116/365/120
f 168/366/173 134/367/138 136/368/140
f 168/366/173 136/368/140 170/369/175
f 170/369/175 136/368/140 174/370/180
f 168/366/173 170/369/175 169/371/174
f 143/372/147 140/373/144 141/374/145
f 140/373/144 143/372/147 157/375/162
f 81/376/85 178/377/184 80/378/84
f 51/379/52 179/380/185 52/381/53
f 52/381/53 179/380/185 53/382/54
f 179/380/185 51/379/52 128/383/132
f 179/380/185 128/383/132 53/382/54
f 172/384/177 180/385/186 128/383/132
f 128/383/132 180/385/186 181/386/187
f 128/383/132 181/386/187 182/387/188
f 183/388/189 182/387/188 53/382/54
f 182/387/188 183/388/189 128/383/132
f 53/382/54 128/383/132 184/389/190
f 184/389/190 128/383/132 183/388/189
f 184/389/190 183/388/189 53/382/54
f 185/390/191 81/391/85 164/392/169
f 81/391/85 185/390/191 178/393/184
f 178/393/184 185/390/191 186/394/68
f 178/393/184 186/394/68 80/395/84
f 80/395/84 186/394/68 187/396/192
f 80/395/84 187/396/192 77/397/81
f 77/397/81 187/396/192 78/398/82
f 78/398/82 187/396/192 186/394/68
f 78/398/82 186/394/68 185/390/191
f 132/399/136 73/400/77 78/398/82
f 132/399/136 78/398/82 133/401/137
f 133/401/137 78/398/82 188/402/193
f 78/398/82 185/390/191 189/403/194
f 78/398/82 189/403/194 188/402/193
f 189/403/194 185/390/191 190/404/195
f 133/401/137 188/402/193 191/405/196
f 191/405/196 188/402/193 189/403/194
f 191/405/196 189/403/194 190/404/195
f 133/401/137 191/405/196 124/406/128
f 191/405/196 190/404/195 192/407/197
f 191/405/196 192/407/197 124/406/128
f 124/406/128 192/407/197 122/408/126
f 122/408/126 192/407/197 193/409/198
f 115/410/119 114/411/118 113/412/117
f 142/413/146 157/414/162 143/415/147
f 157/414/162 142/413/146 194/416/199
f 194/416/199 142/413/146 144/417/148
f 194/416/199 144/417/148 157/414/162
f 157/414/162 144/417/148 160/418/165
f 157/414/162 160/418/165 159/419/164
f 157/414/162 159/419/164 158/420/163
f 110/421/114 174/422/179 111/423/115
f 174/422/179 110/421/114 116/424/120
f 174/425/200 116/426/200 175/427/200
f 170/428/175 174/429/180 195/430/201
f 195/430/201 174/429/180 176/431/182
f 170/432/175 195/433/201 196/434/202
f 196/434/202 195/433/201 176/435/182
f 170/432/175 196/434/202 197/436/203
f 170/432/175 197/436/203 171/437/176
f 171/437/176 197/436/203 196/434/202
f 171/437/176 196/434/202 198/438/204
f 198/438/204 196/434/202 180/439/186
f 171/437/176 198/438/204 172/440/177
f 172/440/177 198/438/204 180/439/186
f 197/441/205 180/442/205 170/443/206
f 180/442/205 197/441/205 198/444/207
f 165/445/170 185/446/191 164/447/169
f 185/446/191 165/445/170 162/448/167
f 185/446/191 162/448/167 163/449/168
f 185/446/191 163/449/168 159/450/208
f 159/450/208 163/449/168 161/451/166
f 185/446/191 159/450/208 199/452/209
f 185/446/191 199/452/209 158/453/210
f 158/453/210 199/452/209 159/450/208
f 158/453/210 159/450/208 200/454/211
f 158/453/210 200/454/211 146/455/150
f 185/446/191 158/453/210 190/456/195
f 158/453/210 146/455/150 201/457/212
f 201/457/212 146/455/150 149/458/153
f 201/457/212 149/458/153 202/459/213
f 158/453/210 201/457/212 203/460/214
f 203/460/214 201/457/212 202/459/213
f 158/453/210 203/460/214 190/456/195
f 190/456/195 203/460/214 202/459/213
f 190/456/195 202/459/213 204/461/215
f 190/456/195 204/461/215 205/462/216
f 205/462/216 204/461/215 123/463/127
f 190/456/195 205/462/216 193/464/198
f 193/464/198 205/462/216 123/463/127
f 190/456/195 193/464/198 192/465/197
f 193/464/198 123/463/127 122/466/126
f 159/467/208 161/468/166 144/469/148
f 159/467/208 144/469/148 200/470/211
f 200/470/211 144/469/148 146/471/150
f 146/471/150 144/469/148 145/472/149
f 181/473/187 180/474/186 206/475/217
f 181/473/187 206/475/217 182/476/188
f 182/476/188 206/475/217 207/477/218
f 207/477/218 206/475/217 180/474/186
f 182/476/188 207/477/218 53/478/54
f 53/478/54 207/477/218 208/479/219
f 53/478/54 208/479/219 152/480/156
f 152/480/156 208/479/219 148/481/152
f 148/481/152 208/479/219 149/482/153
f 149/482/153 208/479/219 202/483/213
f 202/483/213 208/479/219 209/484/220
f 209/484/220 208/479/219 207/477/218
f 202/483/213 209/484/220 204/485/215
f 204/485/215 209/484/220 207/477/218
f 204/485/215 207/477/218 180/474/186
f 204/485/215 180/474/186 123/486/127
f 123/486/127 180/474/186 210/487/221
f 123/486/127 210/487/221 211/488/222
f 123/486/127 211/488/222 176/489/182
f 176/489/182 211/488/222 210/487/221
f 176/489/182 210/487/221 180/474/186
f 123/486/127 176/489/182 118/490/122
f 118/490/122 176/489/182 119/491/123
f 176/489/182 180/474/186 212/492/223
f 176/489/182 212/492/223 196/493/202
f 196/493/202 212/492/223 180/474/186
f 146/494/224 202/495/224 148/496/224
