mtllib M_Poison_Bullet.mtl
o tripo_node_199dfb2e-4494-4bc7-9941-9b7c1c8e07f9
g tripo_node_199dfb2e-4494-4bc7-9941-9b7c1c8e07f9
usemtl tripo_material_199dfb2e_4494_4bc7_9941_9b7c1c8e07f9
v 0.142028809 0.081542969 0.478118896
vt 0.223632812 0.919677734
vn 0.251501113 0.047156461 0.966707468
v 0.021286011 0.077812195 0.459411621
vt 0.238281250 0.876220703
vn -0.086870387 0.221124604 0.971368849
v -0.049846649 -0.093276978 0.489044189
vt 0.307373047 0.872558594
vn 0.039261907 -0.062819049 0.997252405
v -0.194168091 0.075370789 0.455780029
vt 0.265136719 0.800048828
vn -0.252148330 0.165472344 0.953435898
v -0.165374756 -0.075675964 0.452453613
vt 0.315185547 0.827148438
vn -0.488022596 -0.110198647 0.865846515
v 0.009891510 0.080947876 0.452331543
vt 0.237060547 0.871093750
vn -0.117695041 0.447241127 0.886635959
v 0.080543518 0.153656006 0.454254150
vt 0.208007812 0.895263672
vn -0.015812872 0.379508913 0.925053000
v -0.037414551 0.130599976 0.424804688
vt 0.223388672 0.847167969
vn -0.149806127 0.394226611 0.906721234
v 0.014522552 0.255371094 0.407958984
vt 0.174560547 0.857910156
vn -0.070820048 0.495740384 0.865578473
v -0.173217773 0.279327393 0.336761475
vt 0.180908203 0.776855469
vn -0.204946876 0.496602058 0.843435287
v -0.068649292 0.321166992 0.352905273
vt 0.156738281 0.811767578
vn -0.197334260 0.749870241 0.631469667
v -0.219604492 0.173995972 0.395324707
vt 0.228271484 0.776123047
vn -0.173573077 0.465491384 0.867865324
v -0.245040894 0.265930176 0.342956543
vt 0.195068359 0.753417969
vn -0.432574987 0.558414996 0.707850039
v -0.288665771 0.073547363 0.392669678
vt 0.269531250 0.757324219
vn -0.543357670 0.244117215 0.803224385
v -0.252044678 0.005670547 0.415374756
vt 0.292968750 0.775634766
vn -0.456198186 -0.125847772 0.880934477
v -0.373229980 0.065536499 0.334838867
vt 0.275634766 0.719238281
vn -0.818187773 0.165210992 0.550703287
v -0.300811768 0.264495850 0.277191162
vt 0.194824219 0.721191406
vn -0.638667047 0.551934481 0.536164939
v -0.381439209 0.196075439 0.236968994
vt 0.222900391 0.689697266
vn -0.853175342 0.300191313 0.426587671
v -0.429656982 0.149520874 0.099502563
vt 0.233398438 0.633056641
vn -0.922117770 0.323135287 0.212796420
v -0.420104980 0.073036194 0.187545776
vt 0.266113281 0.661865234
vn -0.921431243 0.118132219 0.370147616
vt 0.511718750 0.557128906
vt 0.578857422 0.528076172
v 0.132232666 -0.111045837 0.422546387
vt 0.567138672 0.568847656
vn 0.259834468 -0.157475427 0.952726424
v 0.082489014 -0.266326904 0.437347412
vt 0.611572266 0.558837891
vn 0.134338036 -0.395111859 0.908757269
v 0.248870850 -0.043029785 0.423095703
vt 0.541748047 0.598632812
vn 0.434189498 -0.039471772 0.899956405
v 0.325531006 -0.130950928 0.379608154
vt 0.562744141 0.627197266
vn 0.624823272 -0.181910574 0.759278893
v 0.360778809 0.067413330 0.321716309
vt 0.500732422 0.637939453
vn 0.755320430 0.055075448 0.653037429
v 0.247970581 0.074493408 0.399261475
vt 0.506835938 0.597900391
vn 0.582262218 0.204578593 0.786840737
v 0.355957031 0.070571899 0.320953369
vt 0.499267578 0.636962891
vn 0.676829696 0.354155093 0.645349264
v 0.189804077 0.176620483 0.412780762
vt 0.480468750 0.578857422
vn 0.504798412 0.291836590 0.812409937
v 0.293304443 0.168365479 0.339080811
vt 0.470214844 0.619873047
vn 0.736694336 0.360510021 0.572113752
vt 0.504882812 0.533203125
vt 0.488525391 0.539306641
v 0.166824341 0.264404297 0.368652344
vt 0.453613281 0.572021484
vn 0.180962190 0.590094090 0.786792099
vt 0.451416016 0.526367188
v 0.008911133 0.362121582 0.295654297
vt 0.406005859 0.536376953
vn 0.023679372 0.781419277 0.623556793
v 0.234649658 0.266754150 0.350585938
vt 0.446777344 0.591796875
vn 0.464667767 0.630057991 0.622182250
v 0.307403564 0.259185791 0.230773926
vt 0.447265625 0.635498047
vn 0.807600975 0.344994605 0.478287965
v 0.134841919 0.422119141 0.221893311
vt 0.383544922 0.575927734
vn 0.235404566 0.902384102 0.360953659
v 0.208267212 0.389312744 0.181182861
vt 0.389160156 0.591308594
vn 0.441396683 0.851265013 0.283755004
v 0.047191620 0.421844482 0.193359375
vt 0.372802734 0.548095703
vn -0.110249899 0.905624151 0.409499615
v -0.001084924 0.481475830 -0.001471996
vt 0.314453125 0.542968750
vn 0.055019274 0.998206854 -0.023579689
v -0.139404297 -0.204605103 0.450073242
vt 0.891357422 0.719970703
vn -0.315499008 -0.433811128 0.843959868
vt 0.857177734 0.774169922
vt 0.834228516 0.721435547
vt 0.959716797 0.799560547
v -0.244766235 -0.146926880 0.371704102
vt 0.858398438 0.665283203
vn -0.503251076 -0.228035629 0.833509564
vt 0.768798828 0.719726562
vt 0.787841797 0.666015625
v -0.124427795 -0.310333252 0.347442627
vt 0.951660156 0.696533203
vn -0.236169249 -0.629784644 0.739996970
v -0.035736084 -0.348297119 0.350921631
vt 0.986572266 0.723632812
vn -0.023650657 -0.748937488 0.662218392
v -0.136169434 -0.421661377 0.256927490
vt 0.997802734 0.671630859
vn -0.259376585 -0.809569299 0.526613057
v -0.126358032 -0.303466797 0.345489502
vt 0.948486328 0.694335938
vn -0.322315454 -0.628908217 0.707521796
v -0.235122681 -0.263580322 0.339172363
vt 0.912841797 0.654541016
vn -0.385385007 -0.519089997 0.762905002
v -0.280700684 -0.193145752 0.346862793
vt 0.881103516 0.642822266
vn -0.385206282 -0.361622244 0.849026144
v -0.312591553 -0.304870605 0.276336670
vt 0.914550781 0.608154297
vn -0.640241206 -0.497965366 0.584911704
v -0.354949951 -0.128753662 0.343658447
vt 0.860595703 0.615966797
vn -0.495740384 -0.267542422 0.826233983
v -0.330902100 -0.224426270 0.304840088
vt 0.884277344 0.611572266
vn -0.776978552 -0.368868619 0.510137439
vt 0.054687500 0.179931641
vt 0.093261719 0.090332031
vt 0.170654297 0.105712891
v 0.248809814 -0.231597900 0.363647461
vt 0.116210938 0.177978516
vn 0.549615860 -0.502505898 0.667390645
v 0.341918945 -0.256683350 0.236679077
vt 0.108886719 0.256103516
vn 0.691137373 -0.486937702 0.534060657
v 0.380462646 -0.151519775 0.271759033
vt 0.054443359 0.240478516
vn 0.866652310 -0.181209117 0.464840770
v 0.185989380 -0.327362061 0.351837158
vt 0.171630859 0.178222656
vn 0.284347385 -0.734564126 0.616086066
vt 0.251708984 0.104980469
v 0.264739990 -0.295715332 0.278076172
vt 0.142578125 0.223632812
vn 0.645589232 -0.511747539 0.566858828
v 0.306976318 -0.348022461 0.191574097
vt 0.157226562 0.275634766
vn 0.565930009 -0.620951056 0.542349637
v 0.356353760 -0.355316162 0.133331299
vt 0.150390625 0.312744141
vn 0.725331903 -0.646491468 0.236521274
v 0.251678467 -0.387969971 0.175262451
vt 0.190917969 0.272705078
vn 0.441781133 -0.820450664 0.362891644
v -0.056026459 -0.419433594 0.245223999
vt 0.302001953 0.142333984
vn 0.047257286 -0.787621379 0.614344716
v 0.160919189 -0.422058105 0.217193604
vt 0.235351562 0.228515625
vn 0.471215487 -0.801066279 0.369118780
v 0.131195068 -0.430786133 0.234161377
vt 0.243896484 0.213378906
vn 0.071104594 -0.758449078 0.647841930
v -0.002962351 -0.427124023 0.241271973
vt 0.287109375 0.164062500
vn -0.007883308 -0.922347069 0.386282116
v 0.130157471 -0.433746338 0.229949951
vt 0.246093750 0.214843750
vn 0.078965686 -0.955484867 0.284276456
vt 0.643554688 0.626464844
vt 0.660156250 0.556640625
vt 0.752685547 0.566650391
v -0.361450195 -0.069259644 0.340942383
vt 0.673583984 0.643554688
vn -0.710691214 -0.031586275 0.702794671
vt 0.754394531 0.667480469
v -0.371246338 -0.136505127 0.288482666
vt 0.616210938 0.675781250
vn -0.867541313 -0.228715435 0.441657394
vt 0.603271484 0.624755859
v -0.397155762 -0.211700439 0.164093018
vt 0.544189453 0.637207031
vn -0.794364989 -0.456169993 0.401114970
v -0.402801514 -0.033290863 0.243133545
vt 0.688964844 0.715087891
vn -0.905063093 0.015740227 0.424986154
v -0.480773926 -0.164260864 0.114028931
vt 0.619628906 0.791015625
vn -0.889736176 -0.118106581 0.440931201
v -0.416870117 -0.011203766 0.184799194
vt 0.701904297 0.756103516
vn -0.908332109 0.078985400 0.410724074
vt 0.752197266 0.766357422
v -0.483734131 0.027477264 0.065528870
vt 0.716064453 0.845214844
vn -0.918926954 0.086394846 0.384849757
v -0.478302002 0.071655273 0.063323975
vt 0.741699219 0.843750000
vn -0.884636402 -0.015797079 0.466013789
vt 0.914306641 0.099609375
vt 0.898681641 0.149902344
vt 0.879638672 0.119873047
v -0.114547729 0.357238770 0.247634888
vt 0.854248047 0.151855469
vn -0.157872319 0.828829706 0.536765873
vt 0.843505859 0.108154297
vt 0.900634766 0.192382812
vt 0.820800781 0.098632812
v -0.219955444 0.370208740 0.217178345
vt 0.817382812 0.153808594
vn -0.392776519 0.754130900 0.526320517
vt 0.794677734 0.110839844
v -0.220291138 0.424896240 0.134658813
vt 0.809326172 0.186523438
vn -0.400372654 0.902801096 0.157008886
v -0.113624573 0.451629639 0.073699951
vt 0.837646484 0.218017578
vn -0.196893126 0.976589918 0.086632982
v -0.368347168 0.280395508 0.168533325
vt 0.760009766 0.135742188
vn -0.614173234 0.716535449 0.330708653
v -0.381042480 0.266998291 0.176071167
vt 0.755859375 0.130371094
vn -0.879710793 0.408437133 0.243491381
vt 0.758789062 0.098632812
vt 0.866699219 0.254882812
v -0.135192871 0.422302246 -0.222137451
vt 0.797363281 0.311035156
vn -0.252974331 0.917031884 -0.308312446
v -0.033924103 0.422027588 -0.188796997
vt 0.833007812 0.313476562
vn 0.110249899 0.905624151 -0.409499615
vt 0.076904297 0.279785156
v 0.403442383 -0.021600723 0.216873169
vt 0.138671875 0.326904297
vn 0.851979911 -0.055220921 0.520654380
vt 0.096191406 0.355468750
vt 0.117187500 0.279541016
v 0.391082764 0.073440552 0.274353027
vt 0.114501953 0.363281250
vn 0.803348899 0.204775214 0.559193850
vt 0.095214844 0.357421875
v 0.359588623 0.167724609 0.213867188
vt 0.119628906 0.416503906
vn 0.733102024 0.472969055 0.488734692
vt 0.070312500 0.396240234
vt 0.096923828 0.457031250
v 0.485595703 0.085815430 0.133819580
vt 0.170654297 0.379150391
vn 0.936253607 0.196691930 0.291104078
v 0.466064453 -0.097587585 0.145828247
vt 0.186279297 0.315673828
vn 0.938755631 -0.094664432 0.331325501
v 0.448516846 -0.158752441 0.145996094
vt 0.188964844 0.297363281
vn 0.873014987 -0.298869997 0.385385007
v 0.468200684 -0.035110474 0.043182373
vt 0.220458984 0.346679688
vn 0.996914387 -0.062797755 0.047098316
v 0.485260010 0.077705383 -0.054988861
vt 0.240722656 0.390136719
vn 0.983490050 0.180962160 0.000000000
v 0.419891357 0.186111450 0.030820847
vt 0.191894531 0.427001953
vn 0.875400841 0.481076151 -0.047318965
v 0.423309326 0.191116333 0.118515015
vt 0.160644531 0.426269531
vn 0.878087044 0.454723656 0.148961201
v 0.380554199 0.204315186 0.152618408
vt 0.139404297 0.431884766
vn 0.748914301 0.354748875 0.559714854
v 0.369110107 0.317321777 0.108085632
vt 0.141601562 0.470947266
vn 0.875400841 0.402211189 0.268140793
v 0.361938477 0.319244385 0.040351868
vt 0.158691406 0.484130859
vn 0.921345592 0.385862678 -0.047248494
v 0.357330322 0.344604492 0.103195190
vt 0.138671875 0.480468750
vn 0.622510552 0.709189236 0.330954969
vt 0.069335938 0.483642578
vt 0.093994141 0.532226562
v 0.381256104 -0.197830200 0.211257935
vt 0.360107422 0.402343750
vn 0.777194023 -0.408223122 0.478877127
vt 0.377685547 0.423339844
vt 0.333740234 0.416992188
vt 0.383544922 0.369628906
vt 0.416748047 0.421875000
v 0.406494141 -0.252868652 0.142623901
vt 0.341552734 0.375488281
vn 0.868839324 -0.410724014 0.276448846
vt 0.302246094 0.382324219
v 0.412811279 -0.236221313 0.019371033
vt 0.349121094 0.333251953
vn 0.873555481 -0.472192168 0.118048042
v 0.384735107 -0.299835205 0.079559326
vt 0.318847656 0.350585938
vn 0.866437256 -0.496232241 -0.055136915
v 0.351531982 -0.340209961 0.032520294
vt 0.293212891 0.338623047
vn 0.876956761 -0.474030674 -0.079005115
v 0.465850830 -0.158843994 0.067039490
vt 0.385253906 0.339843750
vn 0.952637792 -0.283429414 0.110222556
vt 0.406250000 0.360595703
vt 0.423095703 0.309082031
v 0.479553223 -0.165267944 -0.059173584
vt 0.379150391 0.294677734
vn 0.961673856 -0.260124892 0.086708300
vt 0.452880859 0.261474609
v 0.338439941 -0.350646973 -0.122947693
vt 0.265869141 0.277587891
vn 0.745631397 -0.643597603 -0.172672540
v 0.306671143 -0.390167236 0.095603943
vt 0.271240234 0.367919922
vn 0.596817732 -0.800992131 0.047117189
v 0.398254395 -0.255310059 0.006554127
vt 0.328857422 0.312744141
vn 0.800671279 -0.596578658 -0.054948032
v 0.267059326 -0.422668457 -0.050357819
vt 0.232666016 0.311035156
vn 0.590167105 -0.794758379 -0.141640097
v 0.437316895 -0.212432861 -0.108963013
vt 0.334228516 0.264404297
vn 0.752831161 -0.611675322 -0.243101731
v 0.481292725 -0.164474487 -0.113548279
vt 0.367431641 0.272705078
vn 0.851000726 -0.244268730 -0.464898527
v 0.424072266 -0.228149414 -0.107414246
vt 0.326171875 0.267333984
vn 0.810897887 -0.582586884 0.055109568
v 0.252746582 -0.383911133 -0.166137695
vt 0.239990234 0.266113281
vn 0.464898467 -0.827361763 -0.315185428
v 0.201522827 -0.474090576 0.000736654
vt 0.192382812 0.308837891
vn 0.244117185 -0.968594015 -0.047248486
vt 0.323486328 0.169921875
vt 0.358886719 0.157958984
vt 0.370849609 0.224853516
v -0.233306885 -0.355926514 0.267150879
vt 0.113037109 0.713867188
vn -0.431124032 -0.744668782 0.509510219
vt 0.125488281 0.751953125
vt 0.098144531 0.746337891
vt 0.060058594 0.784423828
v -0.319549561 -0.325408936 0.219558716
vt 0.068603516 0.737548828
vn -0.732965410 -0.606863856 0.307372600
v -0.334167480 -0.339904785 0.139877319
vt 0.044921875 0.708984375
vn -0.849735498 -0.416999817 0.322584748
v -0.345275879 -0.361938477 0.105125427
vt 0.042480469 0.693115234
vn -0.764823377 -0.599243104 0.236543328
vt 0.150390625 0.682373047
v -0.288970947 -0.376190186 0.143859863
vt 0.071289062 0.687744141
vn -0.450540096 -0.837846518 0.308264285
v -0.334716797 -0.370666504 0.100578308
vt 0.047851562 0.685546875
vn -0.534522533 -0.833226323 0.141491249
v -0.162185669 -0.412322998 0.238891602
vt 0.135498047 0.683837891
vn -0.470244855 -0.830765903 0.297821730
v -0.227554321 -0.401855469 0.148300171
vt 0.091796875 0.670898438
vn -0.449683994 -0.844143629 0.291900158
v -0.203094482 -0.472015381 -0.001951694
vt 0.066406250 0.610351562
vn -0.402161181 -0.906834006 0.126168206
vt 0.172119141 0.667480469
vt 0.196044922 0.685791016
vt 0.183837891 0.653076172
v -0.077682495 -0.446990967 0.177917480
vt 0.149902344 0.631835938
vn -0.086344250 -0.957636178 0.274731666
vt 0.227050781 0.634033203
v -0.155929565 -0.474334717 0.013244629
vt 0.086181641 0.603271484
vn -0.110400617 -0.993605554 -0.023657275
v 0.000440687 -0.481109619 0.093475342
vt 0.144531250 0.592041016
vn 0.015693637 -0.988699138 0.149089560
v 0.001307487 -0.481109619 -0.087478638
vt 0.095947266 0.540039062
vn 0.007878657 -0.984832168 -0.173330471
v -0.131378174 -0.433074951 -0.229415894
vt 0.033935547 0.513671875
vn -0.164986476 -0.911353886 -0.377111942
v -0.173095703 -0.453643799 -0.093513489
vt 0.058105469 0.568115234
vn -0.339934230 -0.901221037 -0.268785208
v -0.294281006 -0.399871826 -0.082870483
vt 0.025878906 0.580566406
vn -0.525397301 -0.839067340 -0.141151503
v 0.171997070 -0.452239990 0.100616455
vt 0.138916016 0.926025391
vn 0.284524977 -0.924706161 0.252911091
vt 0.190429688 0.956542969
vt 0.149169922 0.979248047
vt 0.135253906 0.989013672
vt 0.062500000 0.947753906
vt 0.038574219 1.000000000
vt 0.137939453 0.876464844
vt 0.043945312 0.858642578
v 0.171295166 -0.445739746 -0.116699219
vt 0.114746094 0.824218750
vn 0.276673347 -0.924879491 -0.260863453
v 0.135360718 -0.420928955 -0.255889893
vt 0.077880859 0.776367188
vn 0.275890023 -0.827670157 -0.488719493
vt 0.130371094 0.795410156
v 0.272003174 -0.417480469 0.063034058
vt 0.181884766 0.909179688
vn 0.487358779 -0.848947525 0.204376251
vt 0.177490234 0.872070312
vt 0.204345703 0.914794922
vt 0.231201172 0.933349609
vt 0.364990234 0.261718750
v 0.193618774 0.423004150 -0.021232605
vt 0.389648438 0.192138672
vn 0.338320583 0.936282575 0.094415054
vt 0.389648438 0.282226562
vt 0.556884766 0.069824219
vt 0.615722656 0.052490234
vt 0.569824219 0.100830078
vt 0.581542969 0.115478516
v -0.427642822 -0.224288940 0.107688904
vt 0.633056641 0.080810547
vn -0.804472446 -0.583636940 0.110417791
vt 0.601562500 0.003417969
vt 0.648925781 0.058837891
v -0.380249023 -0.284271240 -0.006147385
vt 0.635253906 0.135498047
vn -0.876382530 -0.481615633 0.000000000
v -0.347808838 -0.360778809 0.034385681
vt 0.595458984 0.144531250
vn -0.788404346 -0.614955366 0.015768087
vt 0.577148438 0.119873047
vt 0.554931641 0.174560547
v -0.355621338 -0.354156494 -0.133911133
vt 0.645263672 0.194580078
vn -0.703365088 -0.624335289 -0.339828044
v -0.412231445 -0.239990234 -0.016727448
vt 0.656982422 0.121337891
vn -0.837846518 -0.545390606 -0.023712637
v -0.401733398 -0.264495850 -0.141235352
vt 0.684326172 0.173583984
vn -0.866007507 -0.417258173 -0.275547832
v -0.449676514 -0.159271240 -0.146545410
vt 0.722900391 0.146972656
vn -0.882957876 -0.307458550 -0.354759872
v -0.382598877 -0.201065063 -0.205581665
vt 0.723876953 0.186523438
vn -0.777194023 -0.408223122 -0.478877127
v -0.480285645 -0.164184570 0.061347961
vt 0.680175781 0.063232422
vn -0.770198464 -0.636592627 -0.039295841
v -0.473876953 -0.162185669 0.001151085
vt 0.694580078 0.088134766
vn -0.882218063 -0.448985994 -0.141785040
v -0.459533691 -0.117332458 -0.122047424
vt 0.750488281 0.139892578
vn -0.995340109 -0.078995243 -0.055296671
v -0.480255127 -0.159332275 0.059005737
vt 0.684326172 0.058593750
vn -0.995371222 -0.015799543 -0.094797261
vt 0.736083984 0.007812500
v -0.484863281 0.077857971 0.058952332
vt 0.754394531 0.000000000
vn -0.989827275 0.141403884 0.015711544
vt 0.671386719 0.535644531
vt 0.631591797 0.566894531
vt 0.671386719 0.529785156
vt 0.682128906 0.553710938
vt 0.617187500 0.506347656
v -0.484283447 0.082344055 -0.131011963
vt 0.736816406 0.444580078
vn -0.993760109 -0.110417791 0.015773971
v -0.483123779 0.086791992 -0.137939453
vt 0.735839844 0.438720703
vn -0.780180812 0.204895973 -0.591046095
v -0.483367920 0.089340210 -0.131683350
vt 0.732421875 0.439453125
vn -0.861909270 0.506075144 0.031629696
v -0.421478271 0.184967041 -0.030406952
vt 0.654541016 0.439697266
vn -0.871721804 0.486907661 0.054973446
v -0.420989990 0.197784424 -0.119766235
vt 0.686523438 0.395751953
vn -0.887428463 0.447640896 -0.109946892
v -0.383178711 0.258728027 0.076614380
vt 0.583007812 0.447753906
vn -0.919097006 0.392776519 0.031422120
vt 0.538574219 0.481201172
vt 0.538330078 0.526123047
v -0.359558105 0.327056885 -0.054786682
vt 0.600341797 0.368164062
vn -0.921345592 0.385862678 0.047248494
v -0.369323730 0.300109863 0.052478790
vt 0.574462891 0.421142578
vn -0.732260764 0.669270575 0.125980347
vt 0.531738281 0.472656250
vt 0.459228516 0.394531250
v -0.355346680 0.345367432 -0.099296570
vt 0.605957031 0.339355469
vn -0.680038452 0.703760803 -0.205593020
v -0.380157471 0.205352783 -0.152786255
vt 0.678466797 0.366455078
vn -0.718834400 0.410762489 -0.560848773
vt 0.737792969 0.354003906
vt 0.914550781 0.083496094
vt 0.976318359 0.064697266
vt 0.975585938 0.141113281
v 0.219543457 0.425506592 -0.134323120
vt 0.925048828 0.022460938
vn 0.346242100 0.889212668 -0.299027264
v 0.279266357 0.390502930 -0.033012390
vt 0.885253906 0.037597656
vn 0.471987545 0.881043434 0.031465836
v 0.366241455 0.310150146 -0.018136978
vt 0.849121094 0.000000000
vn 0.708573580 0.692827523 -0.133841664
vt 0.826904297 0.094970703
vt 0.813964844 0.034912109
vt 0.967529297 0.967529297
vt 0.936035156 1.000000000
vt 0.951416016 0.981689453
v 0.376220703 0.272216797 -0.129592896
vt 0.982421875 0.927490234
vn 0.922117770 0.386186063 -0.023644045
vt 0.901611328 0.918212891
v 0.383056641 0.266601562 -0.174163818
vt 0.993652344 0.914550781
vn 0.708859205 0.614344656 -0.346553385
vt 0.924560547 0.901367188
v 0.430786133 0.147994995 -0.096878052
vt 0.966552734 0.873291016
vn 0.927095532 0.314269692 -0.204275280
vt 0.941650391 0.847167969
v 0.477386475 0.075172424 -0.064483643
vt 0.946289062 0.845703125
vn 0.865712404 0.141662017 -0.480076879
v 0.482330322 -0.097526550 -0.098243713
vt 0.908203125 0.793457031
vn 0.914208114 0.094573252 -0.394055218
v 0.418457031 0.071510315 -0.191314697
vt 0.993652344 0.836425781
vn 0.927840412 0.117945820 -0.353837460
v 0.417785645 -0.006783962 -0.182113647
vt 0.995117188 0.811279297
vn 0.914037824 0.055157457 -0.401861459
vt 0.574951172 0.833496094
vt 0.600830078 0.931640625
vt 0.537353516 0.899902344
v -0.466888428 -0.101074219 -0.145339966
vt 0.563964844 0.835205078
vn -0.824703395 -0.094251812 -0.557656527
vt 0.574707031 0.814697266
vt 0.534423828 0.900146484
v -0.398193359 -0.020540237 -0.226043701
vt 0.514892578 0.841552734
vn -0.851582527 -0.063080184 -0.520411551
v -0.366333008 -0.150604248 -0.295288086
vt 0.519287109 0.783203125
vn -0.866652310 -0.181209117 -0.464840770
vt 0.557861328 0.781494141
v -0.326751709 -0.128311157 -0.380981445
vt 0.477294922 0.775146484
vn -0.575427830 -0.149768874 -0.804022372
v -0.360565186 0.066627502 -0.320281982
vt 0.466552734 0.853027344
vn -0.762598455 0.180822313 -0.621085346
v -0.265075684 0.072135925 -0.386077881
vt 0.426757812 0.835693359
vn -0.581291258 0.180671602 -0.793384016
v -0.142898560 0.082145691 -0.476440430
vt 0.374267578 0.813720703
vn -0.306308955 0.054978531 -0.950343192
v -0.208999634 0.208419800 -0.389068604
vt 0.388183594 0.875488281
vn -0.481375664 0.307764769 -0.820706010
v -0.075065613 0.158630371 -0.452026367
vt 0.343261719 0.838134766
vn -0.078727953 0.417258173 -0.905371487
v -0.359497070 0.162612915 -0.218734741
vt 0.472900391 0.905517578
vn -0.739515901 0.472031444 -0.479898632
vt 0.485595703 0.933593750
v -0.309112549 0.262817383 -0.225204468
vt 0.441894531 0.934326172
vn -0.803373814 0.362305850 -0.472572863
v -0.296966553 0.162414551 -0.337829590
vt 0.430908203 0.877929688
vn -0.758733273 0.379366636 -0.529532611
v -0.233795166 0.266906738 -0.351501465
vt 0.394531250 0.906250000
vn -0.353892148 0.629141569 -0.692055762
v -0.283508301 0.297851562 -0.247360229
vt 0.424560547 0.939697266
vn -0.589383006 0.644392073 -0.487223268
v -0.014630318 0.255126953 -0.407287598
vt 0.313720703 0.873291016
vn 0.055294950 0.505553842 -0.861021399
v -0.016324997 0.365234375 -0.291259766
vt 0.304687500 0.933349609
vn -0.015788710 0.781541109 -0.623654008
vt 0.317138672 0.172119141
vt 0.366455078 0.241210938
vt 0.306396484 0.259277344
vt 0.911865234 0.266601562
v -0.205291748 0.389770508 -0.182815552
vt 0.908935547 0.304931641
vn -0.472397029 0.834568083 -0.283438206
vt 0.780517578 0.357910156
v -0.269622803 0.371002197 -0.147262573
vt 0.905029297 0.338134766
vn -0.393932849 0.890288293 -0.228481054
vt 0.899902344 0.382812500
vt 0.957519531 0.339355469
vt 0.964111328 0.358886719
vt 0.959960938 0.410400391
vt 1.000000000 0.309082031
vt 0.949462891 0.213134766
vt 0.898925781 0.221435547
vt 0.738037109 0.208496094
vt 0.784912109 0.171142578
vt 0.760742188 0.242919922
v -0.235961914 -0.393218994 -0.181442261
vt 0.701416016 0.243896484
vn -0.441781133 -0.820450664 -0.362891644
vt 0.681884766 0.191894531
vt 0.647705078 0.245849609
v -0.184555054 -0.330841064 -0.351287842
vt 0.664062500 0.319580078
vn -0.368834525 -0.706278861 -0.604260802
v 0.050083160 -0.422332764 -0.241790771
vt 0.567626953 0.244873047
vn -0.023536831 -0.855171561 -0.517810285
v -0.154296875 -0.309326172 -0.377319336
vt 0.649414062 0.333251953
vn -0.110212311 -0.755741537 -0.645529211
v -0.234909058 -0.246673584 -0.361572266
vt 0.695800781 0.349609375
vn -0.584911704 -0.497965366 -0.640241206
v -0.341888428 -0.252044678 -0.241500854
vt 0.754882812 0.309570312
vn -0.700743973 -0.480285197 -0.527526319
vt 0.793212891 0.273925781
vt 0.787353516 0.315185547
vt 0.296142578 0.406005859
vt 0.274902344 0.420898438
vt 0.229003906 0.345214844
vt 0.308837891 0.428222656
v 0.412841797 -0.064453125 -0.207656860
vt 0.264404297 0.483886719
vn 0.873095989 0.149448872 -0.464078039
vt 0.236572266 0.483398438
vt 0.211669922 0.431884766
v 0.415374756 -0.064041138 -0.213912964
vt 0.265380859 0.488037109
vn 0.915431321 0.000000000 -0.402474105
v 0.371093750 -0.136352539 -0.290008545
vt 0.312011719 0.524414062
vn 0.867541313 -0.228715435 -0.441657394
v 0.394897461 -0.213012695 -0.167068481
vt 0.354980469 0.466064453
vn 0.797205567 -0.449908108 -0.402549356
vt 0.340332031 0.431396484
vt 0.423828125 0.426513672
v 0.312103271 -0.306457520 -0.275299072
vt 0.434326172 0.468017578
vn 0.613413036 -0.621277332 -0.487584740
vt 0.469726562 0.427978516
v 0.374145508 0.072601318 -0.336212158
vt 0.229003906 0.569335938
vn 0.836723387 0.142085090 -0.528872311
vt 0.208984375 0.506103516
v 0.355194092 -0.126373291 -0.343658447
vt 0.308105469 0.553955078
vn 0.542903364 -0.188835949 -0.818289101
v 0.285797119 0.076683044 -0.393341064
vt 0.229248047 0.622314453
vn 0.545885384 0.158227652 -0.822783768
v 0.240188599 0.021057129 -0.422851562
vt 0.260742188 0.643798828
vn 0.418753207 -0.165921077 -0.892813444
vt 0.015380859 0.151611328
vt 0.012939453 0.151367188
vt 0.000000000 0.105468750
vt 0.520019531 0.777343750
vt 0.528076172 0.655029297
vt 0.611572266 0.694824219
v 0.116806030 0.357971191 -0.245117188
vt 0.473632812 0.715087891
vn 0.157872319 0.828829706 -0.536765873
v 0.222137451 0.355804443 -0.236999512
vt 0.464111328 0.764160156
vn 0.401749194 0.748356342 -0.527788162
vt 0.473388672 0.648437500
v 0.243118286 0.266479492 -0.342285156
vt 0.399658203 0.758300781
vn 0.486937702 0.534060657 -0.691137373
v 0.069946289 0.320770264 -0.352416992
vt 0.429199219 0.678710938
vn 0.197334260 0.749870241 -0.631469667
vt 0.401855469 0.629150391
v 0.176162720 0.278259277 -0.335418701
vt 0.413330078 0.730957031
vn 0.165164992 0.487630010 -0.857285023
v -0.018312454 0.084533691 -0.451965332
vt 0.320556641 0.620361328
vn 0.158128724 0.403228223 -0.901333690
vt 0.355957031 0.594970703
v 0.194915771 0.074165344 -0.455810547
vt 0.305175781 0.709716797
vn 0.220192760 0.275240928 -0.935819209
vt 0.306396484 0.761962891
vt 0.304687500 0.811767578
vt 0.089111328 0.071533203
vt 0.135498047 0.001220703
vt 0.148437500 0.072998047
vt 0.084228516 0.002685547
vt 0.037353516 0.003173828
v 0.380920410 0.185714722 -0.245712280
vt 0.049560547 0.079833984
vn 0.819227874 0.346596420 -0.456877083
vt 0.000000000 0.087890625
vt 0.064941406 0.140136719
vt 0.017822266 0.135498047
vt 0.777099609 0.889404297
vt 0.856689453 0.949707031
vt 0.803466797 0.961914062
vt 0.762207031 0.951171875
v 0.230133057 -0.261627197 -0.342864990
vt 0.866455078 0.887695312
vn 0.393505633 -0.487946987 -0.779141128
v 0.330810547 -0.221359253 -0.305633545
vt 0.897216797 0.937500000
vn 0.738967240 -0.377344966 -0.558156073
v 0.124710083 -0.332000732 -0.328521729
vt 0.819824219 0.852783203
vn 0.282589883 -0.573029578 -0.769272506
v 0.126281738 -0.301300049 -0.348022461
vt 0.836425781 0.851074219
vn 0.354220927 -0.669083953 -0.653340816
v 0.140060425 -0.205307007 -0.449462891
vt 0.894775391 0.831787109
vn 0.314463854 -0.424526215 -0.849052429
v 0.120521545 -0.306396484 -0.344329834
vt 0.829833984 0.846191406
vn 0.173686624 -0.647377372 -0.742115557
v -0.083656311 -0.263824463 -0.437225342
vt 0.840820312 0.765136719
vn -0.047187075 -0.440412700 -0.896554470
v 0.054290771 -0.360351562 -0.335388184
vt 0.792236328 0.830078125
vn 0.047332216 -0.725760698 -0.686317146
vt 0.746337891 0.849365234
vt 0.763427734 0.765869141
vt 0.689208984 0.895019531
vt 0.648681641 0.852294922
vt 0.497070312 0.137939453
vt 0.448486328 0.138916016
vt 0.465820312 0.079589844
vt 0.518066406 0.100585938
vt 0.455322266 0.161132812
vt 0.525878906 0.182373047
vt 0.407958984 0.190917969
vt 0.401367188 0.159912109
vt 0.446044922 0.162841797
vt 0.481689453 0.188720703
vt 0.460449219 0.242675781
v -0.143966675 -0.230636597 -0.419799805
vt 0.503417969 0.270996094
vn -0.345953047 -0.220151931 -0.912057996
vt 0.458007812 0.282470703
vt 0.477050781 0.291503906
vt 0.506591797 0.300537109
vt 0.476074219 0.382080078
v -0.132156372 -0.108947754 -0.422546387
vt 0.548828125 0.245849609
vn -0.259834468 -0.157475427 -0.952726424
v 0.049453735 -0.090194702 -0.489562988
vt 0.563964844 0.310058594
vn -0.023568772 -0.062850058 -0.997744679
vt 0.602050781 0.186279297
v -0.062496185 0.007174492 -0.481719971
vt 0.608154297 0.221679688
vn -0.118033424 -0.055082265 -0.991480768
v 0.033966064 0.071838379 -0.452056885
vt 0.656738281 0.205810547
vn 0.063219875 0.142244712 -0.987810552
vt 0.769042969 0.625000000
v 0.244552612 -0.145324707 -0.372283936
vt 0.809326172 0.597656250
vn 0.497344345 -0.228936270 -0.836801589
vt 0.837890625 0.645751953
vt 0.877197266 0.568359375
vt 0.755859375 0.554687500
vt 0.906005859 0.530761719
vt 0.914306641 0.570068359
v 0.168136597 -0.057842255 -0.452056885
vt 0.822265625 0.539794922
vn 0.487584740 -0.117964052 -0.865069687
vt 0.774658203 0.492675781
vt 0.690673828 0.516601562
vt 0.898437500 0.431884766
vt 0.868164062 0.382324219
vt 0.875488281 0.455078125
vt 0.804931641 0.432861328
vt 0.759765625 0.421875000
vt 0.322509766 0.117919922
vt 0.346435547 0.151611328
vt 0.313720703 0.167236328
f 1/1/1 2/2/2 3/3/3
f 3/3/3 2/2/2 4/4/4
f 3/3/3 4/4/4 5/5/5
f 4/4/4 2/2/2 6/6/6
f 6/6/6 2/2/2 7/7/7
f 6/6/6 7/7/7 8/8/8
f 6/6/6 8/8/8 4/4/4
f 8/8/8 7/7/7 9/9/9
f 8/8/8 9/9/9 10/10/10
f 10/10/10 9/9/9 11/11/11
f 8/8/8 10/10/10 12/12/12
f 8/8/8 12/12/12 4/4/4
f 12/12/12 10/10/10 13/13/13
f 4/4/4 12/12/12 14/14/14
f 14/14/14 12/12/12 13/13/13
f 4/4/4 14/14/14 15/15/15
f 15/15/15 14/14/14 16/16/16
f 16/16/16 14/14/14 13/13/13
f 16/16/16 13/13/13 17/17/17
f 16/16/16 17/17/17 18/18/18
f 16/16/16 18/18/18 19/19/19
f 16/16/16 19/19/19 20/20/20
f 1/21/1 3/22/3 21/23/21
f 21/23/21 3/22/3 22/24/22
f 1/21/1 21/23/21 23/25/23
f 23/25/23 21/23/21 24/26/24
f 23/25/23 24/26/24 25/27/25
f 23/25/23 25/27/25 26/28/26
f 23/25/23 26/28/26 1/21/1
f 26/28/26 25/27/25 27/29/27
f 26/28/26 27/29/27 28/30/28
f 26/28/26 28/30/28 1/21/1
f 28/30/28 27/29/27 29/31/29
f 2/32/2 1/21/1 7/33/7
f 7/33/7 1/21/1 30/34/30
f 30/34/30 1/21/1 28/30/28
f 7/33/7 30/34/30 9/35/9
f 9/35/9 30/34/30 31/36/31
f 30/34/30 28/30/28 32/37/32
f 32/37/32 28/30/28 29/31/29
f 30/34/30 32/37/32 31/36/31
f 32/37/32 29/31/29 33/38/33
f 31/36/31 32/37/32 34/39/34
f 34/39/34 32/37/32 35/40/35
f 31/36/31 34/39/34 36/41/36
f 36/41/36 34/39/34 37/42/37
f 38/43/38 3/44/3 5/45/5
f 3/44/3 38/43/38 22/46/22
f 38/43/38 5/45/5 39/47/39
f 39/47/39 5/45/5 4/48/4
f 39/47/39 4/48/4 15/49/15
f 22/46/22 38/43/38 40/50/40
f 22/46/22 40/50/40 41/51/41
f 41/51/41 40/50/40 42/52/42
f 42/52/42 40/50/40 43/53/43
f 43/53/43 40/50/40 38/43/38
f 42/52/42 43/53/43 44/54/44
f 44/54/44 43/53/43 38/43/38
f 44/54/44 38/43/38 39/47/39
f 44/54/44 39/47/39 45/55/45
f 44/54/44 45/55/45 46/56/46
f 45/55/45 39/47/39 47/57/47
f 46/56/46 45/55/45 48/58/48
f 48/58/48 45/55/45 47/57/47
f 24/59/24 21/60/21 22/61/22
f 24/59/24 22/61/22 49/62/49
f 24/59/24 49/62/49 50/63/50
f 24/59/24 50/63/50 51/64/51
f 49/62/49 22/61/22 52/65/52
f 52/65/52 22/61/22 41/66/41
f 50/63/50 49/62/49 53/67/53
f 53/67/53 49/62/49 52/65/52
f 50/63/50 53/67/53 54/68/54
f 54/68/54 53/67/53 52/65/52
f 50/63/50 54/68/54 55/69/55
f 55/69/55 54/68/54 56/70/56
f 56/70/56 54/68/54 52/65/52
f 52/65/52 41/66/41 57/71/57
f 56/70/56 52/65/52 58/72/58
f 52/65/52 57/71/57 59/73/59
f 52/65/52 59/73/59 58/72/58
f 59/73/59 57/71/57 60/74/60
f 58/72/58 59/73/59 61/75/61
f 61/75/61 59/73/59 60/74/60
f 47/76/47 39/77/39 15/78/15
f 47/76/47 15/78/15 62/79/62
f 62/79/62 15/78/15 16/80/16
f 47/76/47 62/79/62 63/81/63
f 63/81/63 62/79/62 16/80/16
f 47/76/47 63/81/63 48/82/48
f 48/82/48 63/81/63 64/83/64
f 63/81/63 16/80/16 65/84/65
f 63/81/63 65/84/65 66/85/66
f 65/84/65 16/80/16 67/86/67
f 65/84/65 67/86/67 66/85/66
f 67/86/67 16/80/16 20/87/20
f 66/85/66 67/86/67 68/88/68
f 67/86/67 20/87/20 69/89/69
f 67/86/67 69/89/69 68/88/68
f 9/90/9 31/91/31 11/92/11
f 11/92/11 31/91/31 70/93/70
f 11/92/11 70/93/70 10/94/10
f 70/93/70 31/91/31 36/95/36
f 10/94/10 70/93/70 13/96/13
f 13/96/13 70/93/70 71/97/71
f 13/96/13 71/97/71 17/98/17
f 70/93/70 36/95/36 72/99/72
f 70/93/70 72/99/72 71/97/71
f 72/99/72 36/95/36 73/100/73
f 71/97/71 72/99/72 74/101/74
f 71/97/71 74/101/74 17/98/17
f 17/98/17 74/101/74 75/102/75
f 17/98/17 75/102/75 18/103/18
f 73/100/73 36/95/36 37/104/37
f 72/99/72 73/100/73 76/105/76
f 76/105/76 73/100/73 37/104/37
f 76/105/76 37/104/37 77/106/77
f 24/107/24 78/108/78 25/109/25
f 78/108/78 24/107/24 51/110/51
f 25/109/25 78/108/78 79/111/79
f 25/109/25 79/111/79 27/112/27
f 27/112/27 79/111/79 80/113/80
f 27/112/27 80/113/80 29/114/29
f 29/114/29 80/113/80 33/115/33
f 80/113/80 79/111/79 81/116/81
f 81/116/81 79/111/79 78/108/78
f 82/117/82 78/108/78 83/118/83
f 78/108/78 82/117/82 81/116/81
f 81/116/81 82/117/82 84/119/84
f 81/116/81 84/119/84 85/120/85
f 81/116/81 85/120/85 86/121/86
f 81/116/81 86/121/86 87/122/87
f 81/116/81 87/122/87 80/113/80
f 80/113/80 87/122/87 88/123/88
f 80/113/80 88/123/88 33/115/33
f 88/123/88 87/122/87 89/124/89
f 89/124/89 87/122/87 90/125/90
f 33/115/33 88/123/88 91/126/91
f 89/124/89 90/125/90 91/126/91
f 89/124/89 91/126/91 88/123/88
f 33/115/33 91/126/91 32/127/32
f 32/127/32 91/126/91 35/128/35
f 92/129/92 51/130/51 50/131/50
f 51/130/51 92/129/92 83/132/83
f 51/130/51 83/132/83 78/133/78
f 92/129/92 50/131/50 93/134/93
f 92/129/92 93/134/93 83/132/83
f 93/134/93 50/131/50 55/135/55
f 83/132/83 93/134/93 94/136/94
f 93/134/93 55/135/55 95/137/95
f 93/134/93 95/137/95 94/136/94
f 95/137/95 55/135/55 96/138/96
f 83/132/83 94/136/94 97/139/97
f 83/132/83 97/139/97 82/140/82
f 82/140/82 97/139/97 84/141/84
f 97/139/97 94/136/94 98/142/98
f 97/139/97 98/142/98 84/141/84
f 98/142/98 94/136/94 95/137/95
f 84/141/84 98/142/98 85/143/85
f 99/144/99 96/138/96 55/135/55
f 99/144/99 55/135/55 100/145/100
f 101/146/101 95/137/95 96/138/96
f 95/137/95 101/146/101 98/142/98
f 101/146/101 96/138/96 99/144/99
f 99/144/99 100/145/100 102/147/102
f 98/142/98 101/146/101 103/148/103
f 98/142/98 103/148/103 104/149/104
f 103/148/103 101/146/101 105/150/105
f 103/148/103 105/150/105 99/144/99
f 99/144/99 105/150/105 101/146/101
f 99/144/99 102/147/102 106/151/106
f 106/151/106 102/147/102 107/152/107
f 46/153/46 48/154/48 64/155/64
f 108/156/108 44/157/44 46/158/46
f 64/159/64 109/160/109 46/158/46
f 46/158/46 109/160/109 108/156/108
f 110/161/110 111/162/111 109/160/109
f 109/160/109 111/162/111 108/156/108
f 44/157/44 108/156/108 42/163/42
f 108/156/108 111/162/111 112/164/112
f 112/164/112 111/162/111 113/165/113
f 108/156/108 112/164/112 114/166/114
f 108/156/108 114/166/114 42/163/42
f 112/164/112 113/165/113 115/167/115
f 112/164/112 115/167/115 114/166/114
f 114/166/114 115/167/115 42/163/42
f 115/167/115 113/165/113 116/168/116
f 115/167/115 116/168/116 42/163/42
f 57/169/57 41/170/41 42/163/42
f 57/169/57 42/163/42 60/171/60
f 60/171/60 42/163/42 117/172/117
f 117/172/117 42/163/42 116/168/116
f 60/171/60 117/172/117 61/173/61
f 117/172/117 116/168/116 118/174/118
f 117/172/117 118/174/118 119/175/119
f 119/175/119 118/174/118 120/176/120
f 120/176/120 118/174/118 121/177/121
f 121/177/121 118/174/118 122/178/122
f 122/178/122 118/174/118 116/168/116
f 122/178/122 116/168/116 123/179/123
f 124/180/124 56/181/56 58/182/58
f 124/180/124 58/182/58 61/183/61
f 124/180/124 61/183/61 119/184/119
f 119/184/119 61/183/61 117/185/117
f 124/180/124 119/184/119 107/186/107
f 107/186/107 119/184/119 120/187/120
f 107/186/107 120/187/120 125/188/125
f 125/188/125 120/187/120 126/189/126
f 107/186/107 125/188/125 106/190/106
f 124/180/124 107/186/107 127/191/127
f 124/180/124 127/191/127 56/181/56
f 127/191/127 107/186/107 102/192/102
f 127/191/127 102/192/102 100/193/100
f 127/191/127 100/193/100 56/181/56
f 56/181/56 100/193/100 55/194/55
f 35/195/35 128/196/128 34/197/34
f 109/198/109 64/199/64 110/200/110
f 110/200/110 64/199/64 111/201/111
f 111/201/111 64/199/64 129/202/129
f 63/203/63 66/204/66 64/199/64
f 64/199/64 66/204/66 129/202/129
f 111/201/111 129/202/129 130/205/130
f 111/201/111 130/205/130 131/206/131
f 111/201/111 131/206/131 113/207/113
f 113/207/113 131/206/131 123/208/123
f 131/206/131 130/205/130 132/209/132
f 132/209/132 130/205/130 133/210/133
f 133/210/133 130/205/130 129/202/129
f 132/209/132 133/210/133 134/211/134
f 134/211/134 133/210/133 135/212/135
f 134/211/134 135/212/135 136/213/136
f 133/210/133 129/202/129 137/214/137
f 137/214/137 129/202/129 66/204/66
f 135/212/135 133/210/133 138/215/138
f 138/215/138 133/210/133 137/214/137
f 135/212/135 138/215/138 139/216/139
f 137/214/137 66/204/66 140/217/140
f 137/214/137 140/217/140 138/215/138
f 138/215/138 140/217/140 139/216/139
f 140/217/140 66/204/66 68/218/68
f 139/216/139 140/217/140 141/219/141
f 141/219/141 140/217/140 68/218/68
f 69/220/69 20/221/20 141/222/141
f 69/220/69 141/222/141 68/223/68
f 141/222/141 20/221/20 19/224/19
f 142/225/142 141/222/141 143/226/143
f 143/226/143 141/222/141 144/227/144
f 144/227/144 141/222/141 145/228/145
f 145/228/145 141/222/141 19/224/19
f 144/227/144 145/228/145 146/229/146
f 145/228/145 19/224/19 147/230/147
f 145/228/145 147/230/147 146/229/146
f 147/230/147 19/224/19 75/231/75
f 75/231/75 19/224/19 18/232/18
f 146/229/146 147/230/147 148/233/148
f 147/230/147 75/231/75 149/234/149
f 147/230/147 149/234/149 148/233/148
f 149/234/149 75/231/75 74/235/74
f 149/234/149 74/235/74 72/236/72
f 149/234/149 72/236/72 150/237/150
f 149/234/149 150/237/150 148/233/148
f 148/233/148 150/237/150 146/229/146
f 146/229/146 150/237/150 151/238/151
f 146/229/146 151/238/151 143/239/143
f 128/240/128 37/241/37 34/242/34
f 37/241/37 128/240/128 152/243/152
f 152/243/152 128/240/128 153/244/153
f 152/243/152 153/244/153 154/245/154
f 153/244/153 128/240/128 35/246/35
f 154/245/154 153/244/153 91/247/91
f 91/247/91 153/244/153 35/246/35
f 154/248/154 91/249/91 90/250/90
f 154/248/154 90/250/90 155/251/155
f 155/251/155 90/250/90 87/252/87
f 154/248/154 155/251/155 156/253/156
f 155/251/155 87/252/87 86/254/86
f 156/253/156 155/251/155 157/255/157
f 157/255/157 155/251/155 86/254/86
f 157/255/157 86/254/86 85/256/85
f 157/255/157 85/256/85 158/257/158
f 158/257/158 85/256/85 159/258/159
f 157/255/157 158/257/158 160/259/160
f 160/259/160 158/257/158 161/260/161
f 139/261/139 141/262/141 142/263/142
f 139/261/139 142/263/142 162/264/162
f 139/261/139 162/264/162 135/265/135
f 162/264/162 142/263/142 143/266/143
f 135/265/135 162/264/162 163/267/163
f 163/267/163 162/264/162 143/266/143
f 135/265/135 163/267/163 164/268/164
f 135/265/135 164/268/164 136/269/136
f 164/268/164 163/267/163 165/270/165
f 163/267/163 143/266/143 166/271/166
f 163/267/163 166/271/166 165/270/165
f 165/270/165 166/271/166 167/272/167
f 165/270/165 167/272/167 168/273/168
f 168/273/168 167/272/167 169/274/169
f 169/274/169 167/272/167 166/271/166
f 168/273/168 169/274/169 170/275/170
f 166/271/166 143/266/143 171/276/171
f 171/276/171 143/266/143 151/277/151
f 171/276/171 151/277/151 172/278/172
f 166/271/166 171/276/171 173/279/173
f 166/271/166 173/279/173 169/274/169
f 173/279/173 171/276/171 172/278/172
f 170/275/170 169/274/169 174/280/174
f 174/280/174 169/274/169 173/279/173
f 174/280/174 173/279/173 172/278/172
f 174/280/174 172/278/172 175/281/175
f 170/275/170 174/280/174 176/282/176
f 176/282/176 174/280/174 177/283/177
f 113/284/113 123/285/123 116/286/116
f 76/287/76 178/288/178 72/289/72
f 72/289/72 178/288/178 179/290/179
f 72/289/72 179/290/179 150/291/150
f 179/290/179 178/288/178 175/292/175
f 179/290/179 175/292/175 150/291/150
f 150/291/150 175/292/175 172/293/172
f 150/291/150 172/293/172 151/294/151
f 175/292/175 178/288/178 174/295/174
f 174/295/174 178/288/178 76/287/76
f 174/295/174 76/287/76 177/296/177
f 177/296/177 76/287/76 77/297/77
f 123/298/123 131/299/131 132/300/132
f 123/298/123 132/300/132 180/301/180
f 123/298/123 180/301/180 122/302/122
f 122/302/122 180/301/180 121/303/121
f 121/303/121 180/301/180 181/304/181
f 181/304/181 180/301/180 132/300/132
f 121/303/121 181/304/181 182/305/182
f 182/305/182 181/304/181 183/306/183
f 181/304/181 132/300/132 184/307/184
f 184/307/184 132/300/132 185/308/185
f 185/308/185 132/300/132 134/309/134
f 185/308/185 134/309/134 136/310/136
f 98/311/98 159/312/159 85/313/85
f 159/312/159 98/311/98 104/314/104
f 159/312/159 104/314/104 186/315/186
f 159/312/159 186/315/186 161/316/161
f 159/312/159 161/316/161 158/317/158
f 186/315/186 104/314/104 187/318/187
f 186/315/186 187/318/187 161/316/161
f 187/318/187 104/314/104 188/319/188
f 188/319/188 104/314/104 189/320/189
f 189/320/189 104/314/104 103/321/103
f 189/320/189 103/321/103 99/322/99
f 189/320/189 99/322/99 190/323/190
f 190/323/190 99/322/99 106/324/106
f 161/316/161 187/318/187 191/325/191
f 191/325/191 187/318/187 188/319/188
f 161/316/161 191/325/191 160/326/160
f 191/325/191 188/319/188 192/327/192
f 191/325/191 192/327/192 193/328/193
f 193/328/193 192/327/192 194/329/194
f 143/330/143 144/331/144 146/332/146
f 152/333/152 77/334/77 37/335/37
f 77/334/77 152/333/152 195/336/195
f 195/336/195 152/333/152 196/337/196
f 77/334/77 195/336/195 177/338/177
f 195/336/195 196/337/196 197/339/197
f 177/338/177 195/336/195 198/340/198
f 177/338/177 198/340/198 176/341/176
f 198/340/198 195/336/195 199/342/199
f 198/340/198 199/342/199 176/341/176
f 199/342/199 195/336/195 197/339/197
f 176/341/176 199/342/199 200/343/200
f 176/341/176 200/343/200 170/344/170
f 200/343/200 199/342/199 201/345/201
f 201/345/201 199/342/199 197/339/197
f 201/345/201 197/339/197 193/346/193
f 193/346/193 197/339/197 191/347/191
f 156/348/156 152/349/152 154/350/154
f 152/349/152 156/348/156 196/351/196
f 196/351/196 156/348/156 197/352/197
f 197/352/197 156/348/156 202/353/202
f 197/352/197 202/353/202 191/354/191
f 202/353/202 156/348/156 157/355/157
f 202/353/202 157/355/157 191/354/191
f 191/354/191 157/355/157 160/356/160
f 126/357/126 190/358/190 106/359/106
f 126/357/126 106/359/106 125/360/125
f 203/361/203 204/362/204 190/358/190
f 203/361/203 190/358/190 126/357/126
f 203/361/203 126/357/126 205/363/205
f 203/361/203 205/363/205 206/364/206
f 203/361/203 206/364/206 207/365/207
f 207/365/207 206/364/206 205/363/205
f 207/365/207 205/363/205 208/366/208
f 207/365/207 208/366/208 209/367/209
f 209/367/209 208/366/208 210/368/210
f 210/368/210 208/366/208 205/363/205
f 210/368/210 205/363/205 126/357/126
f 210/368/210 126/357/126 182/369/182
f 210/368/210 182/369/182 183/370/183
f 182/369/182 126/357/126 120/371/120
f 182/369/182 120/371/120 121/372/121
f 204/373/204 188/374/188 189/375/189
f 204/373/204 189/375/189 190/376/190
f 188/374/188 204/373/204 192/377/192
f 192/377/192 204/373/204 203/378/203
f 185/379/185 136/380/136 164/381/164
f 185/379/185 164/381/164 165/382/165
f 185/379/185 165/382/165 184/383/184
f 184/383/184 165/382/165 211/384/211
f 184/383/184 211/384/211 181/385/181
f 181/385/181 211/384/211 183/386/183
f 183/386/183 211/384/211 209/387/209
f 183/386/183 209/387/209 210/388/210
f 211/384/211 165/382/165 212/389/212
f 211/384/211 212/389/212 209/387/209
f 209/387/209 212/389/212 213/390/213
f 212/389/212 165/382/165 168/391/168
f 212/389/212 168/391/168 214/392/214
f 214/392/214 168/391/168 215/393/215
f 203/394/203 216/395/216 192/396/192
f 192/396/192 216/395/216 194/397/194
f 216/395/216 203/394/203 207/398/207
f 194/397/194 216/395/216 201/399/201
f 194/397/194 201/399/201 193/400/193
f 216/395/216 207/398/207 217/401/217
f 216/395/216 217/401/217 201/399/201
f 217/401/217 207/398/207 213/402/213
f 217/401/217 213/402/213 201/399/201
f 213/402/213 207/398/207 209/403/209
f 200/404/200 201/399/201 168/405/168
f 168/405/168 201/399/201 215/406/215
f 215/406/215 201/399/201 213/402/213
f 215/406/215 213/402/213 214/407/214
f 214/407/214 213/402/213 212/408/212
f 168/409/168 170/410/170 200/411/200
