mtllib M_Water_Bullet.mtl
o tripo_node_bc0d0f86-df1b-48f5-a408-9f6486bdb8c7
g tripo_node_bc0d0f86-df1b-48f5-a408-9f6486bdb8c7
usemtl tripo_material_bc0d0f86_df1b_48f5_a408_9f6486bdb8c7
v -0.033294678 -0.091285706 0.489166260
vt 0.409179688 0.405517578
vn 0.055029470 -0.125781640 0.990530431
v -0.242538452 0.068923950 0.457489014
vt 0.478027344 0.509277344
vn -0.330176860 0.125781655 0.935501039
v -0.158966064 -0.196182251 0.449829102
vt 0.333740234 0.471435547
vn -0.356146008 -0.411546469 0.838921666
v -0.297607422 -0.240890503 0.307037354
vt 0.357910156 0.577148438
vn -0.774419367 -0.292382836 0.561058879
v -0.341949463 -0.126831055 0.349365234
vt 0.402343750 0.596191406
vn -0.732897162 -0.212776601 0.646210372
v -0.347625732 0.036495209 0.342803955
vt 0.462158203 0.618896484
vn -0.910118878 0.133379489 0.392292619
v -0.331970215 -0.034061432 0.318725586
vt 0.428710938 0.633544922
vn -0.927983880 -0.047185622 -0.369620711
v -0.324310303 -0.138381958 0.306671143
vt 0.383789062 0.616943359
vn -0.974085629 -0.078555293 -0.212099299
vt 0.457763672 0.666503906
vn -0.989277959 -0.117771193 -0.086365543
v -0.335937500 0.005392075 0.311645508
vt 0.436523438 0.676025391
vn -0.949202120 -0.023533935 -0.313785821
v -0.316131592 -0.146835327 0.209716797
vt 0.336669922 0.649169922
vn -0.980550528 -0.196110100 0.007844404
v -0.290954590 -0.211303711 0.122550964
vt 0.272705078 0.660644531
vn -0.977226615 -0.110332035 0.181259766
v -0.340240479 -0.175476074 0.121994019
vt 0.291992188 0.683349609
vn -0.959678292 -0.086528376 0.267451316
v -0.294372559 -0.118087769 0.190063477
vt 0.340332031 0.669189453
vn -0.993698299 0.070978448 -0.086751439
v -0.289489746 0.061130524 0.187667847
vt 0.388671875 0.727783203
vn -0.965010107 -0.203985870 0.164757818
v -0.355194092 0.070304871 0.060012817
vt 0.356689453 0.807617188
vn -0.951311946 0.188689977 0.243724555
vt 0.452392578 0.695556641
v -0.289367676 0.092674255 0.153472900
vt 0.426513672 0.802734375
vn -0.990163386 0.110018156 -0.086442843
v -0.346160889 0.115554810 0.305541992
vt 0.479003906 0.733398438
vn -0.986701965 0.078936160 0.142085075
v -0.024265289 -0.337554932 0.368865967
vt 0.255126953 0.612060547
vn 0.007852139 -0.683136106 0.730248988
v 0.109649658 -0.265930176 0.436431885
vt 0.259765625 0.669189453
vn 0.157872319 -0.536765873 0.828829706
vt 0.178955078 0.669189453
v 0.302795410 -0.151596069 0.380187988
vt 0.275634766 0.747314453
vn 0.741146028 -0.149806127 0.654416203
v -0.006326675 -0.413818359 0.179550171
vt 0.315429688 0.574218750
vn 0.015765145 -0.922260940 0.386246055
vt 0.181396484 0.611083984
v -0.144638062 -0.417694092 0.257202148
vt 0.265869141 0.549804688
vn -0.259770036 -0.842284739 0.472309202
v -0.219039917 -0.465850830 0.003970146
vt 0.324462891 0.477783203
vn -0.306687564 -0.951517820 0.023591351
v -0.312744141 -0.359893799 0.106224060
vt 0.264404297 0.469482422
vn -0.875210404 -0.457317144 0.157695562
v -0.316375732 -0.352569580 -0.142135620
vt 0.322265625 0.405761719
vn -0.826310694 -0.543004096 -0.149522886
v -0.292602539 -0.307189941 0.281494141
vt 0.204589844 0.529052734
vn -0.726393759 -0.505317390 0.465839446
vt 0.181884766 0.539062500
vt 0.168212891 0.475830078
vt 0.200683594 0.455078125
v -0.306976318 -0.207885742 0.105911255
vt 0.216064453 0.447509766
vn -0.921431243 -0.370147616 -0.118132219
v -0.291442871 -0.253814697 -0.010892868
vt 0.247558594 0.416992188
vn -0.994595587 -0.102617003 0.015787231
v -0.029819489 0.067596436 0.441680908
vt 0.622802734 0.527587891
vn -0.094664432 0.331325501 0.938755631
vt 0.698730469 0.472900391
vt 0.667724609 0.584716797
v -0.121353149 0.296112061 0.326416016
vt 0.585693359 0.414794922
vn -0.110219136 0.527477264 0.842389107
v -0.247299194 0.254241943 0.355834961
vt 0.643310547 0.398681641
vn -0.584127605 0.528872252 0.615702033
vt 0.746582031 0.422119141
vt 0.721435547 0.393066406
v -0.206573486 0.330261230 0.285278320
vt 0.601318359 0.373535156
vn -0.047385328 0.837140799 0.544931233
v -0.049312592 0.368865967 0.195693970
vt 0.520263672 0.382568359
vn -0.102588251 0.852271676 0.512941301
v -0.215896606 0.417022705 0.132675171
vt 0.563476562 0.306640625
vn -0.370296896 0.906045616 0.204845086
v -0.353698730 0.262542725 0.180862427
vt 0.657226562 0.310302734
vn -0.882738471 0.433487654 0.181276649
vt 0.750732422 0.327636719
v -0.316040039 0.256927490 0.094238281
vt 0.691894531 0.277099609
vn -0.949085355 -0.298059851 -0.101967841
v 0.307098389 0.065574646 0.322265625
vt 0.524902344 0.640625000
vn 0.945116341 0.086635664 0.315038770
v 0.251098633 0.260345459 0.355712891
vt 0.490478516 0.700195312
vn 0.623129904 0.520589530 0.583691299
v 0.187072754 0.072738647 0.476715088
vt 0.474365234 0.641845703
vn 0.353837460 0.117945820 0.927840412
vt 0.540527344 0.553222656
v 0.277740479 -0.074851990 0.206909180
vt 0.577636719 0.607910156
vn 0.997991085 0.007858197 0.062865578
v 0.312652588 0.036186218 0.199523926
vt 0.578125000 0.645019531
vn 0.725647748 -0.291836590 0.623110533
v 0.318359375 -0.167999268 0.154373169
vt 0.603759766 0.586425781
vn 0.788551331 0.402161181 0.465245277
v 0.360931396 -0.167236328 0.145568848
vt 0.620605469 0.581298828
vn 0.979510546 -0.150086299 0.134287730
v 0.393890381 0.078910828 0.131439209
vt 0.616699219 0.656494141
vn 0.983733654 0.157397389 0.086568564
v 0.322937012 -0.172988892 0.148345947
vt 0.612304688 0.563476562
vn 0.947233915 -0.197340384 0.252595693
v 0.320770264 -0.356323242 0.146682739
vt 0.606689453 0.500000000
vn 0.862725198 -0.462734431 0.203916863
v 0.204269409 -0.326965332 0.352264404
vt 0.528564453 0.493408203
vn 0.353172094 -0.714192450 0.604316652
vt 0.479492188 0.497802734
v 0.142944336 -0.425384521 0.224075317
vt 0.555908203 0.449462891
vn 0.173121050 -0.912820041 0.369849503
vt 0.530761719 0.405517578
vt 0.165771484 0.634033203
v 0.148483276 0.262329102 0.355926514
vt 0.130126953 0.644042969
vn 0.172800347 0.651928544 0.738328695
vt 0.122802734 0.562500000
vt 0.032958984 0.519531250
vt 0.152832031 0.469970703
vt 0.044677734 0.577880859
v 0.090187073 0.176269531 0.449981689
vt 0.095947266 0.606689453
vn -0.102257647 0.377566725 0.920318842
vt 0.031005859 0.680664062
v 0.138320923 0.414764404 0.199264526
vt 0.146972656 0.720703125
vn 0.086883932 0.884636402 0.458115250
v -0.027416229 0.299163818 0.375335693
vt 0.067871094 0.664794922
vn -0.039492700 0.774056911 0.631883204
vt 0.078125000 0.733642578
vt 0.031250000 0.780761719
v 0.220748901 0.371795654 0.161117554
vt 0.182617188 0.713623047
vn 0.449348569 0.859280646 0.244382560
v 0.167938232 0.414489746 0.070701599
vt 0.180908203 0.754150391
vn 0.338561714 0.936949849 0.086608820
v -0.003930569 0.466125488 0.012335777
vt 0.137451172 0.806640625
vn 0.000000000 0.999969006 -0.007873772
vt 0.870605469 0.485595703
vn -0.803224385 -0.543357670 0.244117215
vt 0.889160156 0.477050781
vn -0.755320430 0.055075448 -0.653037429
v -0.338897705 0.018520355 0.331237793
vt 0.898437500 0.484863281
vn 0.966319680 0.133556366 0.219975203
vt 0.893310547 0.454345703
vn -0.966319680 -0.133556366 -0.219975203
vt 0.909667969 0.487548828
vn 0.894399583 0.164757818 0.415817380
vt 0.374755859 0.849853516
v 0.307434082 0.082237244 0.180480957
vt 0.321777344 0.865478516
vn 0.865096390 0.330309540 0.377496600
v 0.288177490 0.248443604 0.226577759
vt 0.294921875 0.804199219
vn 0.958256423 0.078545608 0.274909616
vt 0.317138672 0.759521484
v 0.345153809 0.198364258 0.119857788
vt 0.281250000 0.858886719
vn 0.755741537 0.110212311 0.645529211
v 0.339324951 0.335998535 0.100074768
vt 0.238037109 0.826660156
vn 0.825442076 0.550294697 0.125781640
vt 0.234375000 0.775634766
vt 0.299316406 0.904296875
vt 0.346191406 0.889160156
v 0.219528198 0.415435791 -0.132125854
vt 0.137939453 0.818359375
vn 0.345953047 0.912057996 -0.220151931
vt 0.192382812 0.758300781
v 0.345245361 0.199798584 0.116638184
vt 0.260498047 0.873046875
vn 0.879710793 -0.180654898 -0.439855397
v 0.205139160 0.330902100 -0.285003662
vt 0.091796875 0.866699219
vn 0.276121765 0.781030178 -0.560132742
v 0.051074982 0.366516113 -0.198516846
vt 0.074462891 0.807373047
vn 0.086450852 0.864508510 -0.495127589
v 0.350555420 0.264648438 -0.175857544
vt 0.158203125 0.894775391
vn 0.915203393 0.370815188 -0.157793701
v 0.316345215 0.256774902 -0.095649719
vt 0.189941406 0.887939453
vn 0.941386402 -0.337330103 0.000000000
v 0.290008545 0.182113647 0.063369751
vt 0.243896484 0.897460938
vn 0.945321560 0.196941972 -0.259963423
v 0.349304199 0.072975159 -0.058147430
vt 0.244873047 0.944335938
vn 0.967963934 0.133783624 -0.212479889
vt 0.339355469 0.968261719
v 0.287048340 0.137802124 -0.111061096
vt 0.205078125 0.932861328
vn 0.998114347 0.047155008 0.039295841
v 0.289611816 0.080467224 -0.187561035
vt 0.194824219 0.964355469
vn 0.970763624 0.110493422 0.213094458
vt 0.350341797 0.059082031
vt 0.261962891 0.094482422
v -0.002937078 -0.473907471 0.027429581
vt 0.205322266 0.013183594
vn -0.007861840 -0.998453617 0.055032875
vt 0.859375000 0.260742188
vt 0.897705078 0.275878906
v -0.351348877 0.283813477 0.097099304
vt 0.861083984 0.278564453
vn -0.591046095 -0.780180812 -0.204895973
v -0.352722168 0.292083740 0.063591003
vt 0.846191406 0.279541016
vn -0.558830023 -0.794955373 -0.236125365
v -0.355377197 0.298004150 0.050384521
vt 0.841064453 0.282714844
vn -0.820527196 -0.536498547 -0.197242111
v -0.341369629 0.336456299 -0.104637146
vt 0.775878906 0.298583984
vn -0.669021785 0.739859402 -0.070837595
vt 0.838134766 0.387207031
v -0.131561279 0.411468506 -0.203140259
vt 0.740234375 0.395751953
vn -0.181259766 0.914179683 -0.362519532
v -0.333343506 0.318817139 -0.062568665
vt 0.794677734 0.283203125
vn -0.924706161 -0.379366636 -0.031613886
v -0.306030273 0.185897827 -0.080139160
vt 0.782958984 0.223632812
vn -0.959529996 0.165164992 0.228084996
vt 0.897460938 0.186767578
vt 0.844482422 0.160888672
v -0.393249512 0.082328796 -0.128921509
vt 0.770019531 0.164550781
vn -0.803149581 0.590551198 0.078740157
v -0.323577881 0.131637573 -0.123550415
vt 0.759277344 0.199951172
vn -0.487645060 0.000000000 0.873041928
v -0.377227783 0.176452637 -0.119934082
vt 0.745361328 0.225341797
vn -0.908162057 0.007897061 0.418544263
vt 0.722656250 0.188964844
vn -0.086700223 -0.078818388 0.993111670
v -0.391357422 0.077560425 -0.133880615
vt 0.719238281 0.187988281
vn -0.954830170 -0.055238109 -0.291972876
v -0.319946289 0.196243286 -0.138732910
vt 0.727294922 0.244384766
vn -0.895309389 0.070682317 -0.439801097
v -0.299713135 0.302734375 -0.206359863
vt 0.717529297 0.288818359
vn -0.828623176 0.426149070 -0.363015890
v -0.309387207 0.078308105 -0.173049927
vt 0.683105469 0.202148438
vn -0.798824668 0.466640145 -0.379639447
v -0.302642822 0.074584961 -0.323089600
vt 0.631103516 0.206054688
vn -0.954384506 0.063099802 -0.291836590
vt 0.854980469 0.506835938
vt 0.875976562 0.496337891
vt 0.941894531 0.585937500
v 0.317413330 -0.175750732 0.144546509
vt 0.845947266 0.532226562
vn 0.902134180 -0.345164388 -0.258873284
v 0.218719482 -0.466552734 -0.003350258
vt 0.484130859 0.999755859
vn 0.275453925 -0.960153759 -0.047220677
vt 0.560058594 0.895751953
vt 0.632324219 0.997558594
vt 0.191162109 0.156250000
v 0.288848877 -0.250213623 0.003648758
vt 0.236083984 0.096679688
vn 0.990744889 -0.133671924 -0.023589164
vt 0.266113281 0.156250000
v 0.315216064 -0.361267090 -0.104820251
vt 0.187988281 0.052734375
vn 0.868541420 -0.457958192 -0.189499944
vt 0.128906250 0.094482422
v 0.351806641 -0.175323486 0.014603615
vt 0.276611328 0.102050781
vn 0.965813041 -0.259120554 -0.007852138
vt 0.284423828 0.155517578
vt 0.376953125 0.063720703
vt 0.528564453 0.807861328
vt 0.472412109 0.753906250
vt 0.562255859 0.740722656
vt 0.453125000 0.855712891
vt 0.597412109 0.827148438
vt 0.583740234 0.887451172
vt 0.524902344 0.895019531
v 0.029994965 0.296844482 -0.373596191
vt 0.481933594 0.958984375
vn 0.062914155 0.754969895 -0.652734399
v -0.146759033 0.260528564 -0.357727051
vt 0.421386719 0.923583984
vn -0.165267244 0.661068976 -0.731897831
v -0.084892273 0.191925049 -0.440917969
vt 0.412597656 0.963623047
vn 0.087022491 0.387645602 -0.917691648
v -0.185424805 0.074424744 -0.477722168
vt 0.359619141 0.968017578
vn -0.346242100 0.133775353 -0.928558290
v -0.251281738 0.261871338 -0.354614258
vt 0.396728516 0.912353516
vn -0.590697765 0.504062057 -0.630077600
vt 0.331298828 0.930175781
vt 0.395996094 0.871337891
vt 0.386962891 0.848632812
vt 0.285888672 0.290039062
v -0.357910156 -0.163589478 -0.143707275
vt 0.183593750 0.232421875
vn -0.952696860 -0.291320533 -0.086608805
vt 0.291503906 0.269287109
vt 0.259765625 0.223876953
v -0.318817139 -0.177337646 -0.143325806
vt 0.191650391 0.216308594
vn -0.925110757 -0.197673231 0.324184120
vt 0.138183594 0.160888672
vt 0.302246094 0.168212891
v -0.323699951 -0.172363281 -0.149490356
vt 0.167968750 0.234130859
vn -0.960421562 -0.188935384 -0.204679996
v -0.318420410 -0.318542480 -0.182891846
vt 0.127929688 0.181640625
vn -0.908077121 -0.300060272 -0.292163968
v -0.206802368 -0.328216553 -0.350433350
vt 0.040527344 0.197021484
vn -0.363412172 -0.718924046 -0.592519820
v -0.303070068 -0.154312134 -0.385711670
vt 0.075683594 0.283447266
vn -0.723177552 -0.141491249 -0.676013768
v -0.346069336 -0.076362610 -0.002758980
vt 0.856445312 0.589843750
vn -0.990163386 -0.086442843 0.110018156
vt 0.833251953 0.533691406
vt 0.924316406 0.584960938
vt 0.802734375 0.631835938
vt 0.904296875 0.653564453
vt 0.905761719 0.652832031
v -0.321533203 -0.054782867 -0.193847656
vt 0.846435547 0.659667969
vn -0.512033284 -0.023632307 -0.858640432
v -0.310791016 0.076606750 -0.171310425
vt 0.884277344 0.677001953
vn -0.805650949 -0.355434269 -0.473912358
v -0.323425293 -0.168518066 -0.152816772
vt 0.808593750 0.654541016
vn -0.794856846 0.503671706 -0.338404417
vt 0.901123047 0.734863281
vt 0.919189453 0.684570312
v -0.278778076 -0.080734253 -0.205520630
vt 0.832031250 0.680908203
vn -0.994998753 0.031587262 -0.094761789
vt 0.774902344 0.726806641
vt 0.793945312 0.634033203
vt 0.874755859 0.806396484
v -0.058406830 -0.461151123 0.004885674
vt 0.686523438 0.618408203
vn -0.062914155 -0.975169480 0.212335289
vt 0.669433594 0.607421875
vt 0.688720703 0.558105469
vt 0.732666016 0.635742188
v -0.022422791 -0.468658447 -0.074729919
vt 0.666015625 0.641601562
vn 0.039433695 -0.977955699 -0.205055207
v -0.145446777 -0.421508789 -0.228393555
vt 0.694335938 0.709472656
vn -0.220780626 -0.898892522 -0.378481060
v 0.002411366 -0.414154053 -0.181167603
vt 0.642333984 0.675781250
vn -0.007883308 -0.922347069 -0.386282116
vt 0.632080078 0.589355469
vt 0.681396484 0.765625000
vt 0.737060547 0.752685547
v -0.109146118 -0.265533447 -0.436645508
vt 0.625000000 0.781005859
vn -0.141815826 -0.543627322 -0.827259064
vt 0.682861328 0.826416016
v 0.027742386 -0.341125488 -0.366455078
vt 0.591796875 0.727294922
vn -0.007897307 -0.687065721 -0.726552308
v 0.036720276 -0.090515137 -0.488525391
vt 0.556396484 0.809082031
vn -0.047187075 -0.125832200 -0.990928590
v 0.141830444 -0.412597656 -0.258483887
vt 0.591064453 0.685546875
vn 0.260733128 -0.845407426 -0.466159225
vt 0.398925781 0.092041016
v 0.347808838 -0.180816650 -0.107681274
vt 0.393066406 0.263671875
vn 0.953435898 -0.102435254 -0.283666849
vt 0.297119141 0.152587891
v 0.300292969 -0.224304199 -0.108955383
vt 0.456054688 0.218505859
vn 0.948772252 -0.166035131 0.268818796
vt 0.586669922 0.117187500
vt 0.883300781 0.493408203
vt 0.997314453 0.493408203
vt 0.948486328 0.582519531
vt 0.974365234 0.442138672
vt 0.746337891 0.442138672
vt 0.948974609 0.338134766
vt 0.593505859 0.001464844
v 0.283691406 0.060317993 -0.198577881
vt 0.709960938 0.169677734
vn 0.963171303 -0.173686624 -0.205265999
vt 0.593505859 0.200195312
v 0.289398193 -0.079490662 -0.211273193
vt 0.697753906 0.062500000
vn 0.991880059 0.047232382 0.118080959
v 0.345581055 0.063354492 -0.321685791
vt 0.814941406 0.149902344
vn 0.921031415 -0.094464764 0.377859056
v 0.321441650 -0.137084961 -0.305023193
vt 0.763183594 0.002929688
vn 0.917738795 0.062751375 0.392196059
v 0.311828613 -0.153945923 -0.186294556
vt 0.669921875 0.006103516
vn 0.986701965 -0.078936160 -0.142085075
v 0.324737549 -0.137512207 -0.307403564
vt 0.765136719 0.000244141
vn 0.974898219 -0.165103719 0.149379566
v 0.343841553 -0.010442734 -0.305877686
vt 0.804687500 0.092773438
vn -0.826233983 0.118033424 0.550822616
v 0.340789795 -0.058391571 -0.305694580
vt 0.793212891 0.057617188
vn 0.729103506 -0.117597342 -0.674224675
v 0.341278076 -0.043762207 -0.305603027
vt 0.796386719 0.068359375
vn 0.906805873 -0.055196878 0.417919219
v 0.330322266 -0.042835236 -0.311614990
vt 0.814208984 0.067138672
vn 0.988520741 -0.102806151 -0.110714324
v 0.338836670 -0.035774231 -0.346923828
vt 0.841552734 0.075683594
vn 0.898390055 -0.070925526 0.433433801
vt 0.120605469 0.143554688
vt 0.011962891 0.135253906
vt 0.103271484 0.071777344
vt 0.006103516 0.208740234
v 0.288909912 -0.305786133 -0.280426025
vt 0.000000000 0.050781250
vn 0.769556999 -0.455452114 -0.447599500
v 0.290130615 -0.205459595 -0.124023438
vt 0.075927734 0.000488281
vn 0.974928319 -0.117934883 -0.188695803
v 0.338714600 -0.272003174 -0.111228943
vt 0.104492188 0.025390625
vn 0.251695544 -0.125847772 -0.959589362
v 0.347290039 -0.222122192 -0.113166809
vt 0.100830078 0.003662109
vn 0.275752991 0.007878657 -0.961196244
v 0.329132080 -0.318206787 -0.107589722
vt 0.105468750 0.050292969
vn 0.125937402 0.023613265 0.991757095
vt 0.136962891 0.034423828
v 0.330963135 -0.301818848 -0.107131958
vt 0.106689453 0.041015625
vn 0.047189999 -0.007865000 0.998854995
v 0.336853027 -0.271026611 -0.107460022
vt 0.105957031 0.026855469
vn 0.172566280 0.094127059 0.980490208
vt 0.118408203 0.011474609
vn 0.007873528 0.007873528 0.999938011
vt 0.110351562 0.043457031
vn -0.102617003 -0.015787231 0.994595587
v 0.344757080 -0.229583740 -0.108345032
vt 0.103759766 0.010009766
vn 0.086751439 -0.070978448 0.993698299
vt 0.421142578 0.973388672
vn 0.558052599 -0.086458862 0.825289130
vt 0.413818359 0.973144531
vn 0.424198657 -0.062844239 0.903385997
v 0.329986572 -0.307617188 -0.107063293
vt 0.416503906 0.973144531
vn -0.268449843 -0.007895584 0.963261306
v 0.330139160 -0.306152344 -0.107238770
vt 0.415771484 0.972900391
vn -0.950753808 0.157149374 -0.267153949
v 0.330169678 -0.306945801 -0.107383728
vt 0.416015625 0.972900391
vn -0.424198657 0.062844239 -0.903385997
vt 0.413818359 0.972900391
vn 0.268449843 0.007895584 -0.963261306
vt 0.421142578 0.972656250
vn -0.362801313 0.047321912 -0.930664241
vt 0.413818359 0.989013672
vn 0.039320134 -0.031456109 0.998731434
vt 0.408447266 0.989013672
vt 0.416015625 0.988769531
vt 0.481933594 0.991455078
vn 0.165549457 0.039416537 -0.985413432
vt 0.437255859 0.991455078
vt 0.477539062 0.989746094
v 0.346466064 -0.220138550 -0.108314514
vt 0.073242188 0.954101562
vn 0.015733894 -0.039334733 -0.999102235
v 0.345764160 -0.224411011 -0.108261108
vt 0.056640625 0.951660156
vn 0.015744127 -0.015744127 -0.999752104
vt 0.056640625 0.776611328
vn 0.251283944 -0.062820986 -0.965872645
v 0.346405029 -0.218948364 -0.108489990
vt 0.077880859 0.954101562
vn 0.007844404 -0.086288445 0.996239305
v 0.345733643 -0.221755981 -0.108451843
vt 0.087890625 0.948974609
vn -0.015746079 0.000000000 0.999876022
v 0.344512939 -0.224578857 -0.108512878
vt 0.097412109 0.941894531
vn -0.015741689 0.023612533 0.999597251
v 0.344909668 -0.225860596 -0.108367920
vt 0.102783203 0.942138672
vn 0.031562667 0.733832002 -0.678597271
vt 0.109130859 0.943847656
vn 0.015714940 0.062859759 -0.997898698
vt 0.399169922 0.972656250
vn -0.197414219 0.047379412 0.979174554
vt 0.398193359 0.975585938
vt 0.395263672 0.974121094
vt 0.003906250 0.214843750
vt 0.024169922 0.211181641
vn -0.015744127 -0.015744127 0.999752104
vt 0.020507812 0.386474609
v 0.347045898 -0.220169067 -0.108734131
vt 0.432373047 0.995605469
vn 0.094782472 -0.023695618 0.995215952
v 0.346313477 -0.219711304 -0.108543396
vt 0.434082031 0.998291016
vn 0.346757829 0.015761718 0.937822223
vt 0.423339844 0.999511719
vn -0.007869869 0.031479478 0.999473393
vt 0.427246094 0.995361328
vn -0.125657454 -0.070682317 -0.989552498
v 0.346740723 -0.218734741 -0.108436584
vt 0.436035156 0.998779297
vn -0.023635972 0.118179865 0.992710829
vt 0.434570312 0.997314453
vt 0.436279297 0.998046875
vt 0.731933594 0.466064453
vt 0.739990234 0.645996094
vt 0.710693359 0.473144531
vt 0.737548828 0.465332031
vt 0.889404297 0.447021484
vt 0.404541016 0.996093750
vt 0.399414062 0.995117188
vt 0.404052734 0.995117188
vt 0.406005859 0.997070312
vt 0.406738281 0.993896484
vt 0.406738281 0.997558594
vt 0.466552734 0.015625000
vt 0.475585938 0.016601562
vn 0.923754573 0.055267368 0.378976226
vt 0.479003906 0.019042969
vt 0.486572266 0.004882812
vt 0.362060547 0.000000000
vt 0.479003906 0.017333984
vn 0.829217315 -0.513324976 0.221124604
vt 0.482177734 0.017822266
vn 0.914208114 -0.394055218 0.094573252
vt 0.488525391 0.016845703
vn 0.917259216 -0.235194683 0.321432710
vt 0.493164062 0.014892578
vt 0.589111328 0.000732422
vt 0.411132812 0.996093750
vt 0.418457031 0.993652344
vt 0.417724609 0.996826172
vn -0.197242111 0.063117474 0.978320897
vt 0.421142578 0.988769531
vt 0.431884766 0.988769531
vt 0.427734375 0.989990234
vn -0.306167334 0.062803559 0.949903846
vt 0.403808594 0.974365234
vn -0.549598932 0.306205124 -0.777289927
vt 0.407958984 0.972900391
vt 0.408935547 0.974365234
vt 0.487304688 0.983886719
vn -0.956929028 0.180404648 -0.227466717
vt 0.363525391 0.983886719
vt 0.467041016 0.974121094
vt 0.998046875 0.020263672
vt 0.925537109 0.241699219
vt 0.836669922 0.008544922
vt 0.479003906 0.998779297
vn 0.368516952 -0.595899761 0.713511586
vt 0.442382812 0.998779297
vt 0.478027344 0.996093750
vt 0.948242188 0.726806641
vt 0.972656250 0.871582031
vt 0.927490234 0.803466797
vt 0.996826172 0.798828125
v 0.348937988 0.122886658 -0.301788330
vt 0.937988281 0.878417969
vn 0.984007955 0.125953019 -0.125953019
vt 0.833251953 0.858398438
v 0.352508545 0.065933228 -0.345092773
vt 0.977783203 0.884521484
vn 0.770960748 0.275343120 -0.574287117
v 0.246963501 0.253540039 -0.355346680
vt 0.881835938 0.958007812
vn 0.486937702 0.534060657 -0.691137373
vt 0.820800781 0.965576172
v 0.246688843 0.068824768 -0.456390381
vt 1.000000000 0.967041016
vn 0.307908595 0.150006756 -0.939515948
vt 0.632080078 0.971435547
vt 0.670166016 0.972900391
vt 0.639160156 1.000000000
vt 0.707031250 0.978271484
vt 0.984130859 0.333251953
vt 0.875000000 0.333251953
vt 0.931640625 0.261230469
vt 0.539062500 0.203369141
vt 0.611572266 0.224609375
vt 0.645263672 0.262939453
vt 0.541015625 0.309326172
v 0.339752197 -0.131469727 -0.346984863
vt 0.514404297 0.194580078
vn 0.621661961 -0.299027264 -0.723960757
v 0.247451782 -0.148361206 -0.377960205
vt 0.461669922 0.224853516
vn 0.559749603 -0.299584299 -0.772612154
v 0.158782959 -0.199737549 -0.452331543
vt 0.398925781 0.270263672
vn 0.339934230 -0.426894188 -0.837977469
vt 0.501220703 0.413574219
vt 0.396240234 0.398681641
vt 0.296386719 0.260742188
vt 0.764160156 0.810791016
vt 0.813476562 0.765625000
vt 0.833007812 0.825683594
v 0.088264465 0.226013184 -0.364288330
vt 0.772949219 0.842041016
vn 0.117637113 0.415651143 -0.901884496
vt 0.825439453 0.864501953
vt 0.783935547 0.926025391
vt 0.706542969 0.827392578
vt 0.706054688 0.783691406
v 0.024898529 0.068283081 -0.440704346
vt 0.721923828 0.883300781
vn 0.094444282 0.314814270 -0.944442868
vt 0.697265625 0.936523438
vt 0.654541016 0.849121094
vt 0.574218750 0.902587891
vt 0.621093750 0.968261719
vt 0.063720703 0.286132812
vt 0.088867188 0.302490234
vt 0.060302734 0.363281250
v 0.350982666 -0.016016006 -0.346069336
vt 0.062500000 0.379394531
vn 0.900208831 0.031586275 0.434311301
v 0.353668213 -0.017559052 -0.349609375
vt 0.059082031 0.379638672
vn 0.345856816 -0.251532227 0.903943896
vt 0.031738281 0.428955078
vt 0.048095703 0.434814453
vt 0.070312500 0.380615234
vn 0.722085118 -0.039243758 -0.690690160
vt 0.166259766 0.457275391
vt 0.158447266 0.295654297
vt 0.245605469 0.275634766
vt 0.326904297 0.361083984
f 1/1/1 2/2/2 3/3/3
f 3/3/3 2/2/2 4/4/4
f 4/4/4 2/2/2 5/5/5
f 5/5/5 2/2/2 6/6/6
f 5/5/5 6/6/6 7/7/7
f 5/5/5 7/7/7 8/8/8
f 5/5/5 8/8/8 4/4/4
f 8/8/8 7/7/7 6/9/9
f 8/8/8 6/9/9 9/10/10
f 4/4/4 8/8/8 10/11/11
f 4/4/4 10/11/11 11/12/12
f 11/12/12 10/11/11 12/13/13
f 10/11/11 8/8/8 13/14/14
f 10/11/11 13/14/14 12/13/13
f 13/14/14 8/8/8 9/10/10
f 12/13/13 13/14/14 14/15/15
f 14/15/15 13/14/14 9/10/10
f 12/13/13 14/15/15 15/16/16
f 14/15/15 9/10/10 6/17/6
f 14/15/15 6/17/6 15/16/16
f 15/16/16 6/17/6 16/18/17
f 16/18/17 6/17/6 17/19/18
f 18/20/19 19/21/20 1/22/1
f 1/22/1 19/21/20 20/23/21
f 19/21/20 18/20/19 21/24/22
f 18/20/19 1/22/1 3/25/3
f 21/24/22 18/20/19 22/26/23
f 22/26/23 18/20/19 3/25/3
f 21/24/22 22/26/23 23/27/24
f 23/27/24 22/26/23 24/28/25
f 23/27/24 24/28/25 25/29/26
f 22/26/23 3/25/3 26/30/27
f 22/26/23 26/30/27 24/28/25
f 26/30/27 3/25/3 4/31/4
f 26/30/27 4/31/4 11/32/12
f 26/30/27 11/32/12 24/28/25
f 24/28/25 11/32/12 12/33/13
f 24/28/25 12/33/13 27/34/28
f 24/28/25 27/34/28 28/35/29
f 29/36/30 2/37/2 1/38/1
f 2/37/2 29/36/30 30/39/31
f 2/37/2 30/39/31 31/40/32
f 2/37/2 31/40/32 6/41/6
f 6/41/6 31/40/32 17/42/18
f 31/40/32 30/39/31 32/43/33
f 32/43/33 30/39/31 33/44/34
f 32/43/33 33/44/34 34/45/35
f 32/43/33 34/45/35 31/40/32
f 31/40/32 34/45/35 35/46/36
f 31/40/32 35/46/36 17/42/18
f 17/42/18 35/46/36 16/47/17
f 16/47/17 35/46/36 36/48/37
f 37/49/38 38/50/39 39/51/40
f 37/49/38 39/51/40 20/52/21
f 37/49/38 20/52/21 40/53/41
f 37/49/38 40/53/41 41/54/42
f 41/54/42 40/53/41 42/55/43
f 42/55/43 40/53/41 20/52/21
f 41/54/42 42/55/43 43/56/44
f 43/56/44 42/55/43 20/52/21
f 41/54/42 43/56/44 44/57/45
f 43/56/44 20/52/21 45/58/46
f 45/58/46 20/52/21 46/59/47
f 46/59/47 20/52/21 47/60/48
f 47/60/48 20/52/21 19/61/20
f 46/59/47 47/60/48 48/62/49
f 47/60/48 19/61/20 21/63/22
f 47/60/48 21/63/22 48/62/49
f 38/64/39 49/65/50 39/66/40
f 1/67/1 20/68/21 39/66/40
f 1/67/1 39/66/40 29/69/30
f 29/69/30 39/66/40 50/70/51
f 50/70/51 39/66/40 49/65/50
f 29/69/30 50/70/51 30/71/31
f 49/65/50 38/64/39 51/72/52
f 30/71/31 50/70/51 52/73/53
f 52/73/53 50/70/51 49/65/50
f 52/73/53 49/65/50 51/72/52
f 30/71/31 52/73/53 33/74/34
f 33/74/34 52/73/53 51/72/52
f 33/74/34 51/72/52 34/75/35
f 51/72/52 38/64/39 53/76/54
f 51/72/52 53/76/54 54/77/55
f 51/72/52 54/77/55 55/78/56
f 7/79/57 9/80/58 56/81/59
f 9/80/58 7/79/57 6/82/60
f 56/81/59 9/80/58 6/83/61
f 56/81/59 6/83/61 7/79/57
f 37/84/38 57/85/62 58/86/63
f 37/84/38 58/86/63 38/87/39
f 58/86/63 57/85/62 59/88/64
f 38/87/39 58/86/63 60/89/65
f 60/89/65 58/86/63 59/88/64
f 38/87/39 60/89/65 53/90/54
f 59/88/64 57/85/62 44/91/45
f 44/91/45 57/85/62 37/84/38
f 59/88/64 44/91/45 60/89/65
f 44/91/45 37/84/38 41/92/42
f 53/90/54 60/89/65 61/93/66
f 53/90/54 61/93/66 54/94/55
f 60/89/65 44/91/45 62/95/67
f 63/96/68 64/97/69 61/93/66
f 63/96/68 61/93/66 65/98/70
f 65/98/70 61/93/66 60/89/65
f 60/89/65 62/95/67 66/99/71
f 60/89/65 66/99/71 65/98/70
f 62/95/67 44/91/45 67/100/72
f 62/95/67 67/100/72 66/99/71
f 67/100/72 44/91/45 68/101/73
f 68/101/73 44/91/45 43/102/44
f 66/99/71 67/100/72 69/103/74
f 69/103/74 67/100/72 68/101/73
f 66/99/71 69/103/74 65/98/70
f 69/103/74 68/101/73 70/104/75
f 69/103/74 70/104/75 65/98/70
f 48/105/49 21/106/22 71/107/76
f 36/108/37 35/109/36 72/110/77
f 36/108/37 72/110/77 73/111/78
f 72/110/77 35/109/36 74/112/79
f 72/110/77 74/112/79 73/111/78
f 74/112/79 35/109/36 75/113/80
f 75/113/80 35/109/36 34/114/35
f 75/113/80 34/114/35 76/115/81
f 73/111/78 74/112/79 77/116/82
f 73/111/78 77/116/82 36/108/37
f 77/116/82 74/112/79 75/113/80
f 36/108/37 77/116/82 78/117/83
f 78/117/83 77/116/82 75/113/80
f 36/108/37 78/117/83 16/118/17
f 16/118/17 78/117/83 15/119/16
f 15/119/16 78/117/83 79/120/84
f 79/120/84 78/117/83 80/121/85
f 80/121/85 78/117/83 81/122/86
f 81/122/86 78/117/83 75/113/80
f 80/121/85 81/122/86 79/123/87
f 79/123/87 81/122/86 82/124/88
f 81/122/86 75/113/80 83/125/89
f 81/122/86 83/125/89 82/124/88
f 83/125/89 75/113/80 84/126/90
f 82/124/88 83/125/89 85/127/91
f 83/125/89 84/126/90 86/128/92
f 83/125/89 86/128/92 85/127/91
f 43/129/44 45/130/46 46/131/47
f 43/129/44 46/131/47 87/132/93
f 88/133/94 46/134/47 48/135/49
f 46/136/47 89/137/95 87/138/93
f 89/137/95 46/136/47 90/139/96
f 90/139/96 46/136/47 88/140/94
f 87/138/93 89/137/95 91/141/97
f 87/138/93 91/141/97 43/142/44
f 43/142/44 91/141/97 68/143/73
f 55/144/56 34/145/35 51/146/52
f 34/145/35 55/144/56 76/147/81
f 54/148/55 61/149/66 55/144/56
f 55/144/56 61/149/66 76/147/81
f 76/147/81 61/149/66 64/150/69
f 76/147/81 64/150/69 92/151/98
f 76/147/81 92/151/98 93/152/99
f 94/153/100 95/154/101 93/152/99
f 93/152/99 95/154/101 96/155/102
f 93/152/99 96/155/102 76/147/81
f 96/155/102 95/154/101 86/156/92
f 96/155/102 86/156/92 84/157/90
f 96/155/102 84/157/90 76/147/81
f 76/147/81 84/157/90 75/158/80
f 12/159/13 97/160/103 27/161/28
f 27/161/28 97/160/103 28/162/29
f 28/162/29 97/160/103 98/163/104
f 98/163/104 97/160/103 25/164/26
f 98/163/104 25/164/26 28/162/29
f 28/162/29 25/164/26 24/165/25
f 25/164/26 97/160/103 99/166/105
f 25/164/26 99/166/105 100/167/106
f 25/164/26 100/167/106 101/168/107
f 100/167/106 99/166/105 102/169/108
f 100/167/106 102/169/108 101/168/107
f 103/170/109 12/171/13 15/172/16
f 12/171/13 103/170/109 97/173/103
f 103/170/109 15/172/16 82/174/88
f 103/170/109 82/174/88 97/173/103
f 82/174/88 15/172/16 79/175/84
f 97/173/103 82/174/88 104/176/110
f 104/176/110 82/174/88 105/177/111
f 97/173/103 104/176/110 106/178/112
f 105/177/111 82/174/88 86/179/92
f 86/179/92 82/174/88 85/180/91
f 104/176/110 105/177/111 107/181/113
f 104/176/110 107/181/113 106/178/112
f 107/181/113 105/177/111 86/179/92
f 97/173/103 106/178/112 102/182/108
f 102/182/108 106/178/112 107/181/113
f 102/182/108 107/181/113 86/179/92
f 97/173/103 102/182/108 99/183/105
f 102/182/108 86/179/92 95/184/101
f 108/185/114 71/186/76 21/187/22
f 108/185/114 21/187/22 23/188/24
f 108/185/114 23/188/24 109/189/115
f 108/185/114 109/189/115 71/186/76
f 109/189/115 23/188/24 110/190/116
f 71/186/76 109/189/115 111/191/117
f 111/191/117 109/189/115 110/190/116
f 71/186/76 111/191/117 88/192/94
f 111/191/117 110/190/116 101/193/107
f 101/193/107 110/190/116 25/194/26
f 111/191/117 101/193/107 112/195/118
f 112/195/118 101/193/107 102/196/108
f 111/191/117 112/195/118 113/197/119
f 113/197/119 112/195/118 114/198/120
f 111/191/117 113/197/119 115/199/121
f 89/200/95 116/201/122 91/202/97
f 116/201/122 89/200/95 117/203/123
f 117/203/123 89/200/95 90/204/96
f 48/205/49 71/206/76 88/207/94
f 116/208/122 68/209/73 91/210/97
f 116/211/122 118/212/124 68/213/73
f 118/212/124 116/211/122 119/214/125
f 118/212/124 119/214/125 120/215/126
f 120/215/126 119/214/125 121/216/127
f 121/216/127 119/214/125 122/217/128
f 121/216/127 122/217/128 123/218/129
f 120/215/126 121/216/127 124/219/130
f 121/216/127 123/218/129 125/220/131
f 124/219/130 121/216/127 126/221/132
f 126/221/132 121/216/127 125/220/131
f 124/219/130 126/221/132 127/222/133
f 127/222/133 126/221/132 125/220/131
f 124/219/130 127/222/133 120/215/126
f 127/222/133 125/220/131 123/218/129
f 120/215/126 127/222/133 128/223/134
f 128/223/134 127/222/133 123/218/129
f 88/224/94 115/225/121 90/226/96
f 115/225/121 88/224/94 111/227/117
f 90/226/96 115/225/121 129/228/135
f 90/226/96 129/228/135 130/229/136
f 90/226/96 130/229/136 131/230/137
f 131/230/137 130/229/136 132/231/138
f 133/232/139 117/233/123 90/226/96
f 133/232/139 90/226/96 131/230/137
f 133/232/139 131/230/137 134/234/140
f 134/234/140 131/230/137 135/235/141
f 134/234/140 135/235/141 117/236/142
f 117/236/142 135/235/141 131/230/137
f 134/234/140 117/236/142 133/237/143
f 117/236/142 131/230/137 136/238/144
f 133/239/145 134/240/146 137/241/147
f 137/241/147 134/240/146 138/242/148
f 137/241/147 138/242/148 139/243/149
f 139/243/149 138/242/148 134/244/150
f 137/241/147 139/243/149 133/245/151
f 133/245/151 139/243/149 134/244/150
f 138/246/152 133/247/152 134/248/152
f 133/249/153 117/250/153 137/251/153
f 140/252/154 141/253/155 117/254/156
f 140/252/154 117/254/156 142/255/157
f 142/255/157 117/254/156 143/256/158
f 143/256/158 117/254/156 144/257/159
f 144/257/159 117/254/156 145/258/160
f 145/258/160 117/254/156 141/259/161
f 141/260/162 144/261/162 145/262/162
f 136/263/144 141/264/163 117/265/142
f 146/266/164 147/267/165 141/268/166
f 146/266/164 141/268/166 143/269/167
f 141/268/166 147/267/165 148/270/168
f 148/270/168 147/267/165 140/271/154
f 148/270/168 140/271/154 142/272/157
f 148/273/168 117/274/123 141/275/166
f 117/274/123 148/273/168 146/276/164
f 117/274/123 146/276/164 116/277/122
f 147/278/165 143/279/158 140/280/154
f 143/279/158 147/278/165 142/281/157
f 142/281/157 147/278/165 146/282/164
f 142/281/157 146/282/164 148/283/168
f 136/284/144 145/285/169 141/286/163
f 145/285/169 136/284/144 132/287/138
f 132/287/138 136/284/144 131/288/137
f 145/285/169 132/287/138 144/289/170
f 144/289/170 132/287/138 141/290/171
f 141/290/171 132/287/138 143/291/172
f 143/291/172 132/287/138 146/292/164
f 146/292/164 132/287/138 116/293/122
f 143/294/158 144/295/159 141/296/173
f 141/297/155 140/298/154 143/299/174
f 143/300/175 140/301/175 146/302/175
f 132/303/176 135/304/176 136/305/176
f 132/306/138 130/307/136 116/308/122
f 82/309/177 80/310/177 79/311/177
f 68/312/73 120/313/126 70/314/75
f 120/313/126 68/312/73 118/315/124
f 70/314/75 120/313/126 149/316/178
f 70/314/75 149/316/178 65/317/70
f 149/316/178 120/313/126 150/318/179
f 65/317/70 149/316/178 151/319/180
f 151/319/180 149/316/178 150/318/179
f 65/317/70 151/319/180 63/320/68
f 151/319/180 150/318/179 152/321/181
f 130/322/136 122/323/128 116/324/122
f 116/324/122 122/323/128 119/325/125
f 110/326/116 23/327/24 25/328/26
f 123/329/129 122/330/128 130/331/136
f 123/329/129 130/331/136 129/332/135
f 123/329/129 129/332/135 153/333/182
f 153/333/182 129/332/135 154/334/183
f 154/334/183 129/332/135 155/335/184
f 155/335/184 129/332/135 115/336/121
f 155/335/184 115/336/121 113/337/119
f 155/335/184 113/337/119 114/338/120
f 92/339/98 64/340/69 63/341/68
f 92/339/98 63/341/68 156/342/185
f 156/342/185 63/341/68 151/343/180
f 156/342/185 151/343/180 152/344/181
f 92/339/98 156/342/185 94/345/100
f 92/339/98 94/345/100 93/346/99
f 156/342/185 152/344/181 157/347/186
f 156/342/185 157/347/186 94/345/100
f 157/347/186 152/344/181 114/348/120
f 94/345/100 157/347/186 95/349/101
f 95/349/101 157/347/186 114/348/120
f 95/349/101 114/348/120 102/350/108
f 102/350/108 114/348/120 112/351/118
f 123/352/129 153/353/182 128/354/134
f 128/354/134 153/353/182 158/355/187
f 128/354/134 158/355/187 159/356/188
f 128/354/134 159/356/188 120/357/126
f 120/357/126 159/356/188 158/355/187
f 120/357/126 158/355/187 150/358/179
f 150/358/179 158/355/187 153/353/182
f 150/358/179 153/353/182 159/359/189
f 150/358/179 159/359/189 152/360/181
f 152/360/181 159/359/189 153/353/182
f 152/360/181 153/353/182 154/361/183
f 152/360/181 154/361/183 155/362/184
f 152/360/181 155/362/184 114/363/120
