mtllib M_Earth_Bullet.mtl
o tripo_node_96ac6940-7165-4a84-a2f0-b1e20d21375d
g tripo_node_96ac6940-7165-4a84-a2f0-b1e20d21375d
usemtl tripo_material_96ac6940_7165_4a84_a2f0_b1e20d21375d
v 0.173904419 0.082328796 0.481353760
vt 0.788574219 0.257080078
vn 0.306630701 0.125797197 0.943479061
v 0.045803070 0.254577637 0.409881592
vt 0.739501953 0.193359375
vn 0.047273412 0.535765350 0.843042552
v -0.005194187 0.149627686 0.457794189
vt 0.783691406 0.188476562
vn -0.078786574 0.338782251 0.937560201
v -0.026138306 0.067115784 0.461578369
vt 0.813720703 0.189697266
vn -0.047138993 0.133560479 0.989918888
v -0.082046509 0.205642700 0.404327393
vt 0.767333984 0.153320312
vn -0.141281888 0.455241650 0.879087329
v -0.054660797 0.304290771 0.375091553
vt 0.729736328 0.152587891
vn -0.117597342 0.674224675 0.729103506
v -0.251068115 0.266784668 0.355194092
vt 0.759033203 0.087158203
vn -0.362801313 0.520541012 0.772924542
v -0.210327148 0.081436157 0.464355469
vt 0.827636719 0.125244141
vn -0.338919044 0.141873091 0.930056930
v -0.285980225 0.175125122 0.353271484
vt 0.793212891 0.078369141
vn -0.714897394 0.322096616 0.620625198
v -0.027866364 -0.092620850 0.489227295
vt 0.868408203 0.206542969
vn 0.007854076 -0.070686676 0.997467637
v 0.081787109 -0.116073608 0.448974609
vt 0.865966797 0.249023438
vn 0.221014351 -0.197334245 0.955097795
v -0.152725220 -0.210296631 0.452972412
vt 0.921142578 0.174316406
vn -0.259096622 -0.298353702 0.918615341
v 0.070228577 -0.267669678 0.434906006
vt 0.918457031 0.260742188
vn 0.094511643 -0.504062057 0.858480752
v -0.032146454 -0.258758545 0.421234131
vt 0.929199219 0.225341797
vn -0.086557850 -0.590167105 0.802627265
v -0.039546967 -0.330139160 0.376953125
vt 0.958251953 0.231689453
vn -0.133841664 -0.692827523 0.708573580
vt 0.880371094 0.096191406
vt 0.740966797 0.058105469
v -0.235427856 -0.064529419 0.408752441
vt 0.815917969 0.041503906
vn -0.540947735 -0.172476098 0.823181391
v -0.197067261 -0.188964844 0.423217773
vt 0.873535156 0.068847656
vn -0.583183646 -0.197021484 0.788085938
v -0.304351807 -0.143585205 0.357757568
vt 0.859375000 0.004638672
vn -0.648672462 -0.268961757 0.711957633
v -0.196563721 -0.256072998 0.390472412
vt 0.909423828 0.063720703
vn -0.447158515 -0.549142003 0.706039786
v -0.291381836 -0.240615845 0.316741943
vt 0.910644531 0.004150391
vn -0.732419729 -0.338645667 0.590661108
v -0.280792236 -0.319061279 0.288177490
vt 0.950927734 0.005126953
vn -0.542550743 -0.613318264 0.574002981
vt 0.961425781 0.131347656
vt 0.923095703 0.145996094
vt 0.888183594 0.501464844
vt 0.951416016 0.505615234
v 0.133361816 -0.228591919 0.423461914
vt 0.932128906 0.530273438
vn 0.274901122 -0.282755464 0.918955266
v 0.291351318 -0.153228760 0.403198242
vt 0.892822266 0.592773438
vn 0.495556325 -0.180917397 0.849525154
vt 0.800048828 0.526367188
v 0.332794189 0.071495056 0.339599609
vt 0.797363281 0.615722656
vn 0.863229811 0.102018066 0.494395256
v 0.276916504 0.162048340 0.353424072
vt 0.760253906 0.591308594
vn 0.803872645 0.315244168 0.504390657
v 0.301605225 -0.132263184 0.344482422
vt 0.882812500 0.617187500
vn 0.980822146 -0.125545233 0.149084970
v 0.293395996 -0.175140381 0.354888916
vt 0.900878906 0.613281250
vn 0.857842386 -0.393505692 0.330544770
v 0.302276611 -0.186920166 0.273468018
vt 0.903808594 0.647949219
vn 0.912481070 -0.251718938 0.322514862
v 0.330596924 -0.164184570 0.259552002
vt 0.894287109 0.655273438
vn 0.847143531 -0.078439213 0.525542736
v 0.317962646 -0.067703247 0.245925903
vt 0.853759766 0.657226562
vn 0.974928319 -0.117934883 0.188695803
v 0.355987549 0.076683044 0.257110596
vt 0.791992188 0.651123047
vn 0.911804259 0.039301910 0.408739835
v 0.328002930 -0.042552948 0.228713989
vt 0.842285156 0.664306641
vn 0.762527704 -0.055027775 0.644611061
v 0.420471191 0.093719482 0.152969360
vt 0.776367188 0.700683594
vn 0.790544748 0.118581720 0.600814044
v 0.438812256 0.092124939 0.138916016
vt 0.774902344 0.710205078
vn 0.995340109 -0.078995243 0.055296671
v 0.411529541 -0.131225586 0.151199341
vt 0.867919922 0.719238281
vn 0.966528416 -0.117869318 0.227880672
vt 0.130371094 0.000000000
vt 0.211425781 0.034667969
v -0.311523438 -0.117485046 0.367584229
vt 0.107177734 0.030517578
vn -0.707806170 -0.141561225 0.692077160
vt 0.094482422 0.025878906
v -0.346710205 0.075386047 0.345672607
vt 0.169677734 0.107666016
vn -0.820833802 0.110496864 0.560376942
vt 0.214843750 0.089111328
v -0.315093994 0.275024414 0.242095947
vt 0.255615234 0.113769531
vn -0.669685841 0.559384644 0.488476753
v -0.312072754 -0.144348145 0.303039551
vt 0.080566406 0.047119141
vn -0.946202695 -0.220780626 0.236550674
vt 0.062255859 0.009277344
v -0.317596436 -0.090385437 0.317565918
vt 0.104492188 0.057373047
vn -0.904558897 -0.212374702 0.369689316
v -0.339630127 -0.092018127 0.313018799
vt 0.100341797 0.066162109
vn -0.922834575 -0.260286689 0.283949077
v -0.356475830 -0.079307556 0.214401245
vt 0.079345703 0.109130859
vn -0.973455131 -0.086354896 0.211962014
v -0.334136963 -0.103713989 0.216506958
vt 0.070312500 0.094238281
vn -0.912933171 -0.314804554 0.259713739
v -0.316650391 -0.152420044 0.270446777
vt 0.065917969 0.060302734
vn -0.976347685 -0.118106581 0.181096748
v -0.313873291 -0.246688843 0.303649902
vt 0.045654297 0.026855469
vn -0.966230273 -0.204243779 0.157110602
v -0.319000244 -0.227050781 0.161010742
vt 0.015380859 0.068115234
vn -0.892889559 -0.289797515 0.344624072
v -0.344482422 -0.172103882 0.190185547
vt 0.039794922 0.083251953
vn -0.729462266 -0.305903524 0.611807048
v -0.361572266 -0.120605469 0.176971436
vt 0.055175781 0.106933594
vn -0.796040952 -0.086697534 0.599001110
v -0.410644531 -0.091789246 0.101272583
vt 0.039062500 0.142578125
vn -0.989674628 0.023563681 0.141382083
v -0.352691650 -0.013658524 0.197967529
vt 0.095214844 0.137695312
vn -0.955812752 0.031597115 0.292273313
v -0.404449463 0.088554382 0.060306549
vt 0.049316406 0.196533203
vn -0.978077292 0.126203522 0.165642112
v -0.351593018 0.067878723 0.304229736
vt 0.156738281 0.121337891
vn -0.998484433 0.000000000 0.055034574
v -0.358551025 0.204544067 0.239547729
vt 0.188720703 0.138671875
vn -0.968203902 0.102330483 0.228275701
v -0.367828369 0.081008911 0.178207397
vt 0.122558594 0.159912109
vn -0.973005533 0.070621364 0.219710916
v -0.351379395 0.125122070 0.156082153
vt 0.129394531 0.172363281
vn -0.989522040 0.054973446 0.133506939
v 0.226913452 0.278686523 0.361511230
vt 0.097900391 0.687988281
vn 0.457274497 0.536114931 0.709563911
vt 0.117431641 0.764648438
vt 0.024414062 0.753173828
v 0.015336037 0.335784912 0.324096680
vt 0.165771484 0.750732422
vn 0.078730397 0.724319637 0.684954405
vt 0.045898438 0.679687500
v 0.194992065 0.342193604 0.301422119
vt 0.135742188 0.681152344
vn 0.361711711 0.715560079 0.597610652
v 0.165832520 0.428222656 0.219009399
vt 0.184570312 0.666748047
vn 0.268785208 0.924937367 0.268785208
v 0.006727695 0.410919189 0.244796753
vt 0.206787109 0.730712891
vn -0.062861696 0.895779192 0.440031886
v 0.335876465 0.357513428 0.102828979
vt 0.156250000 0.581054688
vn 0.718565404 0.679083765 0.150030136
v 0.282836914 0.265472412 0.240203857
vt 0.088867188 0.632324219
vn 0.875400841 0.228708327 0.425870687
v 0.325988770 0.321441650 0.131515503
vt 0.137939453 0.587402344
vn 0.768704295 0.352976471 0.533386648
v 0.385925293 0.221252441 0.121238708
vt 0.066162109 0.567871094
vn 0.841763318 0.369746506 0.393347323
v 0.308166504 0.157257080 0.234802246
vt 0.042968750 0.628417969
vn 0.802155495 0.385349214 0.456127644
vt 0.002685547 0.669189453
vt 0.003417969 0.633300781
vt 0.000000000 0.581542969
v 0.345764160 0.223129272 0.156997681
vt 0.067871094 0.590332031
vn 0.773574412 0.149978727 0.615702093
v 0.419372559 0.137985229 0.135101318
vt 0.028564453 0.565917969
vn 0.881780446 0.456636280 0.118095599
vt 0.008056641 0.566162109
v 0.405181885 0.088928223 -0.058765411
vt 0.026367188 0.481933594
vn 0.980275393 0.118581705 -0.158108935
v 0.360687256 0.194046021 0.045410156
vt 0.066406250 0.532470703
vn 0.827670157 0.488719493 -0.275890023
v 0.370452881 0.222518921 0.092727661
vt 0.071533203 0.555419922
vn 0.984007955 0.125953019 -0.125953019
vt 0.663085938 0.573242188
vt 0.667968750 0.662597656
v 0.185470581 -0.339538574 0.348724365
vt 0.595947266 0.662597656
vn 0.345515430 -0.659620285 0.667472899
vt 0.667236328 0.700683594
v 0.013063431 -0.378753662 0.289245605
vt 0.588867188 0.756835938
vn 0.031603031 -0.774274290 0.632060647
vt 0.636474609 0.571533203
v 0.119079590 -0.444671631 0.232467651
vt 0.531494141 0.718750000
vn 0.204699025 -0.873907387 0.440890223
v 0.245834351 -0.354400635 0.250701904
vt 0.547119141 0.630859375
vn 0.581955969 -0.644870102 0.495449007
v 0.260833740 -0.265655518 0.298858643
vt 0.590576172 0.603515625
vn 0.700743973 -0.480285197 0.527526319
v 0.320526123 -0.372650146 0.147277832
vt 0.493408203 0.594482422
vn 0.564831793 -0.721729577 0.400089204
v -0.005140305 -0.488861084 0.074546814
vt 0.433349609 0.764648438
vn -0.007867676 -0.983459592 0.180956557
v 0.156158447 -0.461059570 0.122299194
vt 0.471679688 0.687255859
vn 0.275215417 -0.927869081 0.251625538
v 0.271545410 -0.417785645 0.088233948
vt 0.459472656 0.623779297
vn 0.597075582 -0.793481946 0.117843866
v 0.317260742 -0.374938965 0.103965759
vt 0.474609375 0.583496094
vn 0.906805873 -0.417919219 -0.055196878
v 0.329132080 -0.343902588 0.125213623
vt 0.492675781 0.575439453
vn 0.884305418 -0.465839446 0.031582337
v 0.304595947 -0.296173096 0.228073120
vt 0.549804688 0.585937500
vn 0.804022372 -0.370480925 0.465071768
v 0.313232422 -0.284271240 0.217453003
vt 0.547851562 0.577148438
vn 0.684487939 -0.354045510 0.637281895
v 0.375030518 -0.291229248 0.154281616
vt 0.516113281 0.545654297
vn 0.910707772 -0.408248305 0.062807433
v 0.308532715 -0.255645752 0.228988647
vt 0.561279297 0.569091797
vn 0.852616847 -0.236838028 0.465781420
vt 0.599365234 0.552978516
vt 0.596435547 0.533691406
v 0.372070312 -0.241348267 0.165359497
vt 0.530273438 0.535156250
vn 0.968954563 -0.228452697 0.094532155
v 0.341308594 -0.248001099 0.038524628
vt 0.480224609 0.492675781
vn 0.884553611 -0.410685599 -0.221138403
v 0.402587891 -0.170944214 0.153793335
vt 0.540771484 0.497314453
vn 0.890067339 -0.141780630 0.433218628
v 0.377929688 -0.199417114 0.102951050
vt 0.509765625 0.503173828
vn 0.818517089 -0.566665649 -0.094444282
vt 0.622558594 0.475830078
vt 0.550537109 0.478027344
vt 0.693603516 0.045410156
vt 0.693603516 0.139892578
vt 0.654296875 0.084228516
vt 0.516845703 0.277343750
vt 0.492187500 0.219726562
vt 0.547119141 0.220947266
vt 0.461181641 0.167236328
v 0.000874281 0.489318848 0.000497282
vt 0.380126953 0.057861328
vn -0.023615459 0.999721110 0.000000000
v -0.088798523 0.464508057 0.066108704
vt 0.439697266 0.054931641
vn -0.142195880 0.979571700 0.142195880
v -0.207489014 0.439605713 0.134323120
vt 0.519775391 0.046142578
vn -0.386282057 0.875047147 0.291682392
v -0.100326538 0.382629395 0.238433838
vt 0.513916016 0.135253906
vn -0.149848074 0.820220947 0.552071810
v -0.203552246 0.350036621 0.279388428
vt 0.578369141 0.125000000
vn -0.322425097 0.786402702 0.526889801
vt 0.638671875 0.157958984
vt 0.632812500 0.078125000
vt 0.689453125 0.145996094
vt 0.159423828 0.788085938
v -0.150253296 -0.428283691 0.256927490
vt 0.133056641 0.881835938
vn -0.221221194 -0.869083285 0.442442387
vt 0.088378906 0.799560547
vt 0.232177734 0.908203125
v -0.001811028 -0.430603027 0.237518311
vt 0.065429688 0.832275391
vn -0.015744127 -0.889543176 0.456579685
vt 0.005126953 0.914062500
vt 0.036621094 0.760009766
vt 0.999267578 0.544189453
vt 0.999267578 0.671386719
vt 0.972167969 0.634033203
vt 0.986083984 0.560302734
vt 0.973632812 0.607666016
vt 0.973388672 0.557128906
v -0.294342041 -0.273925781 0.243453979
vt 0.971923828 0.523437500
vn -0.941502333 -0.305988252 0.141225338
vt 0.806152344 1.000000000
vt 0.814941406 0.951171875
vt 0.843750000 0.990478516
v -0.300598145 -0.331329346 0.154251099
vt 0.855224609 0.911621094
vn -0.915117919 -0.205112636 0.347113729
v -0.304901123 -0.381164551 0.109123230
vt 0.892089844 0.902099609
vn -0.685336828 -0.701091766 0.196935877
vt 0.960449219 0.997314453
v -0.204467773 -0.411071777 0.184204102
vt 0.938232422 0.951171875
vn -0.512925267 -0.812789261 0.276190519
v -0.201889038 -0.483734131 0.000883102
vt 0.977539062 0.864990234
vn -0.315597177 -0.946791589 0.063119434
vt 0.436523438 0.152099609
vt 0.353759766 0.136230469
vt 0.387451172 0.079589844
v -0.367736816 0.275634766 0.176956177
vt 0.308593750 0.108154297
vn -0.852191985 0.481330663 0.205157325
vt 0.308837891 0.154052734
vt 0.187011719 0.147216797
vt 0.778076172 0.879150391
vt 0.801757812 0.859130859
vt 0.792968750 0.924316406
vt 0.745849609 0.916503906
v -0.377624512 -0.249679565 0.115043640
vt 0.780761719 0.959472656
vn -0.827747285 -0.512414992 0.228615910
vt 0.261230469 0.116210938
vt 0.306152344 0.053466797
vt 0.322509766 0.096435547
vt 0.551269531 0.995849609
vt 0.484375000 0.956054688
vt 0.570068359 0.916503906
v 0.002081871 -0.488525391 -0.072830200
vt 0.609130859 0.999755859
vn 0.007867676 -0.983459592 -0.180956557
v -0.163162231 -0.462707520 -0.110534668
vt 0.615722656 0.929687500
vn -0.213260561 -0.947824717 -0.236956179
v -0.118904114 -0.444732666 -0.231918335
vt 0.665771484 0.943603516
vn -0.149490505 -0.881207168 -0.448471487
v -0.006257057 -0.430511475 -0.238433838
vt 0.678710938 0.985351562
vn 0.007901005 -0.892813563 -0.450357288
v -0.009985924 -0.381652832 -0.285522461
vt 0.703613281 0.984130859
vn -0.031603031 -0.774274290 -0.632060647
v -0.185531616 -0.339813232 -0.348388672
vt 0.718750000 0.909423828
vn -0.331531882 -0.655170202 -0.678851008
v -0.247116089 -0.355682373 -0.245773315
vt 0.675537109 0.884765625
vn -0.590697765 -0.630077600 -0.504062057
v -0.206008911 -0.410675049 -0.196334839
vt 0.650146484 0.906250000
vn -0.432160854 -0.832891822 -0.345728695
v -0.319702148 -0.373840332 -0.149627686
vt 0.635498047 0.862060547
vn -0.627282202 -0.658646286 -0.415574461
v -0.271453857 -0.416961670 -0.089645386
vt 0.606201172 0.879150391
vn -0.606374443 -0.787499249 -0.110249899
vt 0.549804688 0.872070312
v -0.307434082 -0.293060303 -0.224105835
vt 0.675292969 0.849121094
vn -0.754410207 -0.345771372 -0.557949185
v -0.321441650 -0.370391846 -0.117759705
vt 0.625000000 0.856689453
vn -0.910876215 -0.384766668 0.149195239
v -0.315795898 -0.372344971 -0.068244934
vt 0.612792969 0.855468750
vn -0.943595648 -0.330258459 0.023589890
v -0.325408936 -0.342834473 -0.126892090
vt 0.632324219 0.848388672
vn -0.890067339 -0.448972017 -0.078767024
v -0.341979980 -0.265197754 -0.058506012
vt 0.628173828 0.816650391
vn -0.852510631 -0.410468042 0.323638290
v -0.354827881 -0.316192627 -0.151138306
vt 0.643066406 0.834716797
vn -0.748309970 -0.661663532 -0.047261681
v -0.377777100 -0.282287598 -0.153198242
vt 0.650878906 0.822021484
vn -0.945556283 -0.323065042 0.039398178
vt 0.452148438 0.920898438
vt 0.422119141 0.931884766
vt 0.461181641 0.884521484
v -0.412292480 -0.177261353 0.122154236
vt 0.420898438 0.883789062
vn -0.912594080 -0.204546943 0.354023576
vt 0.394042969 0.923339844
v -0.409301758 -0.120727539 0.111373901
vt 0.394775391 0.876953125
vn -0.990071774 0.062861696 0.125723392
vt 0.380371094 0.872558594
v -0.386535645 -0.181091309 0.055572510
vt 0.428955078 0.848876953
vn -0.915459812 -0.363027185 -0.173621699
v -0.386688232 -0.160842896 0.059677124
vt 0.416015625 0.852050781
vn -0.935038924 -0.078574702 -0.345728695
v -0.372406006 -0.168624878 0.021553040
vt 0.415771484 0.835937500
vn -0.992218375 -0.102371730 0.070872739
vt 0.292480469 0.856201172
v -0.372283936 -0.211685181 0.064926147
vt 0.446777344 0.850585938
vn -0.851000726 -0.464898527 -0.244268730
v -0.340148926 -0.258880615 -0.000085741
vt 0.452636719 0.812255859
vn -0.929508567 -0.346596420 -0.126035064
v -0.326629639 -0.268798828 0.011075974
vt 0.486083984 0.844970703
vn -0.922289610 -0.378375232 -0.078828178
v -0.318206787 -0.322723389 0.117759705
vt 0.507080078 0.887939453
vn -0.943858385 -0.330350399 0.000000000
vt 0.510742188 0.903076172
vt 0.534667969 0.894775391
vt 0.479492188 0.573974609
vt 0.441894531 0.584716797
vt 0.415039062 0.542724609
vt 0.421630859 0.588867188
v -0.369903564 0.158798218 0.103668213
vt 0.399414062 0.575195312
vn -0.989949524 0.141421348 0.000000000
vt 0.370605469 0.622802734
v -0.344665527 0.195205688 -0.013578415
vt 0.358154297 0.546630859
vn -0.988699138 0.149089560 0.015693637
v -0.356658936 0.298828125 0.091056824
vt 0.346679688 0.595703125
vn -0.946026325 0.323225647 0.023650657
v -0.258666992 0.406127930 0.028482437
vt 0.283691406 0.598388672
vn -0.605605006 0.794364989 0.047189999
vt 0.280761719 0.647705078
v -0.359924316 0.191635132 -0.041244507
vt 0.355224609 0.534179688
vn -0.822675884 0.493605494 0.282060266
v -0.417724609 0.140060425 -0.132949829
vt 0.358154297 0.485839844
vn -0.878600240 0.462834060 -0.117669679
v -0.384338379 0.223770142 -0.121154785
vt 0.324218750 0.516113281
vn -0.875047147 0.386282057 -0.291682392
v -0.369842529 0.222946167 -0.093193054
vt 0.330078125 0.525390625
vn -0.988699138 0.109855458 0.102008641
v -0.337554932 0.355468750 -0.102561951
vt 0.293457031 0.534179688
vn -0.737669110 0.635651052 -0.227578759
v -0.359497070 0.231903076 -0.141036987
vt 0.313720703 0.508300781
vn -0.757386148 0.276130348 -0.591707945
v -0.286865234 0.274230957 -0.222412109
vt 0.271240234 0.488769531
vn -0.875400841 0.228708327 -0.425870687
v -0.227905273 0.274414062 -0.362182617
vt 0.223876953 0.438720703
vn -0.440235764 0.581740141 -0.683937669
v -0.165664673 0.428070068 -0.218658447
vt 0.206298828 0.525634766
vn -0.260036051 0.866786838 -0.425513566
v -0.008091927 0.338531494 -0.322326660
vt 0.138916016 0.475830078
vn -0.086547136 0.723848760 -0.684509099
v -0.182815552 0.431457520 -0.077667236
vt 0.236572266 0.573974609
vn -0.339161426 0.938609540 -0.063099802
vt 0.180664062 0.636230469
vt 0.225585938 0.643798828
v 0.372589111 -0.167327881 -0.027851105
vt 0.604003906 0.386474609
vn 0.993512928 -0.094620280 -0.063080184
vt 0.501464844 0.502441406
vt 0.515136719 0.395019531
vt 0.518310547 0.374267578
v 0.398376465 -0.179824829 0.058998108
vt 0.563476562 0.370605469
vn 0.992741704 -0.102425724 -0.063031219
vt 0.544921875 0.350341797
v 0.388092041 -0.177307129 -0.058692932
vt 0.618164062 0.371582031
vn 0.905624151 -0.409499615 0.110249899
vt 0.581054688 0.317626953
v 0.325408936 -0.262359619 0.023296356
vt 0.591308594 0.311767578
vn 0.954384506 -0.291836590 0.063099802
v 0.338714600 -0.264678955 0.001795053
vt 0.600830078 0.317138672
vn 0.958996177 -0.235818744 0.157212481
vt 0.588867188 0.239257812
vt 0.581054688 0.250488281
vt 0.564208984 0.254638672
vt 0.997070312 0.402099609
vt 0.974121094 0.369140625
vt 0.995849609 0.342773438
vt 0.010498047 0.320068359
vt 0.043945312 0.360351562
vt 0.000732422 0.327148438
vt 0.026367188 0.362548828
v 0.355865479 0.281127930 -0.075004578
vt 0.070800781 0.292480469
vn 0.996392548 0.070610493 0.047073662
v 0.344909668 0.195098877 0.013672829
vt 0.024902344 0.290527344
vn 0.984587669 0.173287436 -0.023630103
vt 0.015136719 0.299560547
vt 0.000000000 0.243408203
v 0.370544434 0.158828735 -0.102478027
vt 0.048828125 0.250732422
vn 0.989918888 0.141416982 -0.007856499
v 0.368225098 0.274993896 -0.176223755
vt 0.095947266 0.263671875
vn 0.826336265 0.472192168 -0.306924909
v 0.351074219 0.128250122 -0.156005859
vt 0.054199219 0.227050781
vn 0.988851368 0.047088161 -0.141264468
v 0.368713379 0.081390381 -0.176986694
vt 0.046142578 0.208251953
vn 0.974085629 0.078555293 -0.212099299
v 0.353363037 -0.012314796 -0.197540283
vt 0.034423828 0.173828125
vn 0.953583896 0.031523433 -0.299472630
v 0.348419189 0.079475403 -0.326782227
vt 0.089843750 0.170898438
vn 0.988851368 -0.047088161 -0.141264468
v 0.358306885 0.197357178 -0.245407104
vt 0.096191406 0.224609375
vn 0.944852650 0.149601668 -0.291329563
v 0.342956543 0.072235107 -0.348632812
vt 0.094726562 0.163330078
vn 0.716779888 0.165410742 -0.677396357
v 0.284118652 0.173889160 -0.354370117
vt 0.130615234 0.188476562
vn 0.737964630 0.329728872 -0.588801563
v 0.251037598 0.262817383 -0.357818604
vt 0.168945312 0.229980469
vn 0.495449007 0.581955969 -0.644870102
v 0.210510254 0.437805176 -0.133453369
vt 0.144531250 0.335205078
vn 0.432200879 0.880118132 -0.196454927
v 0.314392090 0.336059570 -0.107673645
vt 0.099365234 0.303710938
vn 0.693537116 0.709299326 -0.126097649
vt 0.062500000 0.439941406
v 0.088844299 0.464843750 -0.064300537
vt 0.158935547 0.386718750
vn 0.181411937 0.978046954 -0.102537170
vt 0.166015625 0.428222656
vt 0.094238281 0.491699219
vt 0.134277344 0.887939453
vt 0.071044922 0.976074219
vt 0.008056641 0.921386719
vt 0.719726562 0.366699219
v 0.202148438 -0.483703613 -0.000027401
vt 0.792968750 0.379882812
vn 0.298694521 -0.951106191 -0.078603819
vt 0.746582031 0.437011719
vt 0.747314453 0.264648438
vt 0.837890625 0.260253906
v 0.304992676 -0.381713867 -0.106536865
vt 0.857666016 0.463378906
vn 0.722419083 -0.667452395 -0.180604771
vt 0.739746094 0.472900391
v 0.321990967 -0.327148438 0.027349472
vt 0.790283203 0.504150391
vn 0.976771593 -0.204806939 -0.063017525
v 0.318786621 -0.323211670 -0.118370056
vt 0.869140625 0.495605469
vn 0.922260940 -0.386246055 0.015765145
v 0.301666260 -0.331359863 -0.153823853
vt 0.886962891 0.490478516
vn 0.912594080 -0.204546943 -0.354023576
v 0.282012939 -0.318939209 -0.286499023
vt 0.967285156 0.466064453
vn 0.566490293 -0.605829954 -0.558622360
v 0.294708252 -0.274169922 -0.241516113
vt 0.944580078 0.500244141
vn 0.943741560 -0.298851490 -0.141561225
v 0.153717041 -0.428039551 -0.259216309
vt 0.943359375 0.366455078
vn 0.212223753 -0.872475386 -0.440167755
vt 0.952636719 0.268798828
v 0.208328247 -0.409698486 -0.185043335
vt 0.900634766 0.402587891
vn 0.519814014 -0.811224878 -0.267782986
vt 0.270019531 0.844482422
vt 0.303222656 0.874755859
vt 0.310791016 0.904052734
v 0.327758789 -0.269073486 -0.007110596
vt 0.316162109 0.902832031
vn 0.884305418 -0.442152709 0.150016099
v 0.385925293 -0.197830200 -0.071678162
vt 0.302246094 0.958496094
vn 0.865953863 -0.440849245 0.236169249
vt 0.370849609 0.876953125
vt 0.486816406 0.340332031
vt 0.434570312 0.335937500
vt 0.441894531 0.320800781
vt 0.353027344 0.251220703
vt 0.490966797 0.237792969
vt 0.458007812 0.176513672
vt 0.325683594 0.203613281
v -0.322937012 -0.268157959 -0.026000977
vt 0.405517578 0.335205078
vn -0.969074905 -0.236359730 0.070907913
vt 0.313720703 0.270996094
vt 0.382568359 0.362792969
v -0.343414307 -0.240081787 -0.003612041
vt 0.431640625 0.353271484
vn -0.872367680 -0.487268418 -0.039295841
vt 0.483886719 0.397460938
v -0.348876953 -0.232482910 -0.051681519
vt 0.399169922 0.379150391
vn -0.860189795 -0.473498970 0.189399585
v -0.397338867 -0.179977417 -0.068267822
vt 0.407226562 0.435302734
vn -0.929364443 -0.362294614 0.070883729
v -0.405120850 -0.173156738 -0.152252197
vt 0.370849609 0.484863281
vn -0.912820041 -0.173121050 -0.369849503
vt 0.335693359 0.440185547
vt 0.321777344 0.426513672
vt 0.970214844 0.362548828
vt 0.988281250 0.306884766
vt 0.992675781 0.324462891
vt 0.993896484 0.439697266
v -0.412445068 -0.120491028 -0.151458740
vt 0.996337891 0.523925781
vn -0.966528416 -0.117869318 -0.227880672
v -0.386962891 -0.170104980 -0.078460693
vt 0.981933594 0.484375000
vn -0.983459592 0.007867676 0.180956557
vt 0.972900391 0.518066406
vt 0.975830078 0.479492188
vt 0.617919922 0.554931641
vt 0.667968750 0.538330078
vt 0.671142578 0.551757812
v 0.394897461 -0.218170166 -0.118759155
vt 0.690429688 0.518066406
vn 0.859280646 -0.449348569 -0.244382560
vt 0.626220703 0.498291016
v 0.411895752 -0.145996094 -0.114784241
vt 0.710449219 0.553222656
vn 0.984862804 0.000000000 -0.173335865
vt 0.668945312 0.566894531
vt 0.743896484 0.677734375
v 0.364562988 -0.173751831 -0.172561646
vt 0.732421875 0.515869141
vn 0.826669157 -0.173206881 -0.535366654
v 0.363098145 -0.122619629 -0.177734375
vt 0.744628906 0.529785156
vn 0.716491044 -0.244079366 -0.653502762
v 0.322479248 -0.173553467 -0.209259033
vt 0.749267578 0.486816406
vn 0.889653444 -0.330667645 -0.314921588
v 0.320404053 -0.226577759 -0.159439087
vt 0.712402344 0.473144531
vn 0.859520972 -0.315420538 -0.402161181
v 0.376678467 -0.253662109 -0.114166260
vt 0.680419922 0.496093750
vn 0.826233983 -0.511478186 -0.236066848
vt 0.665039062 0.450439453
vt 0.684570312 0.432128906
vt 0.720947266 0.418945312
vt 0.984130859 0.672363281
vt 0.931152344 0.674072266
vt 0.951171875 0.608154297
v 0.354034424 -0.079254150 -0.220123291
vt 0.945068359 0.696044922
vn 0.969646811 -0.086716384 -0.228615910
vt 0.968261719 0.698486328
vt 0.871337891 0.712890625
vt 0.899658203 0.661621094
v 0.340545654 -0.091461182 -0.312957764
vt 0.930419922 0.728515625
vn 0.925554276 -0.243154094 -0.290216178
v 0.334686279 -0.104118347 -0.216079712
vt 0.953857422 0.706542969
vn 0.936891675 -0.204699025 -0.283429414
vt 0.982666016 0.714111328
v 0.313598633 -0.135757446 -0.302703857
vt 0.944091797 0.741455078
vn 0.942082524 -0.180565819 -0.282624722
vt 0.981689453 0.736328125
v 0.314056396 -0.247406006 -0.302337646
vt 0.966796875 0.774902344
vn 0.967754304 -0.196698025 -0.157358423
v 0.292907715 -0.240371704 -0.314941406
vt 0.959960938 0.779541016
vn 0.768349886 -0.329292804 -0.548821330
vt 1.000000000 0.755371094
vt 0.988281250 0.785888672
v -0.004656792 0.412536621 -0.242019653
vt 0.363037109 0.747314453
vn 0.070925526 0.898390055 -0.433433801
vt 0.409667969 0.703125000
vt 0.440673828 0.810546875
vt 0.398193359 0.821533203
vt 0.329833984 0.719970703
vt 0.346191406 0.841796875
v 0.111640930 0.388275146 -0.227584839
vt 0.333984375 0.784667969
vn 0.149522886 0.826310694 -0.543004096
v 0.204818726 0.349243164 -0.281005859
vt 0.291259766 0.797851562
vn 0.197211415 0.804622591 -0.560080409
v 0.058101654 0.307159424 -0.373504639
vt 0.295410156 0.727050781
vn 0.126035050 0.677438319 -0.724701524
vt 0.243896484 0.785888672
v -0.043552399 0.255493164 -0.409454346
vt 0.300537109 0.679931641
vn -0.047273412 0.535765350 -0.843042552
vt 0.359375000 0.632812500
v 0.083168030 0.208938599 -0.402496338
vt 0.257324219 0.710937500
vn 0.141785026 0.448985934 -0.882218003
v 0.006538391 0.149505615 -0.457092285
vt 0.252685547 0.666992188
vn 0.078786574 0.338782251 -0.937560201
v 0.230621338 0.200561523 -0.393432617
vt 0.225341797 0.759765625
vn 0.392485917 0.408185363 -0.824220479
vt 0.205322266 0.779541016
vt 0.159423828 0.780517578
vt 0.978271484 0.474121094
vt 0.978271484 0.396484375
vt 0.989990234 0.403076172
vt 0.289062500 0.282958984
v -0.438476562 0.094291687 -0.138244629
vt 0.268066406 0.274902344
vn -0.995340109 -0.078995243 -0.055296671
vt 0.311523438 0.201171875
vt 0.209472656 0.160888672
vt 0.188720703 0.240966797
v -0.328094482 -0.043056488 -0.227951050
vt 0.195068359 0.301513672
vn -0.769628227 -0.054973446 -0.636121273
vt 0.173339844 0.236083984
v -0.416381836 0.093742371 -0.157241821
vt 0.264404297 0.287353516
vn -0.796436846 0.126168206 -0.591413498
v -0.308776855 0.153991699 -0.234909058
vt 0.286621094 0.342041016
vn -0.801659822 0.377251685 -0.463705182
vt 0.327636719 0.300781250
vt 0.329101562 0.316162109
v -0.355316162 0.074928284 -0.260284424
vt 0.247558594 0.329833984
vn -0.914719522 0.039427567 -0.402161181
v -0.317230225 -0.076164246 -0.249435425
vt 0.184814453 0.314208984
vn -0.974326193 -0.110004567 -0.196436718
vt 0.333007812 0.364257812
v -0.329528809 0.071197510 -0.342041016
vt 0.244384766 0.365234375
vn -0.861209452 0.102713048 -0.497763246
v -0.299865723 -0.134292603 -0.353729248
vt 0.151855469 0.341064453
vn -0.977712393 -0.118271664 -0.173465118
v -0.276000977 0.162185669 -0.353790283
vt 0.279052734 0.392333984
vn -0.811778963 0.307372630 -0.496525019
vt 0.314697266 0.425048828
v -0.173492432 0.084266663 -0.480987549
vt 0.251464844 0.450195312
vn -0.299481928 0.126097649 -0.945732474
v -0.289459229 -0.149124146 -0.402923584
vt 0.194824219 0.409912109
vn -0.505002677 -0.213047996 -0.836410701
vt 0.328613281 0.503417969
vt 0.940917969 0.780273438
v -0.380889893 -0.234497070 -0.155014038
vt 0.918457031 0.756103516
vn -0.711957633 -0.174034089 -0.680315018
vt 0.906982422 0.734375000
vt 0.869140625 0.754394531
v -0.335235596 -0.227294922 -0.204421997
vt 0.892822266 0.775390625
vn -0.757503986 -0.291954666 -0.583909333
v -0.329895020 -0.163513184 -0.260284424
vt 0.877685547 0.815185547
vn -0.865578473 -0.070820048 -0.495740384
vt 0.901855469 0.852783203
vt 0.884033203 0.846923828
vt 0.833007812 0.845458984
v -0.300964355 -0.212631226 -0.267974854
vt 0.860351562 0.796875000
vn -0.907426655 -0.236720011 -0.347189337
v -0.293914795 -0.178115845 -0.349365234
vt 0.827880859 0.823486328
vn -0.877011418 -0.339743167 -0.339743167
v -0.263000488 -0.259002686 -0.301605225
vt 0.828613281 0.776855469
vn -0.723848641 -0.495678961 -0.479943126
vt 0.833984375 0.721923828
vt 0.807617188 0.844238281
vt 0.847900391 0.908203125
vt 0.778564453 0.734375000
v -0.119590759 -0.233245850 -0.426177979
vt 0.733154297 0.790039062
vn -0.284179032 -0.284179032 -0.915688038
v -0.071891785 -0.267120361 -0.433807373
vt 0.711669922 0.771972656
vn -0.094321661 -0.479468465 -0.872475386
vt 0.708496094 0.679199219
v -0.087844849 -0.128524780 -0.443878174
vt 0.710693359 0.838134766
vn -0.228502318 -0.196984753 -0.953406274
vt 0.726074219 0.913330078
vt 0.632812500 0.427734375
vt 0.632812500 0.405273438
vt 0.685302734 0.425292969
v 0.038745880 -0.332550049 -0.374267578
vt 0.651367188 0.373535156
vn 0.157774061 -0.686317146 -0.709983289
v -0.017042160 -0.300659180 -0.404083252
vt 0.634033203 0.357910156
vn -0.063054711 -0.725129128 -0.685719907
vt 0.616943359 0.342285156
v 0.035934448 -0.256256104 -0.422637939
vt 0.652587891 0.343505859
vn 0.078867391 -0.599392176 -0.796560645
v 0.150924683 -0.213150024 -0.453216553
vt 0.691162109 0.328857422
vn 0.227613792 -0.345345080 -0.910455167
v 0.225570679 -0.279968262 -0.353271484
vt 0.714843750 0.369140625
vn 0.449083477 -0.543627322 -0.709079206
v 0.200485229 -0.176025391 -0.422241211
vt 0.713623047 0.327148438
vn 0.597980440 -0.188835934 -0.778948188
v 0.028549194 -0.090858459 -0.489013672
vt 0.654785156 0.283935547
vn -0.023542631 -0.078475438 -0.996638060
vt 0.614013672 0.295898438
vt 0.592041016 0.222412109
v 0.186096191 0.058151245 -0.466796875
vt 0.711669922 0.240966797
vn 0.268324435 -0.031567581 -0.962811232
v 0.235534668 -0.064552307 -0.409362793
vt 0.730224609 0.291992188
vn 0.496247619 -0.173292831 -0.850710213
v 0.212142944 0.076644897 -0.465698242
vt 0.720703125 0.235839844
vn 0.378234297 0.189117149 -0.906186342
v 0.026332855 0.066314697 -0.460876465
vt 0.660400391 0.231445312
vn 0.047138993 0.133560479 -0.989918888
vt 0.655273438 0.203857422
vt 0.642089844 0.164062500
vt 0.685546875 0.182373047
vt 0.733154297 0.189941406
vt 0.643066406 0.772216797
vt 0.614501953 0.777099609
vt 0.635498047 0.758789062
vt 0.693115234 0.830566406
vt 0.703857422 0.777832031
vt 0.629394531 0.807617188
v 0.293060303 -0.146240234 -0.364196777
vt 0.578613281 0.793457031
vn 0.495679021 -0.291113079 -0.818263769
vt 0.589599609 0.835693359
vt 0.549560547 0.822753906
vt 0.492187500 0.822509766
v 0.311889648 -0.117774963 -0.367675781
vt 0.568115234 0.785156250
vn 0.808570862 -0.133453444 -0.573064864
vt 0.578857422 0.759765625
vt 0.500732422 0.756591797
vt 0.500000000 0.768066406
vt 0.445312500 0.802734375
f 1/1/1 2/2/2 3/3/3
f 1/1/1 3/3/3 4/4/4
f 3/3/3 2/2/2 5/5/5
f 5/5/5 2/2/2 6/6/6
f 5/5/5 6/6/6 7/7/7
f 3/3/3 5/5/5 8/8/8
f 8/8/8 5/5/5 7/7/7
f 3/3/3 8/8/8 4/4/4
f 8/8/8 7/7/7 9/9/9
f 1/1/1 4/4/4 10/10/10
f 10/10/10 4/4/4 8/8/8
f 1/1/1 10/10/10 11/11/11
f 10/10/10 8/8/8 12/12/12
f 11/11/11 10/10/10 13/13/13
f 13/13/13 10/10/10 12/12/12
f 13/13/13 12/12/12 14/14/14
f 13/13/13 14/14/14 15/15/15
f 12/16/12 8/17/8 16/18/16
f 12/16/12 16/18/16 17/19/17
f 17/19/17 16/18/16 18/20/18
f 17/19/17 18/20/18 19/21/19
f 17/19/17 19/21/19 12/16/12
f 19/21/19 18/20/18 20/22/20
f 19/21/19 20/22/20 21/23/21
f 19/21/19 21/23/21 15/24/15
f 19/21/19 15/24/15 12/16/12
f 12/16/12 15/24/15 14/25/14
f 11/26/11 13/27/13 22/28/22
f 11/26/11 22/28/22 23/29/23
f 11/26/11 23/29/23 1/30/1
f 1/30/1 23/29/23 24/31/24
f 1/30/1 24/31/24 25/32/25
f 24/31/24 23/29/23 26/33/26
f 26/33/26 23/29/23 27/34/27
f 26/33/26 27/34/27 28/35/28
f 26/33/26 28/35/28 29/36/29
f 24/31/24 26/33/26 30/37/30
f 30/37/30 26/33/26 29/36/29
f 24/31/24 30/37/30 31/38/31
f 30/37/30 29/36/29 32/39/32
f 30/37/30 32/39/32 31/38/31
f 31/38/31 32/39/32 33/40/33
f 33/40/33 32/39/32 34/41/34
f 34/41/34 32/39/32 35/42/35
f 16/43/16 8/44/8 36/45/36
f 16/43/16 36/45/36 18/46/18
f 36/45/36 8/44/8 37/47/37
f 37/47/37 8/44/8 9/48/9
f 37/47/37 9/48/9 38/49/38
f 18/46/18 36/45/36 39/50/39
f 18/46/18 39/50/39 20/51/20
f 36/45/36 37/47/37 40/52/40
f 36/45/36 40/52/40 39/50/39
f 40/52/40 37/47/37 41/53/41
f 40/52/40 41/53/41 39/50/39
f 41/53/41 37/47/37 42/54/42
f 39/50/39 41/53/41 43/55/43
f 43/55/43 41/53/41 42/54/42
f 39/50/39 43/55/43 44/56/44
f 39/50/39 44/56/44 45/57/45
f 45/57/45 44/56/44 46/58/46
f 46/58/46 44/56/44 47/59/47
f 47/59/47 44/56/44 43/55/43
f 47/59/47 43/55/43 48/60/48
f 48/60/48 43/55/43 42/54/42
f 48/60/48 42/54/42 49/61/49
f 49/61/49 42/54/42 50/62/50
f 49/61/49 50/62/50 51/63/51
f 50/62/50 42/54/42 52/64/52
f 52/64/52 42/54/42 37/47/37
f 52/64/52 37/47/37 53/65/53
f 50/62/50 52/64/52 54/66/54
f 54/66/54 52/64/52 55/67/55
f 56/68/56 2/69/2 1/70/1
f 2/69/2 56/68/56 57/71/57
f 56/68/56 1/70/1 25/72/25
f 57/71/57 56/68/56 58/73/58
f 57/71/57 58/73/58 59/74/59
f 57/71/57 59/74/59 60/75/60
f 59/74/59 58/73/58 61/76/61
f 61/76/61 58/73/58 56/68/56
f 61/76/61 56/68/56 62/77/62
f 62/77/62 56/68/56 25/72/25
f 61/76/61 62/77/62 63/78/63
f 63/78/63 62/77/62 64/79/64
f 62/77/62 25/72/25 65/80/65
f 65/80/65 25/72/25 24/81/24
f 65/80/65 24/81/24 31/82/31
f 65/80/65 31/82/31 33/83/33
f 62/77/62 65/80/65 66/84/66
f 62/77/62 66/84/66 64/79/64
f 64/79/64 66/84/66 65/80/65
f 65/80/65 33/83/33 67/85/67
f 65/80/65 67/85/67 64/79/64
f 67/85/67 33/83/33 34/86/34
f 67/85/67 34/86/34 68/87/68
f 67/85/67 68/87/68 69/88/69
f 67/85/67 69/88/69 64/79/64
f 64/79/64 69/88/69 70/89/70
f 23/90/23 22/91/22 71/92/71
f 71/92/71 22/91/22 13/93/13
f 71/92/71 13/93/13 72/94/72
f 23/90/23 71/92/71 27/95/27
f 71/92/71 72/94/72 73/96/73
f 71/92/71 73/96/73 74/97/74
f 27/95/27 71/92/71 75/98/75
f 75/98/75 71/92/71 74/97/74
f 74/97/74 73/96/73 76/99/76
f 74/97/74 76/99/76 75/98/75
f 77/100/77 78/101/78 73/96/73
f 73/96/73 78/101/78 76/99/76
f 76/99/76 78/101/78 79/102/79
f 76/99/76 79/102/79 80/103/80
f 76/99/76 80/103/80 81/104/81
f 75/98/75 76/99/76 82/105/82
f 82/105/82 76/99/76 81/104/81
f 75/98/75 82/105/82 27/95/27
f 82/105/82 81/104/81 83/106/83
f 83/106/83 81/104/81 84/107/84
f 27/95/27 82/105/82 85/108/85
f 85/108/85 82/105/82 83/106/83
f 27/95/27 85/108/85 28/109/28
f 28/109/28 85/108/85 29/110/29
f 83/106/83 84/107/84 86/111/86
f 86/111/86 84/107/84 87/112/87
f 85/108/85 83/106/83 88/113/88
f 85/108/85 88/113/88 29/110/29
f 88/113/88 83/106/83 86/111/86
f 88/113/88 86/111/86 89/114/89
f 29/110/29 88/113/88 32/115/32
f 32/115/32 88/113/88 35/116/35
f 72/117/72 13/118/13 15/119/15
f 2/120/2 57/121/57 6/122/6
f 6/122/6 57/121/57 60/123/60
f 90/124/90 91/125/91 60/123/60
f 60/123/60 91/125/91 92/126/92
f 6/122/6 60/123/60 93/127/93
f 93/127/93 60/123/60 92/126/92
f 6/122/6 93/127/93 94/128/94
f 94/128/94 93/127/93 92/126/92
f 6/122/6 94/128/94 7/129/7
f 94/128/94 92/126/92 38/130/38
f 94/128/94 38/130/38 7/129/7
f 7/129/7 38/130/38 9/131/9
f 15/132/15 95/133/95 72/134/72
f 95/133/95 15/132/15 21/135/21
f 72/134/72 95/133/95 96/136/96
f 96/136/96 95/133/95 77/137/77
f 72/134/72 96/136/96 73/138/73
f 37/139/37 38/140/38 53/141/53
f 20/142/20 39/143/39 45/144/45
f 20/142/20 45/144/45 97/145/97
f 20/146/20 97/147/97 21/148/21
f 21/148/21 97/147/97 98/149/98
f 21/148/21 98/149/98 99/150/99
f 21/148/21 99/150/99 95/151/95
f 95/151/95 99/150/99 100/152/100
f 95/151/95 100/152/100 101/153/101
f 101/153/101 100/152/100 99/150/99
f 52/154/52 53/155/53 55/156/55
f 55/156/55 53/155/53 102/157/102
f 102/157/102 53/155/53 38/158/38
f 102/157/102 38/158/38 92/159/92
f 97/160/97 45/161/45 46/162/46
f 97/160/97 46/162/46 98/163/98
f 98/163/98 46/162/46 103/164/103
f 77/165/77 73/166/73 96/167/96
f 77/168/77 95/169/95 101/170/101
f 77/168/77 101/170/101 104/171/104
f 104/171/104 101/170/101 105/172/105
f 104/171/104 105/172/105 106/173/106
f 104/171/104 106/173/106 107/174/107
f 107/174/107 106/173/106 108/175/108
f 108/175/108 106/173/106 109/176/109
f 109/176/109 106/173/106 110/177/110
f 106/173/106 105/172/105 111/178/111
f 106/173/106 111/178/111 110/177/110
f 111/178/111 105/172/105 101/170/101
f 110/177/110 111/178/111 112/179/112
f 111/178/111 101/170/101 113/180/113
f 111/178/111 113/180/113 112/179/112
f 113/180/113 101/170/101 99/181/99
f 110/177/110 112/179/112 114/182/114
f 112/179/112 113/180/113 115/183/115
f 115/183/115 113/180/113 116/184/116
f 112/179/112 115/183/115 117/185/117
f 112/179/112 117/185/117 114/182/114
f 117/185/117 115/183/115 118/186/118
f 117/185/117 118/186/118 119/187/119
f 117/185/117 119/187/119 114/182/114
f 114/182/114 119/187/119 120/188/120
f 46/189/46 47/190/47 103/191/103
f 103/191/103 47/190/47 121/192/121
f 121/192/121 47/190/47 48/193/48
f 121/192/121 48/193/48 122/194/122
f 122/194/122 48/193/48 49/195/49
f 121/192/121 122/194/122 123/196/123
f 121/192/121 123/196/123 103/191/103
f 122/194/122 49/195/49 124/197/124
f 122/194/122 124/197/124 123/196/123
f 124/197/124 49/195/49 125/198/125
f 124/197/124 125/198/125 123/196/123
f 125/198/125 49/195/49 51/199/51
f 103/191/103 123/196/123 126/200/126
f 126/200/126 123/196/123 127/201/127
f 103/191/103 126/200/126 128/202/128
f 103/191/103 128/202/128 129/203/129
f 103/191/103 129/203/129 98/204/98
f 98/204/98 129/203/129 99/205/99
f 50/206/50 54/207/54 51/208/51
f 51/208/51 54/207/54 55/209/55
f 51/208/51 55/209/55 130/210/130
f 130/210/130 55/209/55 102/211/102
f 51/208/51 130/210/130 131/212/131
f 130/210/130 102/211/102 132/213/132
f 130/210/130 132/213/132 131/212/131
f 132/213/132 102/211/102 133/214/133
f 133/214/133 102/211/102 92/215/92
f 51/208/51 131/212/131 134/216/134
f 51/208/51 134/216/134 135/217/135
f 135/217/135 134/216/134 136/218/136
f 134/216/134 131/212/131 137/219/137
f 137/219/137 131/212/131 132/213/132
f 134/216/134 137/219/137 136/218/136
f 137/219/137 132/213/132 138/220/138
f 137/219/137 138/220/138 136/218/136
f 138/220/138 132/213/132 133/214/133
f 136/218/136 138/220/138 139/221/139
f 139/221/139 138/220/138 140/222/140
f 140/222/140 138/220/138 141/223/141
f 141/223/141 138/220/138 142/224/142
f 141/223/141 142/224/142 143/225/143
f 138/220/138 133/214/133 144/226/144
f 138/220/138 144/226/144 142/224/142
f 144/226/144 133/214/133 92/215/92
f 142/224/142 144/226/144 90/227/90
f 144/226/144 92/215/92 91/228/91
f 144/226/144 91/228/91 90/227/90
f 145/229/145 34/230/34 35/231/35
f 145/229/145 35/231/35 88/232/88
f 145/229/145 88/232/88 146/233/146
f 146/233/146 88/232/88 89/234/89
f 145/229/145 146/233/146 147/235/147
f 147/235/147 146/233/146 89/234/89
f 147/235/147 89/234/89 87/236/87
f 147/235/147 87/236/87 148/237/148
f 147/235/147 148/237/148 149/238/149
f 149/238/149 148/237/148 80/239/80
f 80/239/80 148/237/148 87/236/87
f 80/239/80 87/236/87 81/240/81
f 81/240/81 87/236/87 84/241/84
f 87/242/87 89/243/89 86/244/86
f 70/245/70 61/246/61 64/247/64
f 64/247/64 61/246/61 63/248/63
f 61/246/61 70/245/70 150/249/150
f 150/249/150 70/245/70 151/250/151
f 151/250/151 70/245/70 69/251/69
f 151/250/151 69/251/69 68/252/68
f 150/249/150 151/250/151 152/253/152
f 152/253/152 151/250/151 68/252/68
f 61/246/61 150/249/150 153/254/153
f 153/254/153 150/249/150 152/253/152
f 152/253/152 68/252/68 154/255/154
f 152/253/152 154/255/154 153/254/153
f 154/255/154 68/252/68 155/256/155
f 155/256/155 68/252/68 156/257/156
f 154/255/154 155/256/155 157/258/157
f 154/255/154 157/258/157 158/259/158
f 154/255/154 158/259/158 153/254/153
f 158/259/158 157/258/157 159/260/159
f 158/259/158 159/260/159 160/261/160
f 158/259/158 160/261/160 153/254/153
f 153/254/153 160/261/160 161/262/161
f 153/254/153 161/262/161 162/263/162
f 153/254/153 162/263/162 163/264/163
f 153/254/153 163/264/163 61/246/61
f 61/246/61 163/264/163 162/263/162
f 61/246/61 162/263/162 59/265/59
f 59/265/59 162/263/162 164/266/164
f 59/265/59 164/266/164 90/267/90
f 59/265/59 90/267/90 60/268/60
f 145/269/145 68/270/68 34/271/34
f 78/272/78 165/273/165 79/274/79
f 165/273/165 78/272/78 77/275/77
f 165/273/165 77/275/77 104/276/104
f 79/274/79 165/273/165 166/277/166
f 79/274/79 166/277/166 80/278/80
f 80/278/80 166/277/166 167/279/167
f 167/279/167 166/277/166 168/280/168
f 168/280/168 166/277/166 169/281/169
f 169/281/169 166/277/166 170/282/170
f 169/281/169 170/282/170 171/283/171
f 170/282/170 166/277/166 172/284/172
f 165/273/165 104/276/104 172/284/172
f 172/284/172 104/276/104 107/285/107
f 173/286/173 166/277/166 165/273/165
f 173/286/173 165/273/165 172/284/172
f 173/286/173 172/284/172 166/277/166
f 80/287/80 167/288/167 149/289/149
f 149/289/149 167/288/167 174/290/174
f 149/289/149 174/290/174 175/291/175
f 174/290/174 167/288/167 168/292/168
f 126/293/126 127/294/127 128/295/128
f 128/295/128 127/294/127 116/296/116
f 128/295/128 116/296/116 129/297/129
f 129/297/129 116/296/116 99/298/99
f 99/298/99 116/296/116 113/299/113
f 116/296/116 127/294/127 176/300/176
f 116/296/116 176/300/176 115/301/115
f 115/301/115 176/300/176 118/302/118
f 176/300/176 127/294/127 177/303/177
f 176/300/176 177/303/177 118/302/118
f 177/303/177 127/294/127 123/304/123
f 177/303/177 123/304/123 178/305/178
f 177/303/177 178/305/178 118/302/118
f 178/305/178 123/304/123 179/306/179
f 178/305/178 179/306/179 180/307/180
f 178/305/178 180/307/180 120/308/120
f 178/305/178 120/308/120 118/302/118
f 118/302/118 120/308/120 119/309/119
f 179/310/179 123/311/123 125/312/125
f 125/313/125 181/314/181 182/315/182
f 182/315/182 181/314/181 180/316/180
f 182/315/182 180/316/180 179/317/179
f 149/318/149 175/319/175 147/320/147
f 147/320/147 175/319/175 183/321/183
f 183/321/183 175/319/175 174/322/174
f 147/320/147 183/321/183 184/323/184
f 147/320/147 184/323/184 145/324/145
f 145/324/145 184/323/184 68/325/68
f 184/323/184 183/321/183 185/326/185
f 184/323/184 185/326/185 186/327/186
f 185/326/185 183/321/183 187/328/187
f 187/328/187 183/321/183 188/329/188
f 183/321/183 174/322/174 189/330/189
f 183/321/183 189/330/189 188/329/188
f 189/330/189 174/322/174 168/331/168
f 189/330/189 168/331/168 169/332/169
f 189/330/189 169/332/169 188/329/188
f 188/329/188 169/332/169 171/333/171
f 184/334/184 156/335/156 68/336/68
f 156/335/156 184/334/184 190/337/190
f 190/337/190 184/334/184 186/338/186
f 156/335/156 190/337/190 157/339/157
f 156/335/156 157/339/157 155/340/155
f 157/339/157 190/337/190 191/341/191
f 190/337/190 186/338/186 192/342/192
f 190/337/190 192/342/192 191/341/191
f 192/342/192 186/338/186 185/343/185
f 157/339/157 191/341/191 193/344/193
f 193/344/193 191/341/191 192/342/192
f 193/344/193 192/342/192 185/343/185
f 193/344/193 185/343/185 187/345/187
f 193/344/193 187/345/187 194/346/194
f 193/344/193 194/346/194 195/347/195
f 194/346/194 187/345/187 188/348/188
f 195/347/195 194/346/194 171/349/171
f 171/349/171 194/346/194 188/348/188
f 196/350/196 142/351/142 90/352/90
f 196/350/196 90/352/90 164/353/164
f 142/351/142 196/350/196 143/354/143
f 196/350/196 164/353/164 162/355/162
f 196/350/196 162/355/162 197/356/197
f 197/356/197 162/355/162 198/357/198
f 196/350/196 197/356/197 199/358/199
f 196/350/196 199/358/199 143/354/143
f 199/358/199 197/356/197 198/357/198
f 198/357/198 162/355/162 161/359/161
f 198/357/198 161/359/161 199/358/199
f 143/354/143 199/358/199 200/360/200
f 143/354/143 200/360/200 141/361/141
f 200/360/200 199/358/199 201/362/201
f 201/362/201 199/358/199 161/359/161
f 200/360/200 201/362/201 202/363/202
f 201/362/201 161/359/161 203/364/203
f 203/364/203 161/359/161 160/365/160
f 203/364/203 160/365/160 159/366/159
f 125/367/125 182/368/182 179/369/179
f 135/370/135 204/371/204 51/372/51
f 51/372/51 204/371/204 125/373/125
f 125/373/125 204/371/204 181/374/181
f 181/374/181 204/371/204 205/375/205
f 181/374/181 205/375/205 180/376/180
f 204/371/204 135/370/135 206/377/206
f 204/371/204 206/377/206 205/375/205
f 206/377/206 135/370/135 207/378/207
f 207/378/207 135/370/135 136/379/136
f 207/378/207 136/379/136 139/380/139
f 205/375/205 206/377/206 208/381/208
f 208/381/208 206/377/206 207/378/207
f 205/375/205 208/381/208 209/382/209
f 207/378/207 139/380/139 140/383/140
f 209/382/209 208/381/208 210/384/210
f 210/384/210 208/381/208 207/378/207
f 209/382/209 210/384/210 211/385/211
f 207/378/207 140/383/140 212/386/212
f 207/378/207 212/386/212 210/384/210
f 212/386/212 140/383/140 141/387/141
f 210/384/210 212/386/212 213/388/213
f 213/388/213 212/386/212 141/387/141
f 210/384/210 213/388/213 214/389/214
f 213/388/213 141/387/141 200/390/200
f 180/391/180 215/392/215 120/393/120
f 120/393/120 215/392/215 114/394/114
f 114/394/114 215/392/215 180/391/180
f 114/394/114 180/391/180 216/395/216
f 216/395/216 180/391/180 217/396/217
f 217/396/217 180/391/180 205/397/205
f 217/396/217 205/397/205 209/398/209
f 217/396/217 209/398/209 211/399/211
f 216/395/216 217/396/217 218/400/218
f 216/395/216 218/400/218 114/394/114
f 218/400/218 217/396/217 211/399/211
f 114/394/114 218/400/218 219/401/219
f 219/401/219 218/400/218 211/399/211
f 114/394/114 219/401/219 220/402/220
f 114/394/114 220/402/220 110/403/110
f 219/401/219 211/399/211 214/404/214
f 219/401/219 214/404/214 220/402/220
f 214/404/214 211/399/211 210/405/210
f 110/403/110 220/402/220 109/406/109
f 109/406/109 220/402/220 214/404/214
f 109/406/109 214/404/214 221/407/221
f 109/406/109 221/407/221 222/408/222
f 109/406/109 222/408/222 108/409/108
f 222/408/222 221/407/221 223/410/223
f 223/410/223 221/407/221 214/404/214
f 223/410/223 214/404/214 213/411/213
f 107/412/107 108/413/108 172/414/172
f 172/414/172 108/413/108 224/415/224
f 224/415/224 108/413/108 225/416/225
f 225/416/225 108/413/108 222/417/222
f 224/415/224 225/416/225 226/418/226
f 226/418/226 225/416/225 222/417/222
f 224/415/224 226/418/226 227/419/227
f 227/419/227 226/418/226 222/417/222
f 224/415/224 227/419/227 228/420/228
f 228/420/228 227/419/227 229/421/229
f 227/419/227 222/417/222 230/422/230
f 230/422/230 222/417/222 223/423/223
f 230/422/230 223/423/223 213/424/213
f 229/421/229 227/419/227 231/425/231
f 231/425/231 227/419/227 230/422/230
f 229/421/229 231/425/231 232/426/232
f 232/426/232 231/425/231 233/427/233
f 231/425/231 230/422/230 234/428/234
f 234/428/234 230/422/230 213/424/213
f 231/425/231 234/428/234 233/427/233
f 234/428/234 213/424/213 202/429/202
f 234/428/234 202/429/202 233/427/233
f 202/429/202 213/424/213 200/430/200
f 233/427/233 202/429/202 201/431/201
f 233/427/233 201/431/201 203/432/203
f 170/433/170 195/434/195 171/435/171
f 224/436/224 170/433/170 172/437/172
f 170/433/170 224/436/224 228/438/228
f 170/433/170 228/438/228 195/434/195
f 195/434/195 228/438/228 235/439/235
f 235/439/235 228/438/228 229/440/229
f 235/439/235 229/440/229 232/441/232
f 235/439/235 232/441/232 233/442/233
f 195/434/195 235/439/235 236/443/236
f 236/443/236 235/439/235 233/442/233
f 195/434/195 236/443/236 193/444/193
f 193/444/193 236/443/236 157/445/157
f 157/445/157 236/443/236 159/446/159
f 159/446/159 236/443/236 233/442/233
f 159/446/159 233/442/233 203/447/203
