mtllib M_Fire_Bullet.mtl
o tripo_node_ba80686c-16ec-4c2d-9726-5f0902e9cf7a
g tripo_node_ba80686c-16ec-4c2d-9726-5f0902e9cf7a
usemtl tripo_material_ba80686c_16ec_4c2d_9726_5f0902e9cf7a
v 0.157516479 -0.113548279 0.431427002
vt 0.134277344 0.334228516
vn 0.268458217 -0.173708275 0.947499633
v 0.296752930 -0.050300598 0.419525146
vt 0.180419922 0.368408203
vn 0.536364973 0.000000000 0.843986094
v 0.204620361 0.071945190 0.479125977
vt 0.133300781 0.407958984
vn 0.228914857 0.142085075 0.963021159
v 0.363555908 -0.140380859 0.375488281
vt 0.215087891 0.339355469
vn 0.864241660 -0.125707880 0.487118006
v 0.350677490 0.056205750 0.309112549
vt 0.217041016 0.416992188
vn 0.824398339 0.227690950 0.518193185
v 0.257019043 0.076400757 0.414581299
vt 0.163574219 0.415283203
vn 0.748681664 0.204902336 0.630468786
v 0.310424805 0.147949219 0.335021973
vt 0.194091797 0.448242188
vn 0.842389107 0.228311062 0.488113314
v 0.315673828 0.248916626 0.233245850
vt 0.219238281 0.495605469
vn 0.835060000 0.267849416 0.480553389
v 0.271392822 0.258422852 0.350860596
vt 0.172607422 0.486816406
vn 0.520395339 0.575588822 0.630782247
v 0.151489258 0.251770020 0.363433838
vt 0.127441406 0.489990234
vn 0.173384309 0.630488336 0.756586015
v 0.150512695 0.404022217 0.224365234
vt 0.141113281 0.565917969
vn 0.157720059 0.883232355 0.441616178
vt 0.751708984 0.418212891
v 0.082420349 0.161849976 0.455047607
vt 0.813720703 0.392822266
vn -0.031613886 0.379366636 0.924706161
v 0.028049469 0.071662903 0.457183838
vt 0.827148438 0.436523438
vn -0.125487298 0.196073905 0.972526610
vt 0.794433594 0.332519531
v -0.028610229 0.066841125 0.449584961
vt 0.848632812 0.448974609
vn -0.023732660 0.229415715 0.973039150
v -0.254699707 0.097358704 0.444183350
vt 0.943847656 0.477050781
vn -0.086608805 0.291320533 0.952696860
v -0.021282196 0.072525024 0.450439453
vt 0.848144531 0.441162109
vn -0.071175709 0.458687931 0.885742247
v -0.257629395 0.194488525 0.388031006
vt 0.967041016 0.434082031
vn -0.094886132 0.498152196 0.861882329
v -0.080169678 0.171325684 0.394073486
vt 0.888671875 0.403076172
vn -0.172800347 0.392728031 0.903274477
v -0.148635864 0.246994019 0.351776123
vt 0.927734375 0.357666016
vn -0.165164992 0.487630010 0.857285023
v 0.052085876 0.238281250 0.417724609
vt 0.835449219 0.360351562
vn -0.102178648 0.448014081 0.888168275
v -0.029832840 0.302551270 0.368774414
vt 0.876464844 0.331542969
vn -0.054912515 0.776619852 0.627571642
v -0.123977661 0.327423096 0.284393311
vt 0.928710938 0.311035156
vn -0.055130076 0.842702568 0.535549283
vt 0.809814453 0.244628906
v -0.087501526 0.361663818 0.210403442
vt 0.913574219 0.263427734
vn -0.157951087 0.852935910 0.497545928
v -0.130310059 0.409973145 0.152389526
vt 0.935546875 0.232910156
vn -0.134338036 0.908757269 0.395111859
v 0.107772827 0.427337646 0.138488770
vt 0.833984375 0.209228516
vn 0.133395910 0.973005533 0.188323647
v 0.000345647 0.467163086 0.003145695
vt 0.889648438 0.155761719
vn -0.055019274 0.998206854 -0.023579689
v -0.015004158 -0.333984375 0.367156982
vt 0.509765625 0.386230469
vn -0.055219200 -0.702072680 0.709961176
v 0.149551392 -0.251037598 0.436096191
vt 0.443847656 0.340087891
vn 0.149448872 -0.464078039 0.873095989
v -0.016649246 -0.084938049 0.493469238
vt 0.546630859 0.262207031
vn 0.000000000 -0.125972539 0.992033720
vt 0.441162109 0.285644531
v 0.144882202 -0.425323486 0.233215332
vt 0.430175781 0.444824219
vn 0.078671902 -0.912594080 0.401226699
vt 0.436279297 0.209228516
vt 0.502441406 0.209472656
vt 0.516845703 0.202148438
vt 0.550048828 0.152832031
v -0.034397125 -0.410186768 0.167175293
vt 0.512695312 0.472167969
vn -0.047255814 -0.952992260 0.299286842
v -0.183792114 -0.197540283 0.449829102
vt 0.587646484 0.332519531
vn -0.245038241 -0.395222962 0.885299444
v -0.229202271 -0.030307770 0.454437256
vt 0.605468750 0.284912109
vn -0.338782251 -0.078786574 0.937560201
v -0.133605957 -0.378082275 0.292541504
vt 0.559082031 0.429199219
vn 0.000000000 -0.858880281 0.512176275
v -0.170669556 -0.286010742 0.360687256
vt 0.583007812 0.395996094
vn -0.276121765 -0.639024675 0.717916667
v -0.253112793 -0.242126465 0.362579346
vt 0.611083984 0.372802734
vn -0.464898467 -0.472778141 0.748565376
v -0.220840454 -0.402343750 0.253356934
vt 0.587646484 0.453857422
vn -0.227972209 -0.904027700 0.361611098
v -0.306457520 -0.329833984 0.270507812
vt 0.626464844 0.428222656
vn -0.449642032 -0.702072680 0.552191973
v -0.306884766 -0.362670898 0.154220581
vt 0.632080078 0.477050781
vn -0.596799374 -0.753851771 0.274841785
v -0.154449463 -0.354064941 0.311004639
vt 0.572509766 0.419677734
vn -0.173384309 -0.630488336 0.756586015
v -0.165084839 -0.343475342 0.314361572
vt 0.576660156 0.419677734
v -0.158416748 -0.347595215 0.312255859
vt 0.574707031 0.418212891
vn -0.377660155 -0.605829835 0.700244904
vt 0.739990234 0.471435547
vt 0.654296875 0.383300781
vt 0.722900391 0.373046875
v -0.257965088 0.068794250 0.455474854
vt 0.665283203 0.374755859
vn -0.472866237 -0.157622069 0.866921365
v -0.278991699 -0.135665894 0.380065918
vt 0.744628906 0.308105469
vn -0.519685030 -0.291338593 0.803149581
vt 0.786132812 0.334960938
vt 0.790039062 0.282714844
v -0.354156494 -0.067550659 0.378906250
vt 0.692382812 0.302001953
vn -0.488113314 -0.228311062 0.842389107
v -0.317687988 0.074867249 0.409027100
vt 0.640380859 0.346435547
vn -0.588620126 -0.007848268 0.808371603
v -0.350616455 -0.292297363 0.280883789
vt 0.770507812 0.215576172
vn -0.723714232 -0.503453374 0.471987545
vt 0.802001953 0.216064453
v -0.359130859 -0.347503662 0.104530334
vt 0.844482422 0.164794922
vn -0.749870241 -0.623576283 0.221014380
v -0.365753174 -0.231979370 0.303680420
vt 0.746337891 0.234863281
vn -0.708859205 -0.346553385 0.614344656
v -0.421661377 -0.207550049 0.174407959
vt 0.708496094 0.178466797
vn -0.852271676 -0.434027255 0.291981965
v -0.413726807 -0.239334106 0.110588074
vt 0.720947266 0.152587891
vn -0.852935910 -0.497545928 0.157951087
v -0.401214600 -0.131027222 0.314453125
vt 0.700195312 0.252929688
vn -0.714192450 -0.353172094 0.604316652
v -0.454956055 -0.153060913 0.163589478
vt 0.677490234 0.177734375
vn -0.890647769 -0.252218843 0.378328234
v -0.400939941 -0.037513733 0.345306396
vt 0.666992188 0.284179688
vn -0.731445014 -0.086515002 0.676389992
v -0.414154053 0.075012207 0.342651367
vt 0.616210938 0.293212891
vn -0.757503986 0.291954666 0.583909333
v -0.408050537 -0.129608154 0.292633057
vt 0.694824219 0.243164062
vn -0.949903846 -0.062803559 0.306167334
v -0.413421631 0.068435669 0.331268311
vt 0.618896484 0.290527344
vn -0.986948013 0.031582337 0.157911688
v -0.449249268 -0.110816956 0.174011230
vt 0.659912109 0.189208984
vn -0.949815989 0.094196625 0.298289329
v -0.423828125 -0.004190922 0.202178955
vt 0.617675781 0.223876953
vn -0.980275512 0.197636187 0.000000000
v -0.411956787 0.073379517 0.172836304
vt 0.571533203 0.228759766
vn -0.965247810 0.172645956 0.196188569
v -0.469543457 0.077178955 0.059299469
vt 0.556640625 0.180664062
vn -0.973605216 0.172736421 0.149181455
v -0.318725586 0.078521729 0.403625488
vt 0.339843750 0.056884766
vn -0.527788162 0.401749194 0.748356342
vt 0.336181641 0.055419922
vt 0.332275391 0.018310547
vt 0.350341797 0.019775391
vt 0.414306641 0.043945312
vt 0.334472656 0.118896484
v -0.283325195 0.229690552 0.350769043
vt 0.431884766 0.071533203
vn -0.606205285 0.464494914 0.645569205
v -0.262756348 0.257446289 0.351623535
vt 0.450683594 0.048828125
vn -0.236756861 0.662919164 0.710270584
vt 0.464599609 0.013427734
vt 0.516601562 0.006103516
v -0.238784790 0.334320068 0.277740479
vt 0.500244141 0.042724609
vn -0.110086165 0.794193029 0.597610652
v -0.315612793 0.251647949 0.290771484
vt 0.452880859 0.109619141
vn -0.631469667 0.607789576 0.481495619
v -0.243072510 0.366638184 0.211547852
vt 0.507324219 0.087402344
vn -0.472792834 0.780108154 0.409753770
v -0.409271240 0.154907227 0.266967773
vt 0.389892578 0.145751953
vn -0.905736566 0.315038800 0.283534914
v -0.404571533 0.254394531 0.168304443
vt 0.443847656 0.192871094
vn -0.817176878 0.510735571 0.267153978
v -0.407958984 0.136276245 0.099166870
vt 0.387451172 0.244140625
vn -0.967874110 0.236066848 0.086557850
vt 0.350585938 0.203857422
vt 0.329101562 0.124755859
vt 0.342041016 0.272705078
v 0.346435547 -0.149429321 0.380371094
vt 0.570800781 0.681884766
vn 0.480836987 -0.331068069 0.811905026
vt 0.592285156 0.602539062
vt 0.645751953 0.625488281
vt 0.550537109 0.645263672
vt 0.557128906 0.684326172
v 0.258392334 -0.318176270 0.347229004
vt 0.649169922 0.688720703
vn 0.471695811 -0.676097274 0.566034913
vt 0.723144531 0.705566406
v 0.332183838 -0.332305908 0.200469971
vt 0.646728516 0.751953125
vn 0.581237495 -0.651928544 0.486982763
v 0.259246826 -0.374877930 0.178390503
vt 0.684326172 0.755126953
vn 0.425196856 -0.842519701 0.330708653
v 0.238189697 -0.456939697 0.005441666
vt 0.751220703 0.781982422
vn 0.251501143 -0.966707587 -0.047156468
v 0.395019531 -0.344940186 0.139785767
vt 0.640625000 0.787353516
vn 0.732011199 -0.519491792 0.440780938
v 0.330444336 -0.385864258 0.090026855
vt 0.673095703 0.799072266
vn 0.527477264 -0.842389107 0.110219136
v 0.378601074 -0.163223267 0.277191162
vt 0.565673828 0.727539062
vn 0.873555481 -0.306924909 0.377753735
v 0.456604004 -0.160705566 0.145446777
vt 0.549804688 0.790527344
vn 0.906383216 -0.338908523 0.252211004
v 0.396789551 -0.148193359 0.253784180
vt 0.547119141 0.735595703
vn 0.917823493 0.196116120 0.345164388
vt 0.483398438 0.687255859
v 0.395446777 -0.034202576 0.220108032
vt 0.085449219 0.295166016
vn 0.834438801 -0.007872064 0.551044464
vt 0.124023438 0.327392578
vt 0.044189453 0.312255859
v 0.479553223 0.080520630 0.133605957
vt 0.123046875 0.245605469
vn 0.955008507 0.126282111 0.268349469
v 0.459716797 -0.135665894 0.140991211
vt 0.043212891 0.261718750
vn 0.943829119 0.007865243 0.330340177
vt 0.643066406 0.812744141
vt 0.599853516 0.818115234
vt 0.567382812 0.805664062
vt 0.576904297 0.874023438
v -0.280639648 0.376037598 0.140487671
vt 0.542236328 0.793212891
vn -0.348002851 0.925371170 0.150273949
vt 0.537109375 0.878173828
vt 0.509521484 0.852539062
vt 0.420166016 0.840087891
v -0.188537598 0.407653809 -0.086936951
vt 0.452392578 0.743164062
vn -0.339573652 0.939750314 -0.039485309
v 0.382568359 0.330413818 0.101898193
vt 0.354736328 0.698730469
vn 0.753294587 0.627745509 0.196170464
v 0.251129150 0.369171143 0.167022705
vt 0.376464844 0.755126953
vn 0.424710006 0.857285023 0.291005015
vt 0.302001953 0.797851562
vt 0.392822266 0.800292969
vt 0.309326172 0.748291016
v 0.297149658 0.377746582 -0.032070160
vt 0.419677734 0.686035156
vn 0.496972799 0.867730260 0.007888457
v 0.240539551 0.412384033 -0.131195068
vt 0.465820312 0.673828125
vn 0.275710255 0.937414885 -0.212690786
vt 0.430419922 0.788085938
v 0.405609131 0.260864258 -0.168350220
vt 0.411621094 0.603027344
vn 0.685209394 0.677333415 -0.267782986
v 0.387115479 0.262084961 -0.084373474
vt 0.386718750 0.626708984
vn 0.988334119 0.149034515 -0.031375688
v 0.423583984 0.204956055 0.115821838
vt 0.304199219 0.682861328
vn 0.865524828 0.361946762 0.346209943
vt 0.225585938 0.746826172
vt 0.252441406 0.664062500
v 0.411529541 0.191711426 0.026859283
vt 0.335937500 0.643310547
vn 0.910118878 0.392292619 -0.133379489
v 0.407440186 0.139419556 -0.096115112
vt 0.350830078 0.592285156
vn 0.945233583 0.307200909 -0.110277250
v 0.469390869 0.078750610 -0.059600830
vt 0.313720703 0.586425781
vn 0.976771593 0.173298195 -0.126035050
v 0.455718994 -0.086051941 0.059547424
vt 0.232421875 0.582031250
vn 0.999225974 -0.039339606 0.000000000
v 0.417175293 0.074066162 -0.164489746
vt 0.347900391 0.554687500
vn 0.964179575 0.148938313 -0.219488040
vt 0.104980469 0.803222656
v -0.357025146 -0.351440430 0.101554871
vt 0.105468750 0.836181641
vn -0.745241284 -0.658950210 0.101980381
vt 0.086669922 0.742187500
vt 0.169189453 0.804199219
vt 0.107666016 0.835693359
v -0.308959961 -0.361267090 0.141723633
vt 0.090820312 0.807128906
vn -0.529996276 -0.822680771 0.205670193
v -0.279449463 -0.420959473 0.029544830
vt 0.052978516 0.833251953
vn -0.572447836 -0.807700336 0.141151503
v -0.233612061 -0.457305908 -0.002442598
vt 0.019042969 0.825927734
vn -0.205055207 -0.977955699 0.039433695
vt 0.001220703 0.716796875
v -0.323120117 -0.391082764 -0.083251953
vt 0.037841797 0.880126953
vn -0.506661534 -0.854991376 -0.110832214
v -0.394744873 -0.344970703 -0.139114380
vt 0.047119141 0.917236328
vn -0.705714166 -0.705714166 -0.062730148
v -0.261077881 -0.373840332 -0.177597046
vt 0.000000000 0.903808594
vn -0.416999817 -0.849735498 -0.322584748
vt 0.721435547 0.791015625
vt 0.687255859 0.868652344
vt 0.653808594 0.810791016
vt 0.745117188 0.822265625
v -0.308013916 0.371856689 0.010388374
vt 0.784423828 0.864746094
vn -0.465708852 0.884057522 0.039466854
v -0.266235352 0.363159180 -0.159332275
vt 0.859375000 0.869384766
vn -0.408437133 0.879710793 -0.243491381
v -0.397674561 0.284545898 0.078178406
vt 0.726806641 0.888183594
vn -0.755741537 0.645529211 0.110212311
v -0.388214111 0.255493164 0.077598572
vt 0.715820312 0.896972656
vn -0.984373987 0.173249826 0.031499967
vt 0.673339844 0.925781250
vt 0.128906250 0.385498047
vt 0.078369141 0.369384766
vt 0.127441406 0.337158203
vt 0.078369141 0.379882812
vt 0.077880859 0.886230469
vt 0.100097656 0.876220703
v -0.474700928 -0.163696289 0.119216919
vt 0.119628906 0.895507812
vn -0.903023839 -0.408323795 0.133490473
vt 0.100830078 0.858886719
vt 0.070068359 0.919433594
v -0.414520264 -0.232879639 0.107170105
vt 0.072998047 0.921630859
vn -0.824068189 -0.557227015 0.102027483
v -0.424224854 -0.259674072 -0.035663605
vt 0.104736328 0.978759766
vn -0.864508510 -0.495127589 0.086450852
v -0.458435059 -0.186508179 0.036098480
vt 0.137451172 0.932617188
vn -0.899535954 -0.418205351 -0.126250669
v -0.455688477 -0.159194946 -0.145477295
vt 0.224365234 0.943847656
vn -0.910146952 -0.251075029 -0.329535961
vt 0.354736328 0.576660156
v 0.421936035 -0.260986328 0.140594482
vt 0.367187500 0.540283203
vn 0.944852650 -0.322824627 -0.055116400
vt 0.385742188 0.498046875
v 0.424621582 -0.234848022 0.002629519
vt 0.322265625 0.476074219
vn 0.891839743 -0.449866056 -0.047354322
v 0.396575928 -0.336395264 0.131973267
vt 0.335205078 0.552490234
vn 0.915545404 -0.386739016 -0.110496864
v 0.469787598 -0.162261963 -0.049259186
vt 0.347900391 0.426513672
vn 0.989918888 -0.117847487 0.078564987
vt 0.407958984 0.493164062
vt 0.413574219 0.445068359
vt 0.481933594 0.478515625
vt 0.436767578 0.354492188
v 0.473602295 -0.162414551 -0.119125366
vt 0.332275391 0.392089844
vn 0.956693649 -0.133309767 -0.258777767
vt 0.410400391 0.305419922
v 0.444305420 -0.098190308 -0.186187744
vt 0.333496094 0.358398438
vn 0.975048900 0.086496279 -0.204445735
v 0.414947510 -0.231170654 -0.107292175
vt 0.288330078 0.416015625
vn 0.872610152 -0.487403870 -0.031445410
v 0.378692627 -0.344818115 0.072257996
vt 0.290771484 0.504882812
vn 0.836540937 -0.536648870 -0.110486530
v 0.357055664 -0.350799561 -0.101516724
vt 0.221435547 0.419189453
vn 0.724701524 -0.677438319 -0.126035050
v 0.410156250 -0.241943359 -0.112213135
vt 0.281494141 0.393554688
vn 0.818694592 -0.503812075 -0.275522232
v 0.418243408 -0.210037231 -0.178680420
vt 0.297607422 0.362548828
vn 0.858880401 -0.441259652 -0.260028005
v 0.354125977 -0.323516846 -0.179870605
vt 0.240478516 0.337158203
vn 0.731512904 -0.652855575 -0.196643233
vt 0.913085938 0.027099609
vt 0.899414062 0.000000000
vt 0.916748047 0.026367188
vt 0.895996094 0.046386719
vt 0.880371094 0.009033203
vt 0.945068359 0.043701172
vt 0.926757812 0.130371094
vt 0.882568359 0.128906250
vt 0.999023438 0.084228516
vt 0.991699219 0.013916016
v 0.309661865 -0.360992432 -0.145782471
vt 0.947509766 0.152099609
vn 0.550907910 -0.802751601 -0.228233293
v 0.219436646 -0.401580811 -0.254974365
vt 0.999755859 0.194091797
vn 0.252627224 -0.899984419 -0.355257034
vt 0.926513672 0.161621094
vt 0.899414062 0.159912109
vt 0.988525391 0.867431641
v -0.471527100 -0.095085144 0.103408813
vt 0.920654297 0.923828125
vn -0.984221458 0.062990174 0.165349200
vt 0.883056641 0.906250000
vt 0.898681641 0.950439453
v -0.471405029 -0.158538818 0.059600830
vt 0.923095703 0.963134766
vn -0.996086419 0.015810896 -0.086959928
v -0.456054688 -0.090095520 -0.059593201
vt 1.000000000 0.973388672
vn -0.998885930 -0.047191460 0.000000000
v -0.461669922 -0.158950806 -0.062374115
vt 0.970703125 1.000000000
vn -0.999102235 0.015733894 -0.039334733
vt 0.322998047 0.163330078
vt 0.264892578 0.084472656
vt 0.324951172 0.067382812
vt 0.326171875 0.064208984
vt 0.260986328 0.082275391
v -0.391204834 -0.298156738 -0.020734787
vt 0.279052734 0.006835938
vn -0.883177519 -0.449474245 0.134053722
vt 0.040283203 0.486328125
vt 0.118408203 0.480957031
v -0.002196312 -0.468261719 -0.000696957
vt 0.132812500 0.552734375
vn 0.000000000 -1.000000000 0.000000000
vt 0.551269531 0.971923828
vt 0.589843750 0.861328125
vt 0.651123047 0.941406250
v 0.034461975 -0.410491943 -0.164993286
vt 0.657226562 0.828857422
vn 0.047255814 -0.952992260 -0.299286842
vt 0.075195312 0.638183594
vt 0.069580078 0.624267578
v -0.379486084 0.310882568 -0.057613373
vt 0.134033203 0.606445312
vn -0.975169480 0.212335289 0.062914155
v -0.382507324 0.332427979 -0.103073120
vt 0.152587891 0.593750000
vn -0.639343083 0.765633106 -0.071038119
vt 0.090087891 0.561523438
v -0.426483154 0.208419800 -0.115516663
vt 0.166748047 0.653808594
vn -0.942925513 0.314308494 0.110007972
v -0.416290283 0.182922363 -0.023794174
vt 0.124755859 0.670410156
vn -0.911916912 0.385206282 0.141504347
vt 0.070800781 0.696044922
vt 0.098876953 0.736816406
v -0.460845947 0.114494324 -0.126068115
vt 0.175048828 0.695556641
vn -0.910034835 0.360875905 0.203973323
v -0.480865479 0.080139160 -0.132827759
vt 0.184814453 0.714355469
vn -0.935934961 0.173030004 -0.306735009
vt 0.163330078 0.799316406
v -0.471343994 -0.008535385 -0.135147095
vt 0.193603516 0.752685547
vn -0.988577425 -0.094150230 0.117687792
v -0.419097900 0.207839966 -0.119003296
vt 0.171875000 0.651611328
vn -0.731196284 0.298768371 -0.613261402
v -0.368469238 0.321105957 -0.129364014
vt 0.167480469 0.594238281
vn -0.701091766 0.496278435 -0.512033284
v -0.313934326 0.248718262 -0.238739014
vt 0.229980469 0.604248047
vn -0.860940754 0.221159101 -0.458115250
v -0.376922607 0.214767456 -0.163055420
vt 0.196777344 0.637207031
vn -0.724746525 0.354495585 -0.590825975
v -0.354644775 0.139541626 -0.239562988
vt 0.246093750 0.662353516
vn -0.773839653 0.371127188 -0.513260961
v -0.425018311 0.074234009 -0.206100464
vt 0.231933594 0.707275391
vn -0.790544748 0.118581720 -0.600814044
vt 0.785644531 0.870849609
vt 0.860839844 0.882568359
vt 0.788574219 0.967773438
v -0.145675659 -0.425537109 -0.231781006
vt 0.689697266 0.935302734
vn -0.086773030 -0.930837870 -0.354980588
vt 0.356689453 0.909912109
vt 0.341064453 0.840820312
vt 0.387695312 0.890869141
vt 0.407958984 0.978759766
vt 0.282714844 0.945312500
v -0.415954590 -0.279296875 -0.141250610
vt 0.436279297 0.949951172
vn -0.958996296 -0.282982498 -0.015721250
v -0.392700195 -0.333801270 -0.147125244
vt 0.416992188 0.979736328
vn -0.772324204 -0.386162102 -0.504374981
v -0.425170898 -0.230285645 -0.017047882
vt 0.406005859 0.882080078
vn -0.936891675 -0.346413761 -0.047238238
vt 0.490722656 0.911621094
vt 0.428466797 0.847167969
vt 0.613037109 0.584228516
vt 0.622314453 0.490966797
vt 0.679199219 0.508300781
v -0.058509827 0.406768799 -0.191772461
vt 0.551757812 0.502441406
vn 0.109892674 0.902689815 -0.416022301
v 0.085807800 0.359558105 -0.214050293
vt 0.560058594 0.552978516
vn 0.117843866 0.856332064 -0.502800465
v 0.027992249 0.300781250 -0.370513916
vt 0.500732422 0.557861328
vn 0.062728219 0.776261747 -0.627282202
v -0.153488159 0.406921387 -0.220779419
vt 0.530517578 0.476806641
vn -0.165967718 0.885161161 -0.434677362
v 0.124656677 0.327575684 -0.284027100
vt 0.542968750 0.576416016
vn 0.055109568 0.810897887 -0.582586884
v 0.241256714 0.331329346 -0.278289795
vt 0.562744141 0.609863281
vn 0.393639773 0.763661146 -0.511731684
v -0.157379150 0.249679565 -0.364898682
vt 0.464599609 0.504638672
vn -0.196673661 0.605754912 -0.770960748
v 0.262878418 0.256103516 -0.351135254
vt 0.534912109 0.632324219
vn 0.228056774 0.574073970 -0.786402702
v 0.148590088 0.247985840 -0.350982666
vt 0.515136719 0.599853516
vn 0.205157325 0.481330663 -0.852191985
v 0.081672668 0.178054810 -0.390502930
vt 0.480224609 0.598144531
vn 0.102169178 0.432254255 -0.895945132
v -0.054084778 0.236328125 -0.418701172
vt 0.462646484 0.551025391
vn 0.102537170 0.441698611 -0.891284704
v -0.082359314 0.161483765 -0.454864502
vt 0.433593750 0.542724609
vn 0.015718335 0.353662580 -0.935240984
v -0.176391602 0.047222137 -0.478546143
vt 0.387939453 0.521240234
vn -0.189346537 0.149899334 -0.970400989
v 0.031032562 0.068946838 -0.449829102
vt 0.426757812 0.591308594
vn 0.070617020 0.306007087 -0.949406624
v 0.254455566 0.072227478 -0.459289551
vt 0.445068359 0.663818359
vn 0.141569987 0.322465003 -0.935934961
vt 0.114013672 0.030761719
vt 0.062011719 0.038574219
vt 0.053222656 0.005615234
vt 0.070556641 0.047851562
v -0.271453857 0.257995605 -0.351104736
vt 0.104248047 0.147949219
vn -0.496602118 0.551780105 -0.670018733
vt 0.065917969 0.116210938
v -0.184036255 0.364654541 -0.256225586
vt 0.147705078 0.092041016
vn -0.306290060 0.753944755 -0.581165731
vt 0.143310547 0.167968750
vt 0.165527344 0.074707031
vt 0.161621094 0.022949219
vt 0.250244141 0.001220703
vt 0.207275391 0.065917969
vt 0.044677734 0.698974609
vt 0.000244141 0.712402344
vt 0.043212891 0.599609375
vt 0.716064453 0.969238281
vt 0.826904297 0.975585938
vt 0.877441406 0.979980469
v -0.453491211 -0.157760620 -0.138870239
vt 0.873779297 0.977783203
vn -0.986149251 -0.149894685 -0.071002737
v -0.464721680 -0.101119995 -0.142425537
vt 0.877441406 0.942871094
vn -0.906805873 -0.055196878 -0.417919219
vt 0.826904297 0.933593750
vt 0.876220703 0.886474609
vt 0.033447266 0.427978516
vt 0.128906250 0.397216797
vt 0.121826172 0.473144531
v 0.401336670 0.253631592 -0.163909912
vt 0.872558594 0.826416016
vn 0.995994091 0.070582256 0.054897312
vt 0.877685547 0.826416016
vt 0.871826172 0.854492188
vt 0.828369141 0.849853516
vt 0.795898438 0.820068359
vt 0.940429688 0.879150391
vt 0.964843750 0.840576172
vt 0.941406250 0.776123047
v 0.328186035 0.256408691 -0.265930176
vt 0.898925781 0.779296875
vn 0.611055613 0.618889689 -0.493544936
vt 0.910888672 0.742431641
v 0.362274170 0.219070435 -0.269683838
vt 0.875488281 0.779541016
vn 0.656131625 0.537553608 -0.529648423
v 0.410705566 0.191955566 -0.231781006
vt 0.852050781 0.795410156
vn 0.763542891 0.448679835 -0.464422971
v 0.412780762 0.072814941 -0.333099365
vt 0.807861328 0.752197266
vn 0.995744109 0.047416385 -0.079027310
v 0.410766602 0.061248779 -0.185226440
vt 0.793701172 0.810791016
vn 0.987163424 0.157946154 -0.023691922
vt 0.749755859 0.807128906
v 0.337799072 0.164535522 -0.347320557
vt 0.860107422 0.743408203
vn 0.604335308 0.447365075 -0.659274817
v 0.412445068 0.074905396 -0.342346191
vt 0.809814453 0.748535156
vn 0.732624173 0.189064309 -0.653847396
v 0.406646729 -0.131362915 -0.294067383
vt 0.756103516 0.739746094
vn 0.928558290 -0.196728453 -0.314765543
v 0.323699951 0.075225830 -0.401397705
vt 0.831054688 0.711425781
vn 0.575195611 0.102432087 -0.811577260
v 0.393737793 -0.122375488 -0.348175049
vt 0.775390625 0.706542969
vn 0.565458536 -0.196339771 -0.801066279
vt 0.856933594 0.683837891
vt 0.942382812 0.672363281
v 0.271759033 0.044700623 -0.438079834
vt 0.842041016 0.684082031
vn 0.504061997 -0.189023256 -0.842728734
v 0.219543457 -0.064712524 -0.453186035
vt 0.843261719 0.643066406
vn 0.369792283 -0.125886738 -0.920546770
vt 0.167968750 0.089111328
vt 0.217041016 0.090332031
vt 0.263916016 0.094238281
v -0.391571045 -0.036090851 -0.225067139
vt 0.192871094 0.151367188
vn -0.867082953 0.039412864 -0.496602058
vt 0.253662109 0.141601562
v -0.339843750 0.063537598 -0.321960449
vt 0.237304688 0.215332031
vn -0.820527196 0.197242111 -0.536498547
vt 0.287109375 0.183105469
v -0.356567383 -0.081428528 -0.359191895
vt 0.158203125 0.219482422
vn -0.859414041 0.228651434 -0.457302868
v -0.306182861 0.155715942 -0.337005615
vt 0.282958984 0.240478516
vn -0.839273810 0.243154094 -0.486308187
vt 0.344482422 0.204833984
vt 0.333740234 0.266845703
v -0.255157471 0.090972900 -0.413116455
vt 0.240966797 0.281982422
vn -0.629433692 0.212433875 -0.747452497
v -0.261199951 0.071296692 -0.413360596
vt 0.230957031 0.278320312
vn -0.684509099 0.228169709 -0.692377090
v -0.263275146 -0.005094528 -0.440216064
vt 0.195312500 0.285888672
vn -0.517937899 0.007847544 -0.855382264
v -0.362121582 -0.136001587 -0.380371094
vt 0.127441406 0.224121094
vn -0.370815188 -0.157793701 -0.915203393
v -0.168655396 -0.117294312 -0.427673340
vt 0.130859375 0.328857422
vn -0.259834468 -0.157475427 -0.952726424
vt 0.226562500 0.333496094
vt 0.348388672 0.320556641
vt 0.694580078 0.643554688
vt 0.692138672 0.645263672
vt 0.666748047 0.637695312
vt 0.654785156 0.545898438
v -0.395324707 -0.147628784 -0.256805420
vt 0.698730469 0.573730469
vn -0.903218806 0.243476391 -0.353433460
v -0.370056152 -0.149002075 -0.356933594
vt 0.713134766 0.537109375
vn -0.851132810 -0.307353526 -0.425566405
vt 0.713623047 0.495361328
vt 0.723144531 0.519531250
vt 0.770751953 0.428710938
v -0.150177002 -0.254272461 -0.435729980
vt 0.838134766 0.460693359
vn -0.165673062 -0.386570483 -0.907257259
v -0.301666260 -0.228973389 -0.363403320
vt 0.778320312 0.529296875
vn -0.615031779 -0.473101348 -0.630801797
v -0.257507324 -0.317932129 -0.348022461
vt 0.833984375 0.542724609
vn -0.392401338 -0.737714529 -0.549361825
v -0.128005981 -0.332824707 -0.335327148
vt 0.890136719 0.502197266
vn -0.102330483 -0.763542891 -0.637597680
vt 0.917968750 0.576904297
vt 0.849365234 0.620849609
vt 0.937744141 0.667236328
v -0.327209473 -0.335388184 -0.204421997
vt 0.800781250 0.615722656
vn -0.596725821 -0.643835723 -0.478950977
vt 0.797119141 0.655029297
vt 0.792480469 0.660888672
v -0.375305176 -0.218688965 -0.244735718
vt 0.741210938 0.598876953
vn -0.893987060 -0.243101761 -0.376415610
vt 0.764160156 0.669921875
v -0.396850586 -0.153366089 -0.254089355
vt 0.710693359 0.588134766
vn -0.795843244 -0.496417105 -0.346704006
vt 0.258789062 0.929931641
vt 0.284423828 0.873046875
vt 0.285888672 0.903320312
vt 0.336181641 0.899414062
vt 0.239990234 0.916748047
v 0.361877441 -0.246170044 -0.298736572
vt 0.218750000 0.872314453
vn 0.699314773 -0.392873436 -0.597167671
vt 0.279296875 0.850830078
vt 0.316650391 0.840087891
v 0.353118896 -0.293914795 -0.281036377
vt 0.195556641 0.884521484
vn 0.558622360 -0.566490293 -0.605829954
vt 0.189208984 0.919921875
v 0.274261475 -0.141372681 -0.381835938
vt 0.227539062 0.815917969
vn 0.489709496 -0.292245984 -0.821448147
vt 0.266845703 0.751953125
vt 0.291015625 0.760498047
vt 0.226562500 0.760986328
v 0.183731079 -0.198135376 -0.449829102
vt 0.185302734 0.782958984
vn 0.228708327 -0.425870687 -0.875400841
v 0.245437622 -0.239074707 -0.367797852
vt 0.178466797 0.825683594
vn 0.456962109 -0.480598122 -0.748472452
v 0.183670044 -0.316528320 -0.330780029
vt 0.138183594 0.842529297
vn 0.283008695 -0.581740141 -0.762551188
v 0.168167114 -0.286163330 -0.360534668
vt 0.138427734 0.827148438
vn 0.283807874 -0.670101941 -0.685869038
vt 0.122558594 0.886718750
vt 0.570800781 0.099365234
vt 0.506347656 0.078857422
vt 0.587402344 0.016113281
v 0.015345573 -0.336822510 -0.369689941
vt 0.651123047 0.084472656
vn 0.055358890 -0.759207606 -0.648489833
vt 0.640380859 0.024414062
vt 0.690673828 0.019287109
v 0.125579834 -0.375976562 -0.296234131
vt 0.622314453 0.130859375
vn -0.070774056 -0.920062780 -0.385325432
vt 0.585693359 0.151855469
v 0.158187866 -0.350555420 -0.309906006
vt 0.627441406 0.146484375
vn 0.188608393 -0.628694594 -0.754433572
vt 0.619140625 0.161621094
v 0.153900146 -0.356842041 -0.312225342
vt 0.629394531 0.144287109
vn 0.235578686 -0.675325513 -0.698883474
v 0.125595093 -0.365447998 -0.306396484
vt 0.627929688 0.132812500
vn 0.236169249 -0.629784644 -0.739996970
vt 0.632080078 0.146728516
vn 0.133816794 -0.495909303 -0.858001828
vt 0.648437500 0.156005859
vt 0.664794922 0.148437500
vt 0.717285156 0.144531250
vt 0.686279297 0.169433594
v 0.017442703 -0.216354370 -0.423797607
vt 0.704345703 0.082031250
vn 0.039475463 -0.450020254 -0.892145455
v 0.023912430 -0.098220825 -0.489990234
vt 0.759277344 0.080566406
vn -0.078439213 -0.251005501 -0.964802384
vt 0.745605469 0.000000000
vt 0.769042969 0.159667969
vt 0.815429688 0.002441406
v 0.022172928 -0.074714661 -0.491058350
vt 0.768798828 0.080566406
vn 0.078845322 0.149806127 -0.985566556
vt 0.824707031 0.171142578
vt 0.826660156 0.079101562
vt 0.150390625 0.210693359
vt 0.126953125 0.218994141
vt 0.099365234 0.171630859
vt 0.164062500 0.174072266
vt 0.937500000 0.999755859
vn 0.817252517 -0.573648453 0.055007383
vt 0.956054688 0.998046875
vt 0.958496094 1.000000000
f 1/1/1 2/2/2 3/3/3
f 4/4/4 5/5/5 2/2/2
f 3/3/3 2/2/2 6/6/6
f 6/6/6 2/2/2 5/5/5
f 6/6/6 5/5/5 7/7/7
f 7/7/7 5/5/5 8/8/8
f 7/7/7 8/8/8 9/9/9
f 7/7/7 9/9/9 6/6/6
f 6/6/6 9/9/9 3/3/3
f 3/3/3 9/9/9 10/10/10
f 10/10/10 9/9/9 11/11/11
f 3/12/3 12/13/12 13/14/13
f 12/13/12 3/12/3 10/15/10
f 14/16/14 13/14/13 15/17/15
f 15/17/15 13/14/13 16/18/16
f 16/18/16 13/14/13 12/13/12
f 15/17/15 16/18/16 17/19/17
f 17/19/17 16/18/16 18/20/18
f 18/20/18 16/18/16 12/13/12
f 17/19/17 18/20/18 19/21/19
f 18/20/18 12/13/12 20/22/20
f 18/20/18 20/22/20 19/21/19
f 20/22/20 12/13/12 10/15/10
f 19/21/19 20/22/20 21/23/21
f 21/23/21 20/22/20 10/15/10
f 19/21/19 21/23/21 22/24/22
f 21/23/21 10/15/10 11/25/11
f 22/24/22 21/23/21 23/26/23
f 23/26/23 21/23/21 11/25/11
f 23/26/23 11/25/11 24/27/24
f 24/27/24 11/25/11 25/28/25
f 24/27/24 25/28/25 26/29/26
f 27/30/27 28/31/28 29/32/29
f 29/32/29 28/31/28 1/33/1
f 28/31/28 27/30/27 30/34/30
f 29/32/29 1/33/1 3/35/3
f 29/32/29 3/35/3 13/36/13
f 29/32/29 13/36/13 14/37/14
f 29/32/29 14/37/14 15/38/15
f 30/34/30 27/30/27 31/39/31
f 27/30/27 29/32/29 32/40/32
f 32/40/32 29/32/29 33/41/33
f 31/39/31 27/30/27 34/42/34
f 27/30/27 32/40/32 35/43/35
f 27/30/27 35/43/35 34/42/34
f 35/43/35 32/40/32 36/44/36
f 31/39/31 34/42/34 37/45/37
f 35/43/35 36/44/36 38/46/38
f 39/47/39 37/45/37 38/46/38
f 38/46/38 37/45/37 35/43/35
f 34/42/34 35/43/35 40/48/40
f 37/45/37 34/42/34 41/49/40
f 37/45/37 41/49/40 35/43/35
f 41/49/40 34/42/34 40/48/40
f 35/43/35 41/49/40 42/50/41
f 35/43/35 42/50/41 40/48/40
f 40/48/40 42/50/41 41/49/40
f 29/51/29 15/52/15 33/53/33
f 33/53/33 15/52/15 43/54/42
f 33/53/33 43/54/42 44/55/43
f 33/53/33 44/55/43 32/56/32
f 32/56/32 44/55/43 36/57/36
f 44/55/43 43/54/42 45/58/44
f 45/58/44 43/54/42 46/59/45
f 36/57/36 44/55/43 47/60/46
f 36/57/36 47/60/46 38/61/38
f 38/61/38 47/60/46 48/62/47
f 47/60/46 44/55/43 49/63/48
f 47/60/46 49/63/48 50/64/49
f 47/60/46 50/64/49 51/65/50
f 49/63/48 44/55/43 52/66/51
f 49/63/48 52/66/51 50/64/49
f 52/66/51 44/55/43 45/58/44
f 50/64/49 52/66/51 53/67/52
f 54/68/53 45/58/44 46/59/45
f 45/58/44 54/68/53 52/66/51
f 54/68/53 46/59/45 55/69/54
f 53/67/52 52/66/51 56/70/55
f 56/70/55 52/66/51 54/68/53
f 54/68/53 55/69/54 57/71/56
f 54/68/53 57/71/56 56/70/55
f 53/67/52 56/70/55 58/72/57
f 58/72/57 56/70/55 57/71/56
f 58/72/57 57/71/56 59/73/58
f 59/73/58 57/71/56 60/74/59
f 59/73/58 60/74/59 58/72/57
f 58/72/57 60/74/59 61/75/60
f 62/76/61 46/77/45 43/78/42
f 62/76/61 43/78/42 15/79/15
f 62/76/61 15/79/15 17/80/17
f 46/77/45 62/76/61 55/81/54
f 62/76/61 17/80/17 63/82/62
f 62/76/61 63/82/62 55/81/54
f 63/82/62 17/80/17 64/83/63
f 64/83/63 17/80/17 19/84/19
f 64/83/63 19/84/19 22/85/22
f 64/83/63 22/85/22 65/86/64
f 63/82/62 64/83/63 66/87/65
f 66/87/65 64/83/63 67/88/66
f 63/82/62 66/87/65 68/89/67
f 63/82/62 68/89/67 55/81/54
f 68/89/67 66/87/65 69/90/68
f 68/89/67 69/90/68 70/91/69
f 55/81/54 68/89/67 60/92/59
f 60/92/59 68/89/67 70/91/69
f 55/81/54 60/92/59 57/93/56
f 60/92/59 70/91/69 61/94/60
f 71/95/70 1/96/1 28/97/28
f 1/96/1 71/95/70 2/98/2
f 2/98/2 71/95/70 4/99/4
f 71/95/70 28/97/28 72/100/71
f 72/100/71 28/97/28 30/101/30
f 71/95/70 72/100/71 73/102/72
f 71/95/70 73/102/72 4/99/4
f 72/100/71 30/101/30 74/103/73
f 72/100/71 74/103/73 73/102/72
f 74/103/73 30/101/30 75/104/74
f 73/102/72 74/103/73 76/105/75
f 76/105/75 74/103/73 77/106/76
f 73/102/72 76/105/75 4/99/4
f 4/99/4 76/105/75 78/107/77
f 78/107/77 76/105/75 79/108/78
f 78/107/77 79/108/78 4/99/4
f 4/99/4 79/108/78 80/109/79
f 4/99/4 80/109/79 5/110/5
f 81/111/80 5/112/5 80/113/79
f 5/112/5 81/111/80 82/114/81
f 82/114/81 81/111/80 83/115/82
f 64/116/63 65/117/64 67/118/66
f 67/118/66 65/117/64 22/119/22
f 67/118/66 22/119/22 84/120/83
f 84/120/83 22/119/22 23/121/23
f 84/120/83 23/121/23 24/122/24
f 84/120/83 24/122/24 26/123/26
f 84/120/83 26/123/26 85/124/84
f 86/125/85 87/126/86 9/127/9
f 9/127/9 87/126/86 11/128/11
f 86/125/85 9/127/9 8/129/8
f 11/128/11 87/126/86 88/130/87
f 88/130/87 87/126/86 86/125/85
f 11/128/11 88/130/87 89/131/88
f 11/128/11 89/131/88 25/132/25
f 88/130/87 86/125/85 90/133/89
f 90/133/89 86/125/85 91/134/90
f 86/125/85 8/129/8 92/135/91
f 86/125/85 92/135/91 91/134/90
f 92/135/91 8/129/8 5/136/5
f 92/135/91 5/136/5 82/137/81
f 91/134/90 92/135/91 93/138/92
f 93/138/92 92/135/91 82/137/81
f 91/134/90 93/138/92 94/139/93
f 93/138/92 82/137/81 95/140/94
f 93/138/92 95/140/94 94/139/93
f 95/140/94 82/137/81 96/141/95
f 94/139/93 95/140/94 97/142/96
f 39/143/39 98/144/97 37/145/37
f 38/146/38 48/147/47 39/143/39
f 39/143/39 48/147/47 98/144/97
f 37/145/37 98/144/97 99/148/98
f 99/148/98 98/144/97 100/149/99
f 37/145/37 99/148/98 101/150/100
f 101/150/100 99/148/98 100/149/99
f 37/145/37 101/150/100 31/151/31
f 100/149/99 98/144/97 102/152/101
f 100/149/99 102/152/101 101/150/100
f 102/152/101 98/144/97 103/153/102
f 101/150/100 102/152/101 104/154/103
f 104/154/103 102/152/101 103/153/102
f 67/155/66 69/156/68 66/157/65
f 69/156/68 67/155/66 84/158/83
f 105/159/104 84/158/83 106/160/105
f 84/158/83 105/159/104 107/161/106
f 84/158/83 107/161/106 69/156/68
f 69/156/68 107/161/106 108/162/107
f 69/156/68 108/162/107 70/163/69
f 80/164/79 83/165/82 81/166/80
f 83/165/82 80/164/79 79/167/78
f 50/168/49 53/169/52 109/170/108
f 109/170/108 53/169/52 58/171/57
f 50/168/49 109/170/108 51/172/50
f 51/172/50 109/170/108 110/173/109
f 110/173/109 109/170/108 111/174/110
f 111/174/110 109/170/108 112/175/111
f 112/175/111 109/170/108 113/176/112
f 76/177/75 114/178/113 79/179/78
f 79/179/78 114/178/113 115/180/114
f 115/180/114 114/178/113 116/181/115
f 79/179/78 115/180/114 117/182/116
f 79/179/78 117/182/116 83/183/82
f 83/183/82 117/182/116 96/184/95
f 83/183/82 96/184/95 82/185/81
f 96/184/95 117/182/116 95/186/94
f 95/186/94 117/182/116 118/187/117
f 118/187/117 117/182/116 115/180/114
f 95/186/94 118/187/117 97/188/96
f 97/188/96 118/187/117 119/189/118
f 118/187/117 115/180/114 120/190/119
f 120/190/119 115/180/114 121/191/120
f 118/187/117 120/190/119 122/192/121
f 118/187/117 122/192/121 123/193/122
f 118/187/117 123/193/122 124/194/123
f 124/194/123 123/193/122 125/195/124
f 116/196/115 114/197/113 76/198/75
f 116/196/115 76/198/75 121/199/120
f 116/196/115 121/199/120 115/200/114
f 121/199/120 76/198/75 77/201/76
f 121/199/120 77/201/76 122/202/121
f 121/199/120 122/202/121 120/203/119
f 122/202/121 77/201/76 75/204/74
f 75/204/74 77/201/76 74/205/73
f 122/202/121 75/204/74 126/206/125
f 126/206/125 75/204/74 127/207/126
f 122/202/121 126/206/125 125/208/124
f 122/202/121 125/208/124 123/209/122
f 61/210/60 128/211/127 58/212/57
f 58/212/57 128/211/127 109/213/108
f 128/211/127 61/210/60 129/214/128
f 128/211/127 129/214/128 109/213/108
f 129/214/128 61/210/60 130/215/129
f 109/213/108 129/214/128 131/216/130
f 131/216/130 129/214/128 130/215/129
f 47/217/46 51/218/50 48/219/47
f 48/219/47 51/218/50 98/220/97
f 98/220/97 51/218/50 110/221/109
f 98/220/97 110/221/109 132/222/131
f 30/223/30 31/224/31 133/225/132
f 30/226/30 133/227/132 75/228/74
f 75/228/74 133/227/132 134/229/133
f 108/230/107 107/231/106 135/232/134
f 135/232/134 107/231/106 136/233/135
f 136/233/135 107/231/106 105/234/104
f 108/230/107 135/232/134 137/235/136
f 137/235/136 135/232/134 136/233/135
f 108/230/107 137/235/136 138/236/137
f 108/230/107 138/236/137 70/237/69
f 70/237/69 138/236/137 61/238/60
f 138/236/137 137/235/136 139/239/138
f 61/238/60 138/236/137 140/240/139
f 140/240/139 138/236/137 139/239/138
f 140/240/139 139/239/138 137/235/136
f 61/238/60 140/240/139 130/241/129
f 130/241/129 140/240/139 141/242/140
f 142/243/141 137/235/136 136/233/135
f 137/235/136 142/243/141 140/240/139
f 142/243/141 136/233/135 143/244/142
f 142/243/141 143/244/142 144/245/143
f 142/243/141 144/245/143 145/246/144
f 142/243/141 145/246/144 140/240/139
f 145/246/144 144/245/143 146/247/145
f 145/246/144 146/247/145 140/240/139
f 140/240/139 146/247/145 147/248/146
f 133/249/132 31/250/31 101/251/100
f 133/249/132 101/251/100 148/252/147
f 132/253/131 110/254/109 111/255/110
f 132/253/131 111/255/110 103/256/102
f 132/253/131 103/256/102 98/257/97
f 103/256/102 111/255/110 149/258/148
f 103/256/102 149/258/148 150/259/149
f 149/258/148 111/255/110 151/260/150
f 149/258/148 151/260/150 113/261/112
f 151/260/150 111/255/110 112/262/111
f 151/260/150 112/262/111 113/261/112
f 89/263/88 26/264/26 25/265/25
f 26/264/26 89/263/88 152/266/151
f 152/266/151 89/263/88 153/267/152
f 152/266/151 153/267/152 154/268/153
f 152/266/151 154/268/153 155/269/154
f 153/267/152 89/263/88 156/270/155
f 153/267/152 156/270/155 154/268/153
f 156/270/155 89/263/88 157/271/156
f 155/269/154 154/268/153 158/272/157
f 156/270/155 157/271/156 159/273/158
f 156/270/155 159/273/158 160/274/159
f 156/270/155 160/274/159 154/268/153
f 160/274/159 159/273/158 161/275/160
f 154/268/153 160/274/159 162/276/161
f 162/276/161 160/274/159 161/275/160
f 154/268/153 162/276/161 158/272/157
f 158/272/157 162/276/161 163/277/162
f 163/277/162 162/276/161 161/275/160
f 158/272/157 163/277/162 164/278/163
f 164/278/163 163/277/162 165/279/164
f 165/279/164 163/277/162 161/275/160
f 165/279/164 161/275/160 166/280/165
f 106/281/105 136/282/135 105/283/104
f 136/282/135 106/281/105 143/284/142
f 143/284/142 106/281/105 167/285/166
f 143/284/142 167/285/166 144/286/143
f 167/285/166 106/281/105 168/287/167
f 167/285/166 168/287/167 158/288/157
f 158/288/157 168/287/167 155/289/154
f 155/289/154 168/287/167 106/281/105
f 155/289/154 106/281/105 85/290/84
f 155/289/154 85/290/84 26/291/26
f 155/289/154 26/291/26 152/292/151
f 85/293/84 106/294/105 84/295/83
f 109/296/108 131/297/130 113/298/112
f 113/298/112 131/297/130 169/299/168
f 169/299/168 131/297/130 170/300/169
f 170/300/169 131/297/130 130/301/129
f 170/300/169 130/301/129 141/302/140
f 75/303/74 134/304/133 127/305/126
f 171/306/170 90/307/89 91/308/90
f 171/306/170 91/308/90 94/309/93
f 171/306/170 94/309/93 97/310/96
f 88/311/87 90/307/89 89/312/88
f 89/312/88 90/307/89 157/313/156
f 157/313/156 90/307/89 172/314/171
f 157/313/156 172/314/171 159/315/158
f 172/314/171 90/307/89 173/316/172
f 172/314/171 173/316/172 159/315/158
f 174/317/173 90/307/89 171/306/170
f 90/307/89 174/317/173 173/316/172
f 175/318/174 171/306/170 97/310/96
f 171/306/170 175/318/174 174/317/173
f 175/318/174 97/310/96 176/319/175
f 176/319/175 97/310/96 119/320/118
f 176/319/175 119/320/118 175/318/174
f 177/321/176 159/315/158 173/316/172
f 177/321/176 173/316/172 174/317/173
f 174/317/173 175/318/174 178/322/177
f 174/317/173 178/322/177 177/321/176
f 178/322/177 175/318/174 179/323/178
f 177/321/176 178/322/177 180/324/179
f 180/324/179 178/322/177 181/325/180
f 159/315/158 177/321/176 166/326/165
f 166/326/165 177/321/176 180/324/179
f 159/315/158 166/326/165 161/327/160
f 166/326/165 180/324/179 182/328/181
f 166/326/165 182/328/181 183/329/182
f 170/330/169 141/331/140 140/332/139
f 170/330/169 140/332/139 184/333/183
f 184/333/183 140/332/139 147/334/146
f 184/333/183 147/334/146 185/335/184
f 185/335/184 147/334/146 146/336/145
f 184/333/183 185/335/184 186/337/185
f 185/335/184 146/336/145 187/338/186
f 187/338/186 146/336/145 144/339/143
f 187/338/186 144/339/143 167/340/166
f 187/338/186 167/340/166 188/341/187
f 185/335/184 187/338/186 189/342/188
f 189/342/188 187/338/186 188/341/187
f 186/337/185 185/335/184 190/343/189
f 190/343/189 185/335/184 189/342/188
f 186/337/185 190/343/189 191/344/190
f 191/344/190 190/343/189 192/345/191
f 192/345/191 190/343/189 164/346/163
f 164/346/163 190/343/189 189/342/188
f 164/346/163 189/342/188 188/341/187
f 164/346/163 188/341/187 167/340/166
f 164/346/163 167/340/166 158/347/157
f 113/348/112 169/349/168 170/350/169
f 113/348/112 170/350/169 184/351/183
f 113/348/112 184/351/183 193/352/192
f 193/352/192 184/351/183 194/353/193
f 193/352/192 194/353/193 113/348/112
f 194/353/193 184/351/183 186/354/185
f 194/353/193 186/354/185 191/355/190
f 192/356/191 195/357/194 191/355/190
f 191/355/190 195/357/194 196/358/195
f 191/355/190 196/358/195 194/353/193
f 196/358/195 195/357/194 197/359/196
f 197/359/196 195/357/194 198/360/197
f 197/359/196 198/360/197 148/361/147
f 197/359/196 148/361/147 104/362/103
f 104/362/103 148/361/147 101/363/100
f 196/358/195 197/359/196 199/364/198
f 199/364/198 197/359/196 104/362/103
f 196/358/195 199/364/198 194/353/193
f 199/364/198 104/362/103 103/365/102
f 199/364/198 103/365/102 150/366/149
f 199/364/198 150/366/149 194/353/193
f 194/353/193 150/366/149 200/367/199
f 200/367/199 150/366/149 113/348/112
f 113/348/112 150/366/149 149/368/148
f 194/353/193 200/367/199 201/369/200
f 194/353/193 201/369/200 113/348/112
f 113/348/112 201/369/200 200/367/199
f 118/370/117 179/371/178 119/372/118
f 119/372/118 179/371/178 175/373/174
f 179/371/178 118/370/117 124/374/123
f 179/371/178 124/374/123 202/375/201
f 179/371/178 202/375/201 181/376/180
f 179/371/178 181/376/180 178/377/177
f 202/375/201 124/374/123 203/378/202
f 203/378/202 124/374/123 125/379/124
f 181/376/180 202/375/201 204/380/203
f 204/380/203 202/375/201 203/378/202
f 182/381/181 180/382/179 181/376/180
f 182/381/181 181/376/180 204/380/203
f 182/381/181 204/380/203 183/383/182
f 183/383/182 204/380/203 205/384/204
f 205/384/204 204/380/203 206/385/205
f 206/385/205 204/380/203 203/378/202
f 206/385/205 203/378/202 207/386/206
f 206/385/205 207/386/206 208/387/207
f 207/386/206 203/378/202 127/388/126
f 134/389/133 133/390/132 148/391/147
f 134/389/133 148/391/147 209/392/208
f 209/392/208 148/391/147 198/393/197
f 209/392/208 198/393/197 195/394/194
f 134/389/133 209/392/208 210/395/209
f 134/389/133 210/395/209 127/396/126
f 127/396/126 210/395/209 211/397/210
f 127/396/126 211/397/210 207/398/206
f 211/397/210 210/395/209 212/399/211
f 212/399/211 210/395/209 213/400/212
f 213/400/212 210/395/209 209/392/208
f 212/399/211 213/400/212 211/401/213
f 211/401/213 213/400/212 207/402/206
f 207/402/206 213/400/212 208/403/207
f 208/403/207 213/400/212 209/392/208
f 208/403/207 209/392/208 205/404/204
f 208/403/207 205/404/204 206/405/205
f 205/404/204 209/392/208 214/406/214
f 214/406/214 209/392/208 195/394/194
f 205/404/204 214/406/214 215/407/215
f 215/407/215 214/406/214 195/394/194
f 215/407/215 195/394/194 192/408/191
f 205/404/204 215/407/215 183/409/182
f 215/407/215 192/408/191 164/410/163
f 183/409/182 215/407/215 216/411/216
f 216/411/216 215/407/215 164/410/163
f 183/409/182 216/411/216 166/412/165
f 216/411/216 164/410/163 165/413/164
f 216/411/216 165/413/164 166/412/165
f 125/414/124 126/415/125 127/416/126
f 125/414/124 127/416/126 203/417/202
f 207/418/217 211/419/217 212/420/217
