mtllib M_Electric_Bullet.mtl
o tripo_node_3b4056d8-d6f4-4949-b559-66713883e956
g tripo_node_3b4056d8-d6f4-4949-b559-66713883e956
usemtl tripo_material_3b4056d8_d6f4_4949_b559_66713883e956
v -0.028610229 -0.339355469 0.365020752
vt 0.758789062 0.063232422
vn -0.094909862 -0.703914821 0.703914821
v 0.111167908 -0.262573242 0.438964844
vt 0.789306641 0.000000000
vn 0.141732275 -0.519685030 0.842519701
v 0.003796577 -0.081977844 0.490600586
vt 0.869384766 0.032470703
vn 0.023635972 -0.118179865 0.992710829
v 0.122009277 -0.430877686 0.237045288
vt 0.685791016 0.015869141
vn 0.078918949 -0.915459812 0.394594759
v -0.035900116 -0.430969238 0.140106201
vt 0.664794922 0.087158203
vn 0.000000000 -0.959114790 0.283017457
v 0.032680511 -0.474060059 -0.016809464
vt 0.595458984 0.076171875
vn -0.007880614 -0.992957413 -0.118209220
v -0.182968140 -0.419097900 0.261413574
vt 0.723388672 0.136230469
vn -0.204597592 -0.889212668 0.409195185
v -0.208160400 -0.472717285 0.000111014
vt 0.620849609 0.166015625
vn -0.227719024 -0.973695159 0.007852380
v -0.325744629 -0.377227783 0.115234375
vt 0.701904297 0.217041016
vn -0.519106030 -0.825850487 0.220226794
v -0.328094482 -0.302612305 0.286163330
vt 0.767822266 0.187988281
vn -0.544455945 -0.552346647 0.631253302
v -0.153564453 -0.205963135 0.454742432
vt 0.829345703 0.103515625
vn -0.299770713 -0.378657728 0.875645995
v -0.244201660 -0.131423950 0.381927490
vt 0.846679688 0.156005859
vn -0.440181375 -0.314415276 0.841060877
v -0.254241943 0.066665649 0.463775635
vt 0.942626953 0.126953125
vn -0.244747832 0.165796921 0.955306053
v 0.001531839 0.072593689 0.445770264
vt 0.932861328 0.024414062
vn -0.086837903 0.331562877 0.939428151
vt 0.346923828 0.711181641
v 0.197631836 0.067604065 0.479278564
vt 0.272460938 0.750000000
vn 0.345728695 0.078574702 0.935038924
v 0.069862366 0.191497803 0.443267822
vt 0.299804688 0.677978516
vn -0.007888457 0.496972799 0.867730260
vt 0.372802734 0.774414062
v 0.275238037 0.259399414 0.355651855
vt 0.201416016 0.677001953
vn 0.472075284 0.574358284 0.668773293
v 0.298950195 0.102462769 0.337646484
vt 0.197753906 0.744628906
vn 0.802155495 0.133692577 0.581955969
v 0.283996582 0.279357910 0.265747070
vt 0.162841797 0.671386719
vn 0.751158297 0.450694978 0.482322723
v 0.395996094 0.054378510 0.289672852
vt 0.161132812 0.778564453
vn 0.778948188 0.188835934 0.597980440
v 0.137115479 0.415527344 0.224151611
vt 0.213623047 0.572998047
vn 0.102308296 0.857815742 0.503671646
v 0.234268188 0.373291016 0.147705078
vt 0.159667969 0.583984375
vn 0.512685895 0.788747489 0.339161426
v -0.024780273 0.295013428 0.374633789
vt 0.312255859 0.612792969
vn -0.031586275 0.702794671 0.710691214
v -0.120788574 0.302947998 0.325347900
vt 0.339599609 0.576171875
vn -0.110662431 0.632356703 0.766732514
v -0.037155151 0.423309326 0.136016846
vt 0.264892578 0.508056641
vn -0.063084103 0.891062975 0.449474245
vt 0.980224609 0.591552734
v 0.167144775 -0.153152466 0.419036865
vt 0.930419922 0.565673828
vn 0.298953235 -0.251750082 0.920461237
vt 0.978759766 0.493408203
vt 0.869140625 0.480957031
v 0.209869385 -0.332061768 0.338989258
vt 0.948242188 0.654785156
vn 0.529004157 -0.600064397 0.600064397
v 0.329467773 -0.162612915 0.384796143
vt 0.866455078 0.604736328
vn 0.705367267 -0.219447583 0.674017549
v 0.268890381 -0.274475098 0.234848022
vt 0.898193359 0.687988281
vn 0.754014492 -0.494821995 0.431987464
v 0.320373535 -0.232574463 0.259216309
vt 0.872070312 0.669677734
vn 0.616086125 -0.544999242 0.568694830
vt 0.794189453 0.509521484
v 0.344573975 -0.167861938 0.274597168
vt 0.825439453 0.633300781
vn 0.843749940 -0.094626158 0.528329372
vt 0.761474609 0.552001953
v 0.395355225 -0.035430908 0.200057983
vt 0.757324219 0.609375000
vn 0.794758379 -0.141640097 0.590167105
v 0.486968994 0.075813293 0.141418457
vt 0.690673828 0.587158203
vn 0.957606912 0.174110353 0.229509085
v 0.459045410 -0.176483154 0.151473999
vt 0.767333984 0.682128906
vn 0.864722192 -0.322305530 0.385194421
vt 0.328613281 0.448486328
vt 0.352539062 0.358642578
vt 0.410400391 0.437988281
vt 0.297119141 0.417480469
vt 0.320556641 0.372802734
v -0.255859375 0.263153076 0.350036621
vt 0.397949219 0.365722656
vn -0.384494096 0.533583641 0.753294587
v -0.216918945 0.342712402 0.280029297
vt 0.379638672 0.334228516
vn -0.157543823 0.819227874 0.551403344
v -0.302520752 0.260467529 0.290344238
vt 0.415039062 0.348632812
vn -0.607581317 0.599690676 0.520783961
vt 0.313476562 0.291992188
v -0.226943970 0.425354004 0.133651733
vt 0.373291016 0.280029297
vn -0.369016379 0.918615222 0.141325414
v -0.411315918 0.275085449 0.172744751
vt 0.447753906 0.308349609
vn -0.692999423 0.669374347 0.267749757
v 0.002296448 0.475189209 0.000650227
vt 0.292724609 0.248046875
vn 0.007867677 0.999195039 -0.039338388
v -0.138076782 0.419036865 -0.214080811
vt 0.330566406 0.172363281
vn -0.165369704 0.889846504 -0.425236404
vt 0.066406250 0.574218750
v -0.403869629 0.068496704 0.347747803
vt 0.156982422 0.530517578
vn -0.817202032 0.251446784 0.518608987
vt 0.153564453 0.607666016
vt 0.064208984 0.541015625
v -0.401336670 0.233612061 0.189498901
vt 0.076171875 0.484130859
vn -0.984832168 0.110301204 0.133937165
vt 0.061279297 0.487548828
v -0.394989014 0.068382263 0.290222168
vt 0.162109375 0.505371094
vn -0.992464483 -0.086643726 -0.086643726
v -0.368957520 -0.079109192 0.238891602
vt 0.194335938 0.527343750
vn -0.999195039 0.039338388 0.007867677
v -0.379425049 0.269134521 0.096916199
vt 0.044189453 0.456054688
vn -0.990071774 -0.062861696 -0.125723392
v -0.380859375 0.192062378 -0.031082153
vt 0.061767578 0.400390625
vn -0.923035681 0.370792121 0.102559514
v -0.376861572 0.136520386 0.123016357
vt 0.113037109 0.448974609
vn -0.963261306 0.244763106 0.110538177
v -0.486175537 0.076393127 0.058063507
vt 0.130371094 0.400878906
vn -0.953110516 0.189046711 0.236308396
v -0.385467529 0.074340820 0.177825928
vt 0.154296875 0.458007812
vn -0.894399583 0.164757818 0.415817380
v -0.388031006 -0.087890625 0.202621460
vt 0.195556641 0.466796875
vn -0.993204117 0.055178009 0.102473438
v -0.417022705 -0.118591309 0.172546387
vt 0.190673828 0.401123047
vn -0.782517016 0.086946338 0.616528571
vt 0.872314453 0.845458984
vt 0.758300781 0.791992188
v -0.391113281 -0.141342163 0.353088379
vt 0.916503906 0.768798828
vn -0.753851771 -0.274841785 0.596799374
vt 0.997314453 0.842041016
vt 0.816162109 0.696533203
vt 0.925537109 0.691406250
v -0.414031982 -0.165573120 0.177536011
vt 0.992919922 0.696777344
vn -0.894179523 -0.023531040 0.447089761
vt 0.160888672 0.011474609
vt 0.261230469 0.032470703
vt 0.198974609 0.060791016
v 0.206405640 -0.387145996 0.177932739
vt 0.267578125 0.075683594
vn 0.424080878 -0.840308368 0.337694019
v 0.202713013 -0.472167969 -0.000655770
vt 0.345703125 0.079101562
vn 0.323065042 -0.945556283 0.039398178
vt 0.366455078 0.012695312
v 0.352325439 -0.364379883 0.114578247
vt 0.275878906 0.139404297
vn 0.694443583 -0.670769334 0.260416329
vt 0.204589844 0.117187500
v 0.271362305 -0.402618408 -0.002278328
vt 0.333740234 0.115478516
vn 0.550907910 -0.834232092 -0.023610340
v 0.353576660 -0.370208740 -0.085174561
vt 0.352050781 0.159423828
vn 0.916002095 -0.394828469 0.071069121
vt 0.193847656 0.143310547
v 0.333160400 -0.298583984 0.044776917
vt 0.295898438 0.175048828
vn 0.983764112 -0.173142493 0.047220677
vt 0.226562500 0.211425781
vt 0.175292969 0.166992188
v 0.359008789 -0.246704102 0.012580872
vt 0.292236328 0.203369141
vn 0.749870241 -0.631469667 -0.197334260
v 0.396209717 -0.227386475 -0.021015167
vt 0.299316406 0.218750000
vn 0.678850949 -0.734106302 0.015787231
v 0.459075928 -0.172531128 0.054447174
vt 0.251708984 0.239013672
vn 0.965574980 -0.259056687 0.023550609
v 0.468963623 -0.175613403 -0.059413910
vt 0.280761719 0.264892578
vn 0.908332109 -0.410724074 -0.078985400
v -0.387207031 -0.054969788 0.231613159
vt 0.029052734 0.212158203
vn -0.832070172 -0.251190990 0.494532287
vt 0.014160156 0.222656250
vt 0.034912109 0.131591797
vt 0.034423828 0.237548828
vt 0.863525391 1.000000000
vt 0.763671875 0.953125000
v -0.381103516 -0.214050293 0.146163940
vt 0.881835938 0.897460938
vn -0.882108510 -0.441054255 0.165395349
v -0.351898193 -0.349792480 0.158370972
vt 0.936035156 0.960693359
vn -0.910146952 -0.329535961 0.251075029
vt 0.969482422 0.967041016
v -0.363830566 -0.366851807 0.111381531
vt 0.962890625 0.946289062
vn -0.935038924 -0.345728695 -0.078574702
v -0.371643066 -0.237014771 0.114463806
vt 0.905517578 0.894042969
vn -0.940952241 -0.329333276 -0.078412682
v -0.375610352 -0.234725952 0.116508484
vt 0.903076172 0.892578125
vn -0.662651002 -0.686317146 0.299770713
v -0.338592529 -0.265258789 -0.014291763
vt 0.972656250 0.848876953
vn -0.884002447 -0.457786977 0.094714545
v -0.442871094 -0.176971436 0.094848633
vt 0.868896484 0.850830078
vn -0.804422379 -0.591487110 0.055205461
vt 0.178710938 0.642089844
vt 0.172363281 0.664062500
v -0.393463135 -0.073898315 0.219985962
vt 0.158935547 0.653808594
vn -0.676892579 -0.306962937 0.669021785
vt 0.111816406 0.634765625
vt 0.104980469 0.600830078
vt 0.064697266 0.802246094
v -0.461578369 -0.150985718 0.118835449
vt 0.055908203 0.628417969
vn -0.932738245 0.000000000 0.360554278
vt 0.030273438 0.614501953
v -0.460693359 -0.178939819 0.055290222
vt 0.000244141 0.625000000
vn -0.910230935 -0.408034563 0.070621364
v -0.392944336 -0.073425293 0.220031738
vt 0.156494141 0.659912109
vn 0.916487932 -0.063206062 -0.395037889
v -0.394104004 -0.072860718 0.218460083
vt 0.155029297 0.660644531
vn -0.228000402 0.715449572 -0.660414934
vt 0.138671875 0.661865234
vt 0.107910156 0.778564453
vt 0.099365234 0.732666016
vn 0.314775258 -0.723983109 -0.613811791
vt 0.100097656 0.731445312
vt 0.099609375 0.755859375
vn 0.322096616 -0.714897394 -0.620625198
vt 0.098876953 0.732421875
vn -0.568978846 0.553173900 0.608491302
vt 0.695556641 0.473144531
v 0.390930176 0.217895508 0.113929749
vt 0.709716797 0.381835938
vn 0.864962757 0.408891469 0.290942013
vt 0.770263672 0.431152344
vt 0.654541016 0.408691406
vt 0.791015625 0.387207031
vt 0.784179688 0.468750000
v 0.372344971 0.347167969 0.099769592
vt 0.757324219 0.353759766
vn 0.645529211 0.739996970 0.188935384
v 0.380065918 0.192047119 0.018157959
vt 0.671142578 0.347412109
vn 0.900911331 0.426747471 -0.079027310
v 0.486694336 0.075370789 -0.057514191
vt 0.594970703 0.362792969
vn 0.946762204 0.189352438 -0.260359585
v 0.380340576 0.135925293 -0.123291016
vt 0.613281250 0.319580078
vn 0.984373987 0.173249826 -0.031499967
v 0.388641357 0.288787842 -0.109985352
vt 0.670410156 0.291748047
vn 0.905063093 0.424986154 -0.015740227
v 0.365417480 0.315429688 0.036605835
vt 0.721435547 0.337890625
vn 0.998854995 0.047189999 0.007865000
v 0.227508545 0.425476074 -0.133331299
vt 0.742187500 0.226806641
vn 0.376450330 0.901912272 -0.211753324
v 0.248703003 0.374877930 0.122253418
vt 0.796630859 0.299072266
vn 0.337694049 0.926695287 0.164920345
vt 0.805664062 0.300048828
vn 0.323145330 0.914264858 0.244329408
v 0.174896240 0.422973633 0.079437256
vt 0.809570312 0.238769531
vn 0.330493569 0.936398447 0.118033424
vt 0.834472656 0.179199219
vt 0.878906250 0.220458984
vt 0.874755859 0.154052734
vt 0.841064453 0.256835938
vt 0.001953125 0.456298828
vt 0.035888672 0.583251953
vt 0.001464844 0.617675781
vt 0.069824219 0.005126953
v -0.460968018 -0.183532715 0.127090454
vt 0.098144531 0.038574219
vn -0.620931804 -0.699530840 0.353695363
vt 0.051269531 0.063964844
vt 0.112304688 0.025634766
vt 0.111816406 0.061279297
vt 0.056396484 0.085937500
vt 0.055664062 0.088867188
v -0.460144043 -0.164062500 0.119216919
vt 0.107666016 0.032714844
vn -0.852935910 -0.157951087 -0.497545928
v -0.460266113 -0.156005859 0.117187500
vt 0.111328125 0.029785156
vn -0.836540937 -0.110486530 -0.536648870
vt 0.949707031 0.093750000
vn -0.299770683 -0.875645936 -0.378657699
vt 0.972900391 0.143798828
vt 0.947753906 0.173095703
vt 0.437744141 0.907226562
vt 0.494140625 0.997802734
vt 0.412109375 0.936767578
vt 0.543945312 0.934814453
vt 0.128173828 0.174072266
vt 0.119140625 0.159912109
vt 0.151611328 0.141357422
v -0.373413086 0.345428467 -0.095344543
vt 0.156005859 0.062500000
vn -0.753828585 0.636042893 -0.164900005
vt 0.055908203 0.095458984
vt 0.336914062 0.458496094
vt 0.352294922 0.463867188
v -0.271850586 -0.401947021 0.002007723
vt 0.319335938 0.505126953
vn -0.550788522 -0.834051251 0.031473629
v -0.354766846 -0.371734619 0.069648743
vt 0.360595703 0.484130859
vn -0.392922014 -0.919437528 -0.015716881
v -0.355072021 -0.368103027 -0.038436890
vt 0.356933594 0.532958984
vn -0.881452620 -0.472206771 0.007870113
v -0.359954834 -0.363555908 -0.142364502
vt 0.348388672 0.581542969
vn -0.661335289 -0.677081347 -0.322794616
v -0.352752686 -0.367614746 0.046485901
vt 0.361816406 0.494140625
vn -0.984373987 0.173249826 0.031499967
v -0.354309082 -0.368255615 0.061569214
vt 0.362304688 0.486572266
vn -0.755624473 0.653300285 -0.047226530
v -0.351745605 -0.367889404 0.074981689
vt 0.364501953 0.481201172
vn -0.986149251 0.007889193 -0.165673062
vt 0.408935547 0.529052734
vt 0.366943359 0.467529297
v -0.345153809 -0.169067383 -0.272888184
vt 0.375488281 0.686767578
vn -0.770817637 -0.220233619 -0.597776949
v -0.275024414 -0.281402588 -0.231689453
vt 0.315185547 0.645019531
vn -0.792089880 -0.415651143 -0.447021008
v -0.459747314 -0.174896240 -0.151809692
vt 0.441894531 0.622802734
vn -0.879493773 -0.290547043 -0.376925886
v -0.458587646 -0.171310425 -0.079666138
vt 0.461181641 0.589111328
vn -0.959114790 -0.283017457 0.000000000
v -0.488067627 0.074661255 -0.141464233
vt 0.548583984 0.655029297
vn -0.943362355 0.196533814 -0.267285973
vt 0.469482422 0.543701172
v -0.354583740 -0.368743896 0.077400208
vt 0.097167969 0.795166016
vn -0.504062057 -0.858480752 -0.094511643
v -0.355255127 -0.368957520 0.073379517
vt 0.096191406 0.796875000
vn -0.756562531 0.638349593 -0.141855463
vt 0.094238281 0.778076172
vt 0.094726562 0.798828125
vt 0.096435547 0.797119141
v -0.354309082 -0.368530273 0.073425293
vt 0.096923828 0.796875000
vn 0.062819049 0.997252405 -0.039261907
vt 0.107910156 0.798339844
vn -0.455227613 -0.886909008 -0.078487523
vt 0.107177734 0.790527344
vt 0.109130859 0.787109375
v -0.239013672 0.375701904 -0.142623901
vt 0.452636719 0.043457031
vn -0.403051853 0.877230585 -0.260798275
vt 0.374755859 0.002929688
vt 0.477539062 0.002929688
v -0.273437500 0.260833740 -0.353729248
vt 0.535644531 0.075927734
vn -0.447640896 0.620414615 -0.643974662
vt 0.420410156 0.092529297
v -0.302825928 0.252929688 -0.235443115
vt 0.495361328 0.108154297
vn -0.894399583 0.274596363 -0.353052497
v -0.354034424 0.211380005 -0.164215088
vt 0.464111328 0.133544922
vn -0.738602161 0.440018326 -0.510735571
v -0.408111572 0.205780029 -0.118011475
vt 0.440673828 0.145507812
vn -0.906834006 0.402161181 -0.126168206
vt 0.446044922 0.202636719
vt 0.408447266 0.150390625
vt 0.372070312 0.128906250
vt 0.396240234 0.217773438
vt 0.447021484 0.300537109
vt 0.999511719 0.344726562
vt 0.999755859 0.342773438
vt 0.999511719 0.350341797
vt 0.999755859 0.332275391
vn -0.386186063 0.922117770 0.023644045
vt 0.999755859 0.337890625
vt 0.999267578 0.332275391
vt 0.041503906 0.224121094
vt 0.039550781 0.230224609
vn -0.299472630 0.953583896 0.031523433
vt 0.039794922 0.224609375
vt 0.001220703 0.226074219
vt 0.027587891 0.235839844
vt 0.001708984 0.339355469
vt 0.046875000 0.231445312
vn 0.867973328 -0.473440021 -0.149922669
vt 0.046875000 0.238037109
vt 0.044921875 0.235107422
vt 0.009277344 0.222412109
vn -0.994224012 -0.063125335 -0.086797334
vt 0.007812500 0.218505859
vt 0.009277344 0.216796875
vt 0.167236328 0.833251953
vt 0.119873047 0.761962891
vt 0.162109375 0.791259766
vt 0.238281250 0.753417969
v -0.118492126 -0.431488037 -0.229751587
vt 0.282714844 0.858886719
vn -0.110603698 -0.908530354 -0.402913481
v -0.219406128 -0.317749023 -0.358459473
vt 0.338134766 0.791015625
vn -0.410570413 -0.442152768 -0.797454059
vt 0.190429688 0.932617188
v 0.020017624 -0.334869385 -0.372772217
vt 0.336914062 0.934814453
vn 0.078613527 -0.746828496 -0.660353601
vt 0.116210938 0.916503906
vt 0.000488281 0.863525391
vt 0.000488281 0.697265625
vt 0.087402344 0.859619141
vt 0.102294922 0.697021484
vn -0.496926427 -0.394386053 -0.772996664
v 0.368560791 -0.250762939 0.008548737
vt 0.098388672 0.724853516
vt 0.092529297 0.727783203
v 0.375091553 -0.234542847 -0.101127625
vt 0.474853516 0.447265625
vn 0.886335850 -0.462777138 -0.015687361
vt 0.476562500 0.397216797
vt 0.541992188 0.374511719
vt 0.555908203 0.463623047
v 0.352600098 -0.358306885 -0.127990723
vt 0.541503906 0.486083984
vn 0.684254944 -0.699985027 -0.204489991
v 0.374664307 -0.217666626 -0.152877808
vt 0.455810547 0.473876953
vn 0.896111250 -0.408752501 -0.172933757
vt 0.626708984 0.447753906
v 0.331787109 -0.301940918 -0.286712646
vt 0.481933594 0.569091797
vn 0.566244900 -0.550515890 -0.613431990
vt 0.677246094 0.477539062
v 0.181716919 -0.420349121 -0.258697510
vt 0.589599609 0.612060547
vn 0.181119233 -0.897721350 -0.401612192
vt 0.750976562 0.549316406
vt 0.189208984 0.939941406
vt 0.161376953 0.938964844
vt 0.114013672 0.922363281
vt 0.141845703 0.977294922
vt 0.025634766 0.423828125
v 0.439575195 -0.180679321 -0.101371765
vt 0.029296875 0.467285156
vn 0.914208114 -0.394055218 -0.094573252
vt 0.016357422 0.487060547
v 0.378051758 -0.232910156 -0.131134033
vt 0.046142578 0.424316406
vn 0.703892767 -0.672257125 -0.229358315
v 0.380462646 -0.232421875 -0.131759644
vt 0.047363281 0.423339844
vn -0.550226688 0.455902129 0.699573994
v 0.458129883 -0.184310913 -0.127258301
vt 0.048095703 0.374755859
vn 0.860484660 -0.110520966 -0.497344345
vt 0.008544922 0.397216797
v 0.412963867 -0.167556763 -0.177978516
vt 0.010498047 0.360351562
vn 0.946762204 -0.260359585 -0.189352438
vt 0.578369141 0.934570312
vt 0.517578125 0.920410156
vt 0.551025391 0.791015625
vt 0.489746094 0.914062500
vt 0.472900391 0.907226562
v 0.372802734 -0.083755493 -0.224319458
vt 0.429199219 0.829589844
vn 0.952992260 0.047255814 -0.299286842
v 0.390289307 0.072326660 -0.186096191
vt 0.469726562 0.751464844
vn 0.956290245 0.094838701 -0.276612848
v 0.402984619 0.069335938 -0.346740723
vt 0.387939453 0.736083984
vn 0.900180817 0.165822774 -0.402712464
vt 0.434082031 0.880371094
v 0.390380859 -0.141510010 -0.353149414
vt 0.361572266 0.849609375
vn 0.732715130 -0.236359730 -0.638171256
vt 0.343505859 0.934814453
vt 0.416992188 0.916748047
vt 0.938232422 0.459228516
vt 0.973632812 0.439941406
vt 1.000000000 0.496826172
vt 0.868408203 0.439697266
v 0.406768799 0.266723633 -0.181747437
vt 0.964111328 0.374755859
vn 0.801783681 0.487358719 -0.345867485
vt 0.998779297 0.375244141
vt 0.976074219 0.264648438
v 0.260192871 0.257598877 -0.341857910
vt 0.875732422 0.333007812
vn 0.354100287 0.582298219 -0.731807232
v 0.252929688 0.068931580 -0.463867188
vt 0.795410156 0.394775391
vn 0.282615989 0.133457556 -0.949903846
v 0.216705322 0.342437744 -0.280212402
vt 0.904541016 0.290771484
vn 0.031410493 0.777409673 -0.628209829
v 0.117172241 0.252014160 -0.353607178
vt 0.836425781 0.281494141
vn 0.141640097 0.590167105 -0.794758379
v 0.054725647 0.393920898 -0.181686401
vt 0.921142578 0.203613281
vn 0.094676219 0.875755012 -0.473381102
vt 0.993896484 0.145507812
vt 0.449218750 0.729492188
vt 0.524902344 0.701904297
vt 0.539550781 0.777832031
v 0.023883820 0.299865723 -0.373809814
vt 0.609130859 0.705322266
vn 0.181553170 0.663063705 -0.726212680
v -0.077133179 0.189453125 -0.443145752
vt 0.662841797 0.740966797
vn -0.055260483 0.544710457 -0.836801589
vt 0.606689453 0.663574219
v -0.005246639 0.074157715 -0.446533203
vt 0.702392578 0.705322266
vn 0.094856471 0.347807080 -0.932755291
v -0.195846558 0.071952820 -0.479980469
vt 0.717285156 0.779785156
vn -0.346790135 0.007881594 -0.937909603
vt 0.606445312 0.613525391
v 0.000322223 -0.083244324 -0.490386963
vt 0.765136719 0.693847656
vn -0.070682317 -0.125657454 -0.989552498
vt 0.693603516 0.604003906
vt 0.039794922 0.241699219
vt 0.041259766 0.252197266
vn 0.306394041 -0.714919448 0.628500581
vt 0.005615234 0.350097656
vt 0.048095703 0.246826172
vt 0.051025391 0.368164062
v -0.390991211 -0.034835815 -0.202713013
vt 0.037109375 0.929687500
vn -0.794758379 -0.141640097 -0.590167105
vt 0.077636719 0.871337891
vt 0.083496094 0.980224609
vt 0.005615234 0.868652344
v -0.399627686 0.053569794 -0.288421631
vt 0.000000000 0.968261719
vn -0.788110435 0.141859874 -0.598963976
vt 0.094238281 0.173095703
vt 0.064208984 0.215087891
vt 0.060058594 0.109863281
v -0.328826904 -0.159042358 -0.387329102
vt 0.132568359 0.261474609
vn -0.781175971 -0.173594669 -0.599690676
vt 0.081542969 0.388916016
vt 0.142578125 0.217773438
v -0.288665771 0.050720215 -0.331665039
vt 0.245117188 0.242187500
vn -0.786938131 0.062955052 -0.613811791
vt 0.658447266 0.751953125
vt 0.700927734 0.776855469
vt 0.642822266 0.816162109
vt 0.622070312 0.779541016
vt 0.719482422 0.814453125
v -0.316345215 0.156860352 -0.331573486
vt 0.685546875 0.847412109
vn -0.794758379 0.141640097 -0.590167105
vt 0.734130859 0.853515625
vt 0.644775391 0.864257812
vt 0.583496094 0.831298828
vt 0.673339844 0.921386719
vt 0.594482422 0.930419922
vt 0.747070312 0.936035156
vt 0.830322266 0.868652344
vt 0.520751953 0.142089844
vt 0.556640625 0.031250000
vt 0.598876953 0.179443359
vt 0.470458984 0.201171875
v -0.111808777 -0.262817383 -0.438781738
vt 0.660888672 0.201171875
vn -0.086802743 -0.576054573 -0.812789261
vt 0.635986328 0.285400391
v 0.157546997 -0.211135864 -0.452728271
vt 0.560791016 0.251220703
vn 0.307831824 -0.370976835 -0.876136780
vt 0.552490234 0.370361328
v 0.244506836 -0.121948242 -0.381683350
vt 0.511230469 0.280517578
vn 0.447571903 -0.306233406 -0.840178847
vt 0.451660156 0.272705078
vt 0.455078125 0.357910156
vt 0.263183594 0.432617188
vt 0.192626953 0.516113281
vt 0.203857422 0.451904297
vt 0.288085938 0.497314453
vt 0.281494141 0.328613281
vt 0.185546875 0.257812500
f 1/1/1 2/2/2 3/3/3
f 2/2/2 1/1/1 4/4/4
f 5/5/5 6/6/6 4/4/4
f 5/5/5 4/4/4 1/1/1
f 5/5/5 1/1/1 7/7/7
f 5/5/5 7/7/7 8/8/8
f 8/8/8 7/7/7 9/9/9
f 9/9/9 7/7/7 10/10/10
f 10/10/10 7/7/7 1/1/1
f 10/10/10 1/1/1 11/11/11
f 11/11/11 1/1/1 3/3/3
f 10/10/10 11/11/11 12/12/12
f 12/12/12 11/11/11 13/13/13
f 13/13/13 11/11/11 3/3/3
f 13/13/13 3/3/3 14/14/14
f 14/15/14 15/16/15 16/17/16
f 15/16/15 14/15/14 3/18/3
f 16/17/16 15/16/15 17/19/17
f 17/19/17 15/16/15 18/20/18
f 17/19/17 18/20/18 19/21/19
f 19/21/19 18/20/18 20/22/20
f 16/17/16 17/19/17 21/23/21
f 21/23/21 17/19/17 22/24/22
f 16/17/16 21/23/21 23/25/23
f 23/25/23 21/23/21 24/26/24
f 24/26/24 21/23/21 25/27/25
f 2/28/2 26/29/26 3/30/3
f 3/30/3 26/29/26 15/31/15
f 26/29/26 2/28/2 27/32/27
f 15/31/15 26/29/26 28/33/28
f 28/33/28 26/29/26 27/32/27
f 28/33/28 27/32/27 29/34/29
f 28/33/28 29/34/29 30/35/30
f 15/31/15 28/33/28 18/36/18
f 28/33/28 30/35/30 31/37/31
f 28/33/28 31/37/31 18/36/18
f 18/36/18 31/37/31 20/38/20
f 20/38/20 31/37/31 32/39/32
f 20/38/20 32/39/32 33/40/33
f 32/39/32 31/37/31 34/41/34
f 32/39/32 34/41/34 33/40/33
f 14/42/14 24/43/24 13/44/13
f 24/43/24 14/42/14 16/45/16
f 24/43/24 16/45/16 23/46/23
f 13/44/13 24/43/24 35/47/35
f 35/47/35 24/43/24 36/48/36
f 35/47/35 36/48/36 37/49/37
f 36/48/36 24/43/24 25/50/25
f 37/49/37 36/48/36 38/51/38
f 38/51/38 36/48/36 25/50/25
f 37/49/37 38/51/38 39/52/39
f 38/51/38 25/50/25 40/53/40
f 38/51/38 40/53/40 41/54/41
f 35/55/35 42/56/42 13/57/13
f 42/56/42 35/55/35 37/58/37
f 42/56/42 37/58/37 43/59/43
f 43/59/43 37/58/37 39/60/39
f 42/56/42 43/59/43 44/61/44
f 42/56/42 44/61/44 45/62/45
f 46/63/46 47/64/47 43/59/43
f 43/59/43 47/64/47 48/65/48
f 43/59/43 48/65/48 44/61/44
f 48/65/48 47/64/47 49/66/49
f 44/61/44 48/65/48 50/67/50
f 50/67/50 48/65/48 49/66/49
f 44/61/44 50/67/50 51/68/51
f 50/67/50 49/66/49 52/69/52
f 12/70/12 13/71/13 53/72/53
f 12/70/12 53/72/53 10/73/10
f 53/72/53 13/71/13 42/74/42
f 53/72/53 42/74/42 45/75/45
f 53/72/53 45/75/45 54/76/54
f 2/77/2 4/78/4 27/79/27
f 27/79/27 4/78/4 55/80/55
f 55/80/55 4/78/4 56/81/56
f 56/81/56 4/78/4 6/82/6
f 27/79/27 55/80/55 57/83/57
f 57/83/57 55/80/55 56/81/56
f 27/79/27 57/83/57 29/84/29
f 57/83/57 56/81/56 58/85/58
f 57/83/57 58/85/58 59/86/59
f 29/84/29 57/83/57 30/87/30
f 57/83/57 59/86/59 60/88/60
f 30/87/30 57/83/57 34/89/34
f 30/87/30 34/89/34 31/90/31
f 57/83/57 60/88/60 61/91/61
f 57/83/57 61/91/61 34/89/34
f 61/91/61 60/88/60 62/92/62
f 34/89/34 61/91/61 63/93/63
f 63/93/63 61/91/61 64/94/64
f 65/95/65 45/96/45 44/97/44
f 65/95/65 44/97/44 51/98/51
f 10/99/10 53/100/53 66/101/66
f 10/99/10 66/101/66 67/102/67
f 10/99/10 67/102/67 9/103/9
f 9/103/9 67/102/67 68/104/68
f 67/102/67 66/101/66 69/105/69
f 67/102/67 69/105/69 68/104/68
f 69/105/69 66/101/66 70/106/70
f 68/104/68 69/105/69 71/107/71
f 71/107/71 69/105/69 72/108/72
f 45/109/45 65/110/65 73/111/73
f 45/109/45 73/111/73 52/112/52
f 52/112/52 73/111/73 65/110/65
f 45/109/45 52/112/52 54/113/54
f 54/113/54 52/112/52 49/114/49
f 54/113/54 49/114/49 74/115/74
f 74/115/74 49/114/49 72/116/72
f 72/116/72 49/114/49 75/117/75
f 52/112/52 65/110/65 76/118/76
f 76/118/76 65/110/65 77/119/77
f 76/118/76 77/119/77 52/112/52
f 77/119/77 65/110/65 51/120/51
f 77/119/77 51/120/51 52/112/52
f 52/112/52 51/120/51 50/121/50
f 73/122/78 77/123/78 45/124/79
f 77/123/78 73/122/78 76/125/80
f 20/126/20 78/127/81 19/128/19
f 78/127/81 20/126/20 33/129/33
f 22/130/22 17/131/17 19/128/19
f 22/130/22 19/128/19 79/132/82
f 79/132/82 19/128/19 78/127/81
f 78/127/81 33/129/33 80/133/83
f 80/133/83 33/129/33 81/134/84
f 80/133/83 81/134/84 82/135/85
f 80/133/83 82/135/85 83/136/86
f 78/127/81 80/133/83 84/137/87
f 84/137/87 80/133/83 83/136/86
f 78/127/81 84/137/87 79/132/82
f 79/132/82 84/137/87 83/136/86
f 79/132/82 83/136/86 85/138/88
f 79/132/82 85/138/88 86/139/89
f 79/132/82 86/139/89 22/140/90
f 22/140/90 86/139/89 87/141/91
f 87/141/91 86/139/89 85/138/88
f 87/141/91 85/138/88 40/142/40
f 87/141/91 40/142/40 21/143/21
f 21/143/21 40/142/40 25/144/25
f 87/141/91 21/143/21 22/145/22
f 53/146/53 54/147/54 66/148/66
f 54/149/54 88/150/92 66/151/66
f 88/150/92 54/149/54 74/152/74
f 66/151/66 88/150/92 72/153/72
f 66/151/66 72/153/72 70/154/70
f 70/154/70 72/153/72 69/155/69
f 72/153/72 88/150/92 89/156/93
f 89/156/93 88/150/92 74/152/74
f 90/157/94 74/152/74 72/153/72
f 74/152/74 90/157/94 89/156/93
f 89/156/93 90/157/94 72/153/72
f 79/158/95 22/159/95 87/160/95
f 63/161/63 33/162/33 34/163/34
f 33/162/33 63/161/63 81/164/84
f 43/165/43 39/166/39 46/167/46
f 46/167/46 39/166/39 91/168/96
f 91/168/96 39/166/39 38/169/38
f 9/170/9 68/171/68 92/172/97
f 92/172/97 68/171/68 93/173/98
f 92/172/97 93/173/98 94/174/99
f 92/172/97 94/174/99 95/175/100
f 94/174/99 93/173/98 96/176/101
f 96/176/101 93/173/98 97/177/102
f 96/176/101 97/177/102 98/178/103
f 94/174/99 96/176/101 71/179/71
f 71/179/71 96/176/101 98/178/103
f 94/174/99 71/179/71 95/175/100
f 71/179/71 98/178/103 68/180/68
f 99/181/104 100/182/105 95/175/100
f 99/181/104 95/175/100 101/183/106
f 101/183/106 95/175/100 71/179/71
f 101/183/106 71/179/71 102/184/107
f 101/183/106 102/184/107 103/185/108
f 102/184/107 71/179/71 75/186/75
f 104/187/109 105/188/110 68/189/68
f 68/189/68 105/188/110 93/190/98
f 105/188/110 104/187/109 98/191/103
f 98/191/103 104/187/109 106/192/111
f 104/187/109 68/189/68 97/193/112
f 97/193/112 68/189/68 106/194/111
f 106/194/111 68/189/68 98/195/103
f 107/196/113 38/197/38 41/198/41
f 107/196/113 41/198/41 108/199/114
f 38/197/38 107/196/113 91/200/96
f 91/200/96 107/196/113 108/199/114
f 91/200/96 108/199/114 109/201/115
f 91/200/96 109/201/115 110/202/116
f 91/200/96 110/202/116 111/203/117
f 111/203/117 110/202/116 103/204/108
f 91/200/96 111/203/117 47/205/47
f 47/205/47 111/203/117 103/204/108
f 91/200/96 47/205/47 46/206/46
f 47/205/47 103/204/108 49/207/49
f 49/207/49 103/204/108 102/208/107
f 106/209/111 104/210/109 97/211/112
f 106/212/118 97/213/118 105/214/118
f 98/215/103 97/216/119 105/217/110
f 72/218/72 75/219/75 71/220/71
f 97/221/120 98/222/120 93/223/120
f 97/224/121 93/225/98 105/226/110
f 8/227/8 9/228/9 92/229/97
f 8/227/8 92/229/97 95/230/100
f 8/227/8 95/230/100 112/231/122
f 112/231/122 95/230/100 113/232/123
f 8/227/8 112/231/122 6/233/6
f 6/233/6 112/231/122 114/234/124
f 8/227/8 6/233/6 5/235/5
f 75/236/75 49/237/49 102/238/107
f 62/239/125 115/240/125 61/241/125
f 116/242/126 62/243/62 60/244/60
f 116/242/126 60/244/60 59/245/59
f 116/242/126 59/245/59 117/246/127
f 116/242/126 117/246/127 118/247/128
f 117/246/127 59/245/59 58/248/58
f 118/247/128 117/246/127 119/249/129
f 117/246/127 58/248/58 56/250/56
f 119/249/129 117/246/127 120/251/130
f 120/251/130 117/246/127 56/250/56
f 120/251/130 56/250/56 6/252/6
f 61/253/61 62/254/62 64/255/64
f 64/255/64 62/254/62 116/256/126
f 116/257/126 121/258/131 64/259/64
f 121/258/131 116/257/126 122/260/132
f 122/260/132 116/257/126 123/261/133
f 123/261/133 116/257/126 124/262/134
f 124/262/134 116/257/126 118/263/128
f 124/262/134 118/263/128 125/264/135
f 63/265/63 64/266/64 81/267/84
f 81/267/84 64/266/64 121/268/131
f 81/267/84 121/268/131 124/269/134
f 81/267/84 124/269/134 126/270/136
f 81/267/84 126/270/136 127/271/137
f 127/271/137 126/270/136 128/272/138
f 126/270/136 124/269/134 125/273/135
f 128/272/138 126/270/136 129/274/139
f 129/274/139 126/270/136 125/273/135
f 129/274/139 125/273/135 119/275/129
f 119/275/129 125/273/135 118/276/128
f 127/277/137 82/278/85 81/279/84
f 82/278/85 127/277/137 128/280/138
f 82/278/85 128/280/138 130/281/140
f 82/278/85 130/281/140 83/282/86
f 83/282/86 130/281/140 85/283/88
f 130/281/140 128/280/138 131/284/141
f 130/281/140 131/284/141 85/283/88
f 131/284/141 128/280/138 132/285/142
f 85/283/88 131/284/141 133/286/143
f 133/286/143 131/284/141 134/287/144
f 133/286/143 134/287/144 135/288/145
f 133/286/143 135/288/145 85/283/88
f 85/283/88 135/288/145 40/289/40
f 40/290/40 135/291/145 41/292/41
f 41/292/41 135/291/145 136/293/146
f 41/292/41 136/293/146 137/294/147
f 136/293/146 135/291/145 134/295/144
f 137/294/147 136/293/146 138/296/148
f 138/296/148 136/293/146 134/295/144
f 137/294/147 138/296/148 139/297/149
f 138/296/148 134/295/144 131/298/141
f 139/297/149 138/296/148 140/299/150
f 138/296/148 131/298/141 132/300/142
f 138/296/148 132/300/142 140/299/150
f 122/301/132 118/302/151 121/303/131
f 118/302/151 122/301/132 123/304/133
f 118/302/151 123/304/133 121/303/131
f 121/303/131 123/304/133 124/305/134
f 141/306/152 101/307/106 103/308/108
f 101/307/106 141/306/152 99/309/104
f 99/309/104 141/306/152 142/310/153
f 100/311/105 113/312/123 95/313/100
f 113/312/123 100/311/105 143/314/154
f 113/312/123 143/314/154 139/315/149
f 143/314/154 100/311/105 99/316/104
f 143/314/154 99/316/104 144/317/155
f 103/318/108 110/319/116 142/320/153
f 103/318/108 142/320/153 141/321/152
f 142/320/153 110/319/116 109/322/115
f 142/320/153 109/322/115 145/323/156
f 145/323/156 109/322/115 108/324/114
f 142/320/153 145/323/156 144/325/155
f 142/320/153 144/325/155 99/326/104
f 144/325/155 145/323/156 139/327/149
f 139/327/149 145/323/156 108/324/114
f 144/325/155 139/327/149 143/328/154
f 139/327/149 108/324/114 137/329/147
f 137/329/147 108/324/114 41/330/41
f 120/331/130 6/332/6 114/333/124
f 120/331/130 114/333/124 119/334/129
f 146/335/157 140/336/150 114/333/124
f 114/333/124 140/336/150 147/337/158
f 114/333/124 147/337/158 119/334/129
f 147/337/158 140/336/150 132/338/142
f 119/334/129 147/337/158 148/339/159
f 148/339/159 147/337/158 132/338/142
f 119/334/129 148/339/159 129/340/139
f 129/340/139 148/339/159 132/338/142
f 129/340/139 132/338/142 128/341/138
f 146/342/157 112/343/122 113/344/123
f 112/343/122 146/342/157 114/345/124
f 146/342/157 113/344/123 140/346/150
f 140/346/150 113/344/123 139/347/149
